<svg width="24" height="24" viewBox="0 0 24 24" fill="none" xmlns="http://www.w3.org/2000/svg">
<path d="M22.5459 5.95406C22.4414 5.84918 22.3172 5.76596 22.1805 5.70918C22.0437 5.6524 21.8971 5.62317 21.749 5.62317C21.601 5.62317 21.4544 5.6524 21.3176 5.70918C21.1809 5.76596 21.0567 5.84918 20.9522 5.95406L18 8.90625L15.0937 6L18.0487 3.04594C18.2601 2.83459 18.3788 2.54795 18.3788 2.24906C18.3788 1.95017 18.2601 1.66353 18.0487 1.45218C17.8374 1.24084 17.5507 1.12211 17.2519 1.12211C16.953 1.12211 16.6663 1.24084 16.455 1.45218L13.5 4.40625L11.2959 2.20406C11.1913 2.09941 11.067 2.0164 10.9303 1.95977C10.7936 1.90313 10.647 1.87398 10.499 1.87398C10.2002 1.87398 9.91351 1.99272 9.70216 2.20406C9.49082 2.4154 9.37209 2.70205 9.37209 3.00093C9.37209 3.29982 9.49082 3.58647 9.70216 3.79781L10.0312 4.125L5.33341 8.82562C4.95031 9.20867 4.64641 9.66344 4.43907 10.1639C4.23173 10.6645 4.12501 11.2009 4.12501 11.7427C4.12501 12.2844 4.23173 12.8209 4.43907 13.3214C4.64641 13.8219 4.95031 14.2766 5.33341 14.6597L6.54091 15.8672L2.20404 20.2041C2.09939 20.3087 2.01638 20.4329 1.95975 20.5697C1.90311 20.7064 1.87396 20.8529 1.87396 21.0009C1.87396 21.1489 1.90311 21.2955 1.95975 21.4322C2.01638 21.5689 2.09939 21.6932 2.20404 21.7978C2.41538 22.0092 2.70203 22.1279 3.00091 22.1279C3.14891 22.1279 3.29545 22.0987 3.43218 22.0421C3.56891 21.9855 3.69314 21.9025 3.79779 21.7978L8.13466 17.4609L9.34216 18.6684C9.72521 19.0515 10.18 19.3554 10.6805 19.5628C11.181 19.7701 11.7174 19.8768 12.2592 19.8768C12.8009 19.8768 13.3374 19.7701 13.8379 19.5628C14.3384 19.3554 14.7932 19.0515 15.1762 18.6684L19.875 13.9687L20.204 14.2987C20.3087 14.4034 20.4329 14.4864 20.5696 14.543C20.7064 14.5997 20.8529 14.6288 21.0009 14.6288C21.1489 14.6288 21.2955 14.5997 21.4322 14.543C21.5689 14.4864 21.6931 14.4034 21.7978 14.2987C21.9024 14.1941 21.9854 14.0699 22.0421 13.9331C22.0987 13.7964 22.1279 13.6499 22.1279 13.5019C22.1279 13.3539 22.0987 13.2073 22.0421 13.0706C21.9854 12.9339 21.9024 12.8096 21.7978 12.705L19.5937 10.5L22.5487 7.54593C22.6531 7.44127 22.7359 7.31705 22.7923 7.18037C22.8486 7.0437 22.8775 6.89726 22.8773 6.74941C22.877 6.60157 22.8476 6.45523 22.7908 6.31876C22.7339 6.18228 22.6507 6.05836 22.5459 5.95406ZM13.5834 17.0756C13.4093 17.2498 13.2026 17.388 12.975 17.4823C12.7475 17.5765 12.5036 17.6251 12.2573 17.6251C12.011 17.6251 11.7671 17.5765 11.5396 17.4823C11.3121 17.388 11.1053 17.2498 10.9312 17.0756L6.92435 13.0687C6.75016 12.8946 6.61198 12.6879 6.51771 12.4604C6.42343 12.2328 6.37491 11.9889 6.37491 11.7427C6.37491 11.4964 6.42343 11.2525 6.51771 11.0249C6.61198 10.7974 6.75016 10.5907 6.92435 10.4166L11.625 5.71875L18.2812 12.375L13.5834 17.0756Z" fill="black"/>
</svg>
