<svg width="12" height="12" viewBox="0 0 12 12" fill="none" xmlns="http://www.w3.org/2000/svg">
<path d="M5.99991 1.49971C5.90046 1.49971 5.80507 1.53921 5.73475 1.60954C5.66442 1.67987 5.62491 1.77525 5.62491 1.87471L5.62491 9.21955L2.89023 6.48439C2.85538 6.44955 2.81402 6.42191 2.7685 6.40306C2.72298 6.3842 2.67419 6.3745 2.62491 6.3745C2.57564 6.3745 2.52685 6.3842 2.48133 6.40306C2.4358 6.42191 2.39444 6.44955 2.3596 6.48439C2.32476 6.51923 2.29712 6.5606 2.27827 6.60612C2.25941 6.65164 2.2497 6.70043 2.2497 6.7497C2.2497 6.79898 2.25941 6.84777 2.27827 6.89329C2.29712 6.93881 2.32476 6.98018 2.3596 7.01502L5.7346 10.39C5.76943 10.4249 5.81079 10.4525 5.85631 10.4714C5.90184 10.4903 5.95063 10.5 5.99991 10.5C6.04919 10.5 6.09799 10.4903 6.14352 10.4714C6.18904 10.4525 6.2304 10.4249 6.26523 10.39L9.64023 7.01502C9.71059 6.94465 9.75012 6.84922 9.75012 6.7497C9.75012 6.65019 9.71059 6.55476 9.64023 6.48439C9.56986 6.41403 9.47443 6.3745 9.37491 6.3745C9.2754 6.3745 9.17997 6.41403 9.1096 6.48439L6.37491 9.21955L6.37491 1.87471C6.37491 1.77525 6.3354 1.67987 6.26508 1.60954C6.19475 1.53921 6.09937 1.49971 5.99991 1.49971Z" fill="#273D16"/>
</svg>
