<svg width="24" height="24" viewBox="0 0 24 24" fill="none" xmlns="http://www.w3.org/2000/svg">
<path d="M2.99941 11.9999C2.99941 12.1988 3.07843 12.3896 3.21908 12.5303C3.35973 12.6709 3.5505 12.7499 3.74941 12.7499H18.4391L12.9688 18.2193C12.8991 18.289 12.8438 18.3717 12.8061 18.4628C12.7684 18.5538 12.749 18.6514 12.749 18.7499C12.749 18.8485 12.7684 18.9461 12.8061 19.0371C12.8438 19.1281 12.8991 19.2109 12.9688 19.2806C13.0385 19.3502 13.1212 19.4055 13.2122 19.4432C13.3033 19.4809 13.4009 19.5003 13.4994 19.5003C13.598 19.5003 13.6955 19.4809 13.7866 19.4432C13.8776 19.4055 13.9604 19.3502 14.03 19.2806L20.78 12.5306C20.8498 12.4609 20.9051 12.3782 20.9428 12.2871C20.9806 12.1961 21 12.0985 21 11.9999C21 11.9014 20.9806 11.8038 20.9428 11.7127C20.9051 11.6217 20.8498 11.539 20.78 11.4693L14.03 4.7193C13.8893 4.57857 13.6984 4.49951 13.4994 4.49951C13.3004 4.49951 13.1095 4.57857 12.9688 4.7193C12.8281 4.86003 12.749 5.05091 12.749 5.24993C12.749 5.44895 12.8281 5.63982 12.9688 5.78055L18.4391 11.2499H3.74941C3.5505 11.2499 3.35973 11.3289 3.21908 11.4696C3.07843 11.6103 2.99941 11.801 2.99941 11.9999Z" fill="white"/>
</svg>
