<svg width="32" height="32" viewBox="0 0 32 32" fill="none" xmlns="http://www.w3.org/2000/svg">
<path d="M17 15V22C17 22.2652 16.8946 22.5196 16.7071 22.7071C16.5196 22.8946 16.2652 23 16 23C15.7348 23 15.4804 22.8946 15.2929 22.7071C15.1054 22.5196 15 22.2652 15 22V15C15 14.7348 15.1054 14.4804 15.2929 14.2929C15.4804 14.1054 15.7348 14 16 14C16.2652 14 16.5196 14.1054 16.7071 14.2929C16.8946 14.4804 17 14.7348 17 15ZM21.605 14.9L20.905 21.9C20.8912 22.0311 20.9034 22.1636 20.9409 22.2899C20.9785 22.4162 21.0406 22.5339 21.1238 22.6361C21.207 22.7383 21.3095 22.8231 21.4256 22.8855C21.5416 22.948 21.6689 22.9869 21.8 23C21.8337 23.0019 21.8675 23.0019 21.9012 23C22.1489 22.9997 22.3877 22.9075 22.5713 22.7412C22.7549 22.5749 22.8702 22.3464 22.895 22.1L23.595 15.1C23.6215 14.8361 23.5421 14.5725 23.3743 14.3671C23.2064 14.1618 22.9639 14.0315 22.7 14.005C22.4361 13.9785 22.1725 14.0579 21.9671 14.2257C21.7618 14.3936 21.6315 14.6361 21.605 14.9ZM10.395 14.9C10.3685 14.6361 10.2382 14.3936 10.0329 14.2257C9.82751 14.0579 9.56389 13.9785 9.3 14.005C9.03611 14.0315 8.79356 14.1618 8.62572 14.3671C8.45787 14.5725 8.37848 14.8361 8.405 15.1L9.105 22.1C9.12987 22.3475 9.24611 22.5769 9.43102 22.7433C9.61593 22.9097 9.85623 23.0012 10.105 23C10.1387 23.0019 10.1725 23.0019 10.2062 23C10.3369 22.9869 10.4637 22.9481 10.5794 22.886C10.6951 22.8239 10.7974 22.7395 10.8805 22.6379C10.9636 22.5362 11.0259 22.4191 11.0638 22.2934C11.1017 22.1676 11.1144 22.0357 11.1012 21.905L10.395 14.9ZM29.9912 11.1325L28.1075 25.265C28.0418 25.7446 27.805 26.1844 27.4407 26.5032C27.0764 26.822 26.6091 26.9984 26.125 27H5.875C5.39089 26.9984 4.92364 26.822 4.55934 26.5032C4.19503 26.1844 3.95821 25.7446 3.8925 25.265L2.00875 11.1325C1.98986 10.9912 2.00139 10.8476 2.04256 10.7111C2.08373 10.5747 2.15359 10.4486 2.24746 10.3414C2.34132 10.2341 2.45703 10.1482 2.58682 10.0893C2.71661 10.0304 2.85748 9.99999 3 10H8.54625L15.25 2.34125C15.3438 2.23484 15.4592 2.14962 15.5886 2.09125C15.7179 2.03287 15.8581 2.00269 16 2.00269C16.1419 2.00269 16.2821 2.03287 16.4114 2.09125C16.5407 2.14962 16.6562 2.23484 16.75 2.34125L23.4537 10H29C29.1425 9.99999 29.2834 10.0304 29.4132 10.0893C29.543 10.1482 29.6587 10.2341 29.7525 10.3414C29.8464 10.4486 29.9163 10.5747 29.9574 10.7111C29.9986 10.8476 30.0101 10.9912 29.9912 11.1325ZM11.2037 10H20.7962L16 4.51875L11.2037 10ZM27.8575 12H4.1425L5.875 25H26.125L27.8575 12Z" fill="#C2CDD6"/>
</svg>
