<svg width="24" height="24" viewBox="0 0 24 24" fill="none" xmlns="http://www.w3.org/2000/svg">
<path d="M2.6625 11.7001C2.78185 11.7896 2.93187 11.8281 3.07955 11.807C3.22724 11.7859 3.36049 11.707 3.45 11.5876C3.92156 10.9589 4.53303 10.4485 5.23598 10.0971C5.93894 9.74559 6.71407 9.56261 7.5 9.56261C8.28593 9.56261 9.06107 9.74559 9.76402 10.0971C10.467 10.4485 11.0784 10.9589 11.55 11.5876C11.6397 11.7068 11.773 11.7855 11.9207 11.8064C12.0683 11.8274 12.2183 11.7888 12.3375 11.6992C12.3801 11.6678 12.4177 11.6302 12.4491 11.5876C12.9206 10.9589 13.5321 10.4485 14.235 10.0971C14.938 9.74559 15.7131 9.56261 16.4991 9.56261C17.285 9.56261 18.0601 9.74559 18.7631 10.0971C19.466 10.4485 20.0775 10.9589 20.5491 11.5876C20.6387 11.707 20.7721 11.7858 20.9198 11.8068C21.0676 11.8278 21.2177 11.7893 21.337 11.6996C21.4564 11.61 21.5352 11.4766 21.5562 11.3289C21.5773 11.1811 21.5387 11.031 21.4491 10.9117C20.7409 9.96319 19.7746 9.23869 18.6656 8.8248C19.2567 8.37197 19.691 7.74532 19.9076 7.03291C20.1241 6.3205 20.112 5.55815 19.8729 4.85298C19.6339 4.14781 19.1798 3.53528 18.5747 3.10145C17.9695 2.66763 17.2437 2.43433 16.4991 2.43433C15.7545 2.43433 15.0286 2.66763 14.4234 3.10145C13.8183 3.53528 13.3643 4.14781 13.1252 4.85298C12.8861 5.55815 12.874 6.3205 13.0906 7.03291C13.3071 7.74532 13.7414 8.37197 14.3325 8.8248C13.4454 9.15535 12.647 9.68708 12 10.3782C11.3528 9.68696 10.554 9.15522 9.66656 8.8248C10.2576 8.37197 10.692 7.74532 10.9085 7.03291C11.1251 6.3205 11.1129 5.55815 10.8739 4.85298C10.6348 4.14781 10.1808 3.53528 9.57563 3.10145C8.97047 2.66763 8.24459 2.43433 7.5 2.43433C6.75541 2.43433 6.02953 2.66763 5.42437 3.10145C4.81922 3.53528 4.3652 4.14781 4.12613 4.85298C3.88706 5.55815 3.87494 6.3205 4.09149 7.03291C4.30804 7.74532 4.74237 8.37197 5.33344 8.8248C4.22423 9.23872 3.25784 9.96359 2.55 10.9126C2.46049 11.032 2.42206 11.182 2.44316 11.3297C2.46425 11.4773 2.54315 11.6106 2.6625 11.7001ZM16.5 3.56261C16.9821 3.56261 17.4534 3.70557 17.8542 3.9734C18.255 4.24124 18.5675 4.62192 18.752 5.06732C18.9364 5.51271 18.9847 6.00281 18.8907 6.47564C18.7966 6.94847 18.5645 7.38279 18.2236 7.72368C17.8827 8.06457 17.4484 8.29672 16.9755 8.39077C16.5027 8.48482 16.0126 8.43655 15.5672 8.25206C15.1218 8.06758 14.7411 7.75516 14.4733 7.35431C14.2055 6.95347 14.0625 6.4822 14.0625 6.00011C14.0625 5.35364 14.3193 4.73366 14.7764 4.27654C15.2335 3.81942 15.8535 3.56261 16.5 3.56261ZM7.5 3.56261C7.98209 3.56261 8.45336 3.70557 8.8542 3.9734C9.25505 4.24124 9.56747 4.62192 9.75196 5.06732C9.93645 5.51271 9.98472 6.00281 9.89067 6.47564C9.79662 6.94847 9.56447 7.38279 9.22357 7.72368C8.88268 8.06457 8.44836 8.29672 7.97553 8.39077C7.50271 8.48482 7.01261 8.43655 6.56721 8.25206C6.12182 8.06758 5.74113 7.75516 5.47329 7.35431C5.20546 6.95347 5.0625 6.4822 5.0625 6.00011C5.0625 5.35364 5.31931 4.73366 5.77643 4.27654C6.23355 3.81942 6.85354 3.56261 7.5 3.56261ZM18.6666 18.5748C19.2576 18.122 19.692 17.4953 19.9085 16.7829C20.1251 16.0705 20.1129 15.3081 19.8739 14.603C19.6348 13.8978 19.1808 13.2853 18.5756 12.8515C17.9705 12.4176 17.2446 12.1843 16.5 12.1843C15.7554 12.1843 15.0295 12.4176 14.4244 12.8515C13.8192 13.2853 13.3652 13.8978 13.1261 14.603C12.8871 15.3081 12.8749 16.0705 13.0915 16.7829C13.308 17.4953 13.7424 18.122 14.3334 18.5748C13.446 18.9052 12.6472 19.437 12 20.1282C11.3528 19.437 10.554 18.9052 9.66656 18.5748C10.2576 18.122 10.692 17.4953 10.9085 16.7829C11.1251 16.0705 11.1129 15.3081 10.8739 14.603C10.6348 13.8978 10.1808 13.2853 9.57563 12.8515C8.97047 12.4176 8.24459 12.1843 7.5 12.1843C6.75541 12.1843 6.02953 12.4176 5.42437 12.8515C4.81922 13.2853 4.3652 13.8978 4.12613 14.603C3.88706 15.3081 3.87494 16.0705 4.09149 16.7829C4.30804 17.4953 4.74237 18.122 5.33344 18.5748C4.22423 18.9887 3.25784 19.7136 2.55 20.6626C2.50568 20.7217 2.47343 20.7889 2.4551 20.8605C2.43677 20.9321 2.43271 21.0065 2.44316 21.0797C2.4536 21.1528 2.47835 21.2231 2.51599 21.2867C2.55362 21.3503 2.60341 21.4058 2.6625 21.4501C2.7216 21.4944 2.78884 21.5267 2.8604 21.545C2.93196 21.5633 3.00643 21.5674 3.07955 21.557C3.15268 21.5465 3.22303 21.5218 3.28659 21.4841C3.35015 21.4465 3.40568 21.3967 3.45 21.3376C3.92156 20.7089 4.53303 20.1985 5.23598 19.8471C5.93894 19.4956 6.71407 19.3126 7.5 19.3126C8.28593 19.3126 9.06107 19.4956 9.76402 19.8471C10.467 20.1985 11.0784 20.7089 11.55 21.3376C11.6397 21.4568 11.773 21.5355 11.9207 21.5564C12.0683 21.5774 12.2183 21.5388 12.3375 21.4492C12.3801 21.4178 12.4177 21.3802 12.4491 21.3376C12.9206 20.7089 13.5321 20.1985 14.235 19.8471C14.938 19.4956 15.7131 19.3126 16.4991 19.3126C17.285 19.3126 18.0601 19.4956 18.7631 19.8471C19.466 20.1985 20.0775 20.7089 20.5491 21.3376C20.6387 21.457 20.7721 21.5358 20.9198 21.5568C21.0676 21.5778 21.2177 21.5393 21.337 21.4496C21.4564 21.36 21.5352 21.2266 21.5562 21.0789C21.5773 20.9311 21.5387 20.781 21.4491 20.6617C20.7412 19.7133 19.7752 18.9889 18.6666 18.5748ZM7.5 13.3126C7.98209 13.3126 8.45336 13.4556 8.8542 13.7234C9.25505 13.9912 9.56747 14.3719 9.75196 14.8173C9.93645 15.2627 9.98472 15.7528 9.89067 16.2256C9.79662 16.6985 9.56447 17.1328 9.22357 17.4737C8.88268 17.8146 8.44836 18.0467 7.97553 18.1408C7.50271 18.2348 7.01261 18.1866 6.56721 18.0021C6.12182 17.8176 5.74113 17.5052 5.47329 17.1043C5.20546 16.7035 5.0625 16.2322 5.0625 15.7501C5.0625 15.1036 5.31931 14.4837 5.77643 14.0265C6.23355 13.5694 6.85354 13.3126 7.5 13.3126ZM16.5 13.3126C16.9821 13.3126 17.4534 13.4556 17.8542 13.7234C18.255 13.9912 18.5675 14.3719 18.752 14.8173C18.9364 15.2627 18.9847 15.7528 18.8907 16.2256C18.7966 16.6985 18.5645 17.1328 18.2236 17.4737C17.8827 17.8146 17.4484 18.0467 16.9755 18.1408C16.5027 18.2348 16.0126 18.1866 15.5672 18.0021C15.1218 17.8176 14.7411 17.5052 14.4733 17.1043C14.2055 16.7035 14.0625 16.2322 14.0625 15.7501C14.0625 15.1036 14.3193 14.4837 14.7764 14.0265C15.2335 13.5694 15.8535 13.3126 16.5 13.3126Z" fill="white"/>
</svg>
