<svg width="56" height="56" viewBox="0 0 56 56" fill="none" xmlns="http://www.w3.org/2000/svg">
<rect width="56" height="56" rx="28" fill="#247F78"/>
<path d="M14.5416 27.6585L27.6587 14.5415C27.8301 14.3694 28.0339 14.233 28.2583 14.1401C28.4827 14.0472 28.7233 13.9996 28.9661 14H41.2076C41.4177 14 41.6193 14.0835 41.7679 14.2321C41.9165 14.3807 42 14.5823 42 14.7924V27.0339C42.0004 27.2767 41.9528 27.5173 41.8599 27.7417C41.767 27.9661 41.6306 28.1699 41.4585 28.3413L28.3415 41.4584C28.1698 41.6301 27.9659 41.7663 27.7416 41.8592C27.5173 41.9522 27.2768 42 27.034 42C26.7912 42 26.5507 41.9522 26.3264 41.8592C26.102 41.7663 25.8982 41.6301 25.7265 41.4584L14.5416 30.2735C14.3699 30.1018 14.2337 29.898 14.1408 29.6736C14.0478 29.4493 14 29.2088 14 28.966C14 28.7232 14.0478 28.4827 14.1408 28.2584C14.2337 28.0341 14.3699 27.8302 14.5416 27.6585ZM15.6629 29.1522L26.8478 40.3371C26.8723 40.3617 26.9014 40.3812 26.9335 40.3945C26.9656 40.4077 26.9999 40.4146 27.0346 40.4146C27.0694 40.4146 27.1037 40.4077 27.1358 40.3945C27.1679 40.3812 27.197 40.3617 27.2215 40.3371L40.3373 27.2201C40.3869 27.1708 40.4149 27.1038 40.4152 27.0339V15.5848H28.9661C28.8962 15.5851 28.8292 15.6131 28.7799 15.6627L15.6629 28.7785C15.6383 28.803 15.6188 28.8321 15.6055 28.8642C15.5923 28.8963 15.5854 28.9306 15.5854 28.9654C15.5854 29.0001 15.5923 29.0344 15.6055 29.0665C15.6188 29.0986 15.6383 29.1277 15.6629 29.1522ZM34.0759 20.6034C34.0759 20.8646 34.1533 21.12 34.2985 21.3372C34.4436 21.5544 34.6498 21.7236 34.8912 21.8236C35.1325 21.9235 35.398 21.9497 35.6542 21.8987C35.9104 21.8478 36.1457 21.722 36.3304 21.5373C36.5151 21.3526 36.6409 21.1173 36.6919 20.8611C36.7428 20.6049 36.7167 20.3394 36.6167 20.098C36.5168 19.8567 36.3475 19.6504 36.1303 19.5053C35.9131 19.3602 35.6578 19.2827 35.3966 19.2827C35.0463 19.2827 34.7104 19.4219 34.4627 19.6696C34.215 19.9172 34.0759 20.2532 34.0759 20.6034Z" fill="white"/>
</svg>
