<svg width="72" height="72" viewBox="0 0 72 72" fill="none" xmlns="http://www.w3.org/2000/svg">
<rect width="72" height="72" rx="36" fill="#80BA53"/>
<path d="M49.1482 32.7545C48.6164 32.1995 48.0668 31.6268 47.8459 31.0936C47.6414 30.5986 47.6305 29.8664 47.6182 29.0918C47.5991 27.8127 47.5773 26.3645 46.6064 25.3936C45.6355 24.4227 44.1818 24.4009 42.9082 24.3818C42.1336 24.3695 41.4082 24.3586 40.9064 24.1541C40.3732 23.9332 39.8005 23.3836 39.2455 22.8518C38.34 21.9845 37.3145 21 36 21C34.6855 21 33.66 21.9845 32.7545 22.8518C32.1995 23.3836 31.6268 23.9332 31.0936 24.1541C30.5986 24.3586 29.8664 24.3695 29.0918 24.3818C27.8127 24.4009 26.3645 24.4227 25.3936 25.3936C24.4227 26.3645 24.4009 27.8182 24.3818 29.0918C24.3695 29.8664 24.3586 30.5918 24.1541 31.0936C23.9332 31.6268 23.3836 32.1995 22.8518 32.7545C21.9845 33.66 21 34.6855 21 36C21 37.3145 21.9845 38.34 22.8518 39.2455C23.3836 39.8005 23.9332 40.3732 24.1541 40.9064C24.3586 41.4014 24.3695 42.1336 24.3818 42.9082C24.4009 44.1873 24.4227 45.6355 25.3936 46.6064C26.3645 47.5773 27.8182 47.5991 29.0918 47.6182C29.8664 47.6305 30.5918 47.6414 31.0936 47.8459C31.6268 48.0668 32.1995 48.6164 32.7545 49.1482C33.66 50.0155 34.6855 51 36 51C37.3145 51 38.34 50.0155 39.2455 49.1482C39.8005 48.6164 40.3732 48.0668 40.9064 47.8459C41.4014 47.6414 42.1336 47.6305 42.9082 47.6182C44.1873 47.5991 45.6355 47.5773 46.6064 46.6064C47.5773 45.6355 47.5991 44.1873 47.6182 42.9082C47.6305 42.1336 47.6414 41.4082 47.8459 40.9064C48.0668 40.3732 48.6164 39.8005 49.1482 39.2455C50.0155 38.34 51 37.3145 51 36C51 34.6855 50.0155 33.66 49.1482 32.7545ZM47.9673 38.1123C47.3305 38.7764 46.6718 39.4636 46.3309 40.2818C46.0064 41.0645 45.9927 41.9891 45.9791 42.8836C45.9641 43.8982 45.9477 44.9482 45.4473 45.45C44.9468 45.9518 43.8955 45.9668 42.8809 45.9818C41.9864 45.9955 41.0618 46.0091 40.2791 46.3336C39.4609 46.6718 38.7791 47.3305 38.1095 47.97C37.3936 48.6518 36.6532 49.3664 35.9973 49.3664C35.3414 49.3664 34.6009 48.6559 33.8836 47.97C33.2209 47.3332 32.5336 46.6745 31.7155 46.3336C30.9327 46.0091 30.0082 45.9955 29.1136 45.9818C28.0991 45.9668 27.0491 45.9505 26.5473 45.45C26.0455 44.9495 26.0305 43.8982 26.0155 42.8836C26.0018 41.9891 25.9882 41.0645 25.6636 40.2818C25.3255 39.4636 24.6668 38.7818 24.0273 38.1123C23.3468 37.3964 22.6364 36.6559 22.6364 36C22.6364 35.3441 23.3468 34.6036 24.0327 33.8877C24.6695 33.2236 25.3282 32.5364 25.6691 31.7182C25.9936 30.9355 26.0073 30.0109 26.0209 29.1164C26.0359 28.1018 26.0523 27.0518 26.5527 26.55C27.0532 26.0482 28.1045 26.0332 29.1191 26.0182C30.0136 26.0045 30.9382 25.9909 31.7209 25.6664C32.5391 25.3282 33.2209 24.6695 33.8905 24.03C34.6036 23.3468 35.3441 22.6364 36 22.6364C36.6559 22.6364 37.3964 23.3468 38.1136 24.0327C38.7764 24.6695 39.4636 25.3282 40.2818 25.6691C41.0645 25.9936 41.9891 26.0073 42.8836 26.0209C43.8982 26.0359 44.9482 26.0523 45.45 26.5527C45.9518 27.0532 45.9668 28.1045 45.9818 29.1191C45.9955 30.0136 46.0091 30.9382 46.3336 31.7209C46.6718 32.5391 47.3305 33.2209 47.97 33.8905C48.6518 34.6064 49.3664 35.3468 49.3664 36.0027C49.3664 36.6586 48.6532 37.3964 47.9673 38.1123ZM34.6364 31.6364C34.6364 31.043 34.4604 30.463 34.1308 29.9697C33.8011 29.4763 33.3326 29.0918 32.7844 28.8647C32.2362 28.6377 31.633 28.5783 31.0511 28.694C30.4692 28.8098 29.9346 29.0955 29.515 29.515C29.0955 29.9346 28.8098 30.4692 28.694 31.0511C28.5783 31.633 28.6377 32.2362 28.8647 32.7844C29.0918 33.3326 29.4763 33.8011 29.9697 34.1308C30.463 34.4604 31.043 34.6364 31.6364 34.6364C32.432 34.6364 33.1951 34.3203 33.7577 33.7577C34.3203 33.1951 34.6364 32.432 34.6364 31.6364ZM30.2727 31.6364C30.2727 31.3667 30.3527 31.103 30.5025 30.8788C30.6524 30.6545 30.8654 30.4797 31.1145 30.3765C31.3637 30.2733 31.6379 30.2463 31.9024 30.2989C32.1669 30.3515 32.4099 30.4814 32.6006 30.6721C32.7913 30.8628 32.9212 31.1058 32.9738 31.3703C33.0264 31.6349 32.9994 31.909 32.8962 32.1582C32.793 32.4074 32.6182 32.6203 32.394 32.7702C32.1697 32.92 31.9061 33 31.6364 33C31.2747 33 30.9279 32.8563 30.6721 32.6006C30.4164 32.3449 30.2727 31.998 30.2727 31.6364ZM40.3636 37.3636C39.7703 37.3636 39.1903 37.5396 38.6969 37.8692C38.2036 38.1989 37.8191 38.6674 37.592 39.2156C37.3649 39.7638 37.3055 40.367 37.4213 40.9489C37.537 41.5309 37.8228 42.0654 38.2423 42.485C38.6619 42.9045 39.1964 43.1902 39.7784 43.306C40.3603 43.4217 40.9635 43.3623 41.5117 43.1353C42.0599 42.9082 42.5284 42.5237 42.858 42.0303C43.1877 41.537 43.3636 40.957 43.3636 40.3636C43.3636 39.568 43.0476 38.8049 42.485 38.2423C41.9223 37.6797 41.1593 37.3636 40.3636 37.3636ZM40.3636 41.7273C40.0939 41.7273 39.8303 41.6473 39.606 41.4975C39.3818 41.3476 39.207 41.1346 39.1038 40.8855C39.0006 40.6363 38.9736 40.3621 39.0262 40.0976C39.0788 39.8331 39.2087 39.5901 39.3994 39.3994C39.5901 39.2087 39.8331 39.0788 40.0976 39.0262C40.3621 38.9736 40.6363 39.0006 40.8855 39.1038C41.1346 39.207 41.3476 39.3818 41.4975 39.606C41.6473 39.8303 41.7273 40.0939 41.7273 40.3636C41.7273 40.7253 41.5836 41.0721 41.3279 41.3279C41.0721 41.5836 40.7253 41.7273 40.3636 41.7273ZM42.0327 31.1236L31.1236 42.0327C30.9685 42.1773 30.7634 42.2559 30.5514 42.2522C30.3395 42.2485 30.1372 42.1626 29.9873 42.0127C29.8374 41.8628 29.7515 41.6605 29.7478 41.4486C29.7441 41.2366 29.8228 41.0315 29.9673 40.8764L40.8764 29.9673C41.0315 29.8228 41.2366 29.7441 41.4486 29.7478C41.6605 29.7515 41.8628 29.8374 42.0127 29.9873C42.1626 30.1372 42.2485 30.3395 42.2522 30.5514C42.2559 30.7634 42.1773 30.9685 42.0327 31.1236Z" fill="white"/>
</svg>
