<svg width="24" height="24" viewBox="0 0 24 24" fill="none" xmlns="http://www.w3.org/2000/svg">
<path d="M22.875 19.125H22.5V12C22.5 11.5027 22.3025 11.0258 21.9508 10.6742C21.5992 10.3225 21.1223 10.125 20.625 10.125H16.125V4.5C16.125 4.00272 15.9275 3.52581 15.5758 3.17417C15.2242 2.82254 14.7473 2.625 14.25 2.625H5.25C4.75272 2.625 4.27581 2.82254 3.92417 3.17417C3.57254 3.52581 3.375 4.00272 3.375 4.5V19.125H3C2.70163 19.125 2.41548 19.2435 2.2045 19.4545C1.99353 19.6655 1.875 19.9516 1.875 20.25C1.875 20.5484 1.99353 20.8345 2.2045 21.0455C2.41548 21.2565 2.70163 21.375 3 21.375H22.875C23.1734 21.375 23.4595 21.2565 23.6705 21.0455C23.8815 20.8345 24 20.5484 24 20.25C24 19.9516 23.8815 19.6655 23.6705 19.4545C23.4595 19.2435 23.1734 19.125 22.875 19.125ZM20.25 12.375V19.125H16.125V12.375H20.25ZM5.625 4.875H13.875V19.125H12.75V15C12.75 14.7016 12.6315 14.4155 12.4205 14.2045C12.2095 13.9935 11.9234 13.875 11.625 13.875H7.875C7.57663 13.875 7.29048 13.9935 7.0795 14.2045C6.86853 14.4155 6.75 14.7016 6.75 15V19.125H5.625V4.875ZM10.5 19.125H9V16.125H10.5V19.125ZM6.75 9C6.75 8.70163 6.86853 8.41548 7.0795 8.2045C7.29048 7.99353 7.57663 7.875 7.875 7.875H8.625V7.125C8.625 6.82663 8.74353 6.54048 8.9545 6.3295C9.16548 6.11853 9.45163 6 9.75 6C10.0484 6 10.3345 6.11853 10.5455 6.3295C10.7565 6.54048 10.875 6.82663 10.875 7.125V7.875H11.625C11.9234 7.875 12.2095 7.99353 12.4205 8.2045C12.6315 8.41548 12.75 8.70163 12.75 9C12.75 9.29837 12.6315 9.58452 12.4205 9.7955C12.2095 10.0065 11.9234 10.125 11.625 10.125H10.875V10.875C10.875 11.1734 10.7565 11.4595 10.5455 11.6705C10.3345 11.8815 10.0484 12 9.75 12C9.45163 12 9.16548 11.8815 8.9545 11.6705C8.74353 11.4595 8.625 11.1734 8.625 10.875V10.125H7.875C7.57663 10.125 7.29048 10.0065 7.0795 9.7955C6.86853 9.58452 6.75 9.29837 6.75 9Z" fill="black"/>
</svg>
