<svg width="24" height="24" viewBox="0 0 24 24" fill="none" xmlns="http://www.w3.org/2000/svg">
<path d="M21.75 21.1875H19.3125V2.8125H20.25C20.3992 2.8125 20.5423 2.75324 20.6477 2.64775C20.7532 2.54226 20.8125 2.39918 20.8125 2.25C20.8125 2.10082 20.7532 1.95774 20.6477 1.85225C20.5423 1.74676 20.3992 1.6875 20.25 1.6875H3.75C3.60082 1.6875 3.45774 1.74676 3.35225 1.85225C3.24676 1.95774 3.1875 2.10082 3.1875 2.25C3.1875 2.39918 3.24676 2.54226 3.35225 2.64775C3.45774 2.75324 3.60082 2.8125 3.75 2.8125H4.6875V21.1875H2.25C2.10082 21.1875 1.95774 21.2468 1.85225 21.3523C1.74676 21.4577 1.6875 21.6008 1.6875 21.75C1.6875 21.8992 1.74676 22.0423 1.85225 22.1477C1.95774 22.2532 2.10082 22.3125 2.25 22.3125H21.75C21.8992 22.3125 22.0423 22.2532 22.1477 22.1477C22.2532 22.0423 22.3125 21.8992 22.3125 21.75C22.3125 21.6008 22.2532 21.4577 22.1477 21.3523C22.0423 21.2468 21.8992 21.1875 21.75 21.1875ZM5.8125 2.8125H18.1875V21.1875H14.8125V17.25C14.8125 17.1008 14.7532 16.9577 14.6477 16.8523C14.5423 16.7468 14.3992 16.6875 14.25 16.6875H9.75C9.60082 16.6875 9.45774 16.7468 9.35225 16.8523C9.24676 16.9577 9.1875 17.1008 9.1875 17.25V21.1875H5.8125V2.8125ZM13.6875 21.1875H10.3125V17.8125H13.6875V21.1875ZM8.4375 6C8.4375 5.85082 8.49676 5.70774 8.60225 5.60225C8.70774 5.49676 8.85082 5.4375 9 5.4375H10.5C10.6492 5.4375 10.7923 5.49676 10.8977 5.60225C11.0032 5.70774 11.0625 5.85082 11.0625 6C11.0625 6.14918 11.0032 6.29226 10.8977 6.39775C10.7923 6.50324 10.6492 6.5625 10.5 6.5625H9C8.85082 6.5625 8.70774 6.50324 8.60225 6.39775C8.49676 6.29226 8.4375 6.14918 8.4375 6ZM12.9375 6C12.9375 5.85082 12.9968 5.70774 13.1023 5.60225C13.2077 5.49676 13.3508 5.4375 13.5 5.4375H15C15.1492 5.4375 15.2923 5.49676 15.3977 5.60225C15.5032 5.70774 15.5625 5.85082 15.5625 6C15.5625 6.14918 15.5032 6.29226 15.3977 6.39775C15.2923 6.50324 15.1492 6.5625 15 6.5625H13.5C13.3508 6.5625 13.2077 6.50324 13.1023 6.39775C12.9968 6.29226 12.9375 6.14918 12.9375 6ZM8.4375 9.75C8.4375 9.60082 8.49676 9.45774 8.60225 9.35225C8.70774 9.24676 8.85082 9.1875 9 9.1875H10.5C10.6492 9.1875 10.7923 9.24676 10.8977 9.35225C11.0032 9.45774 11.0625 9.60082 11.0625 9.75C11.0625 9.89918 11.0032 10.0423 10.8977 10.1477C10.7923 10.2532 10.6492 10.3125 10.5 10.3125H9C8.85082 10.3125 8.70774 10.2532 8.60225 10.1477C8.49676 10.0423 8.4375 9.89918 8.4375 9.75ZM12.9375 9.75C12.9375 9.60082 12.9968 9.45774 13.1023 9.35225C13.2077 9.24676 13.3508 9.1875 13.5 9.1875H15C15.1492 9.1875 15.2923 9.24676 15.3977 9.35225C15.5032 9.45774 15.5625 9.60082 15.5625 9.75C15.5625 9.89918 15.5032 10.0423 15.3977 10.1477C15.2923 10.2532 15.1492 10.3125 15 10.3125H13.5C13.3508 10.3125 13.2077 10.2532 13.1023 10.1477C12.9968 10.0423 12.9375 9.89918 12.9375 9.75ZM9 14.0625C8.85082 14.0625 8.70774 14.0032 8.60225 13.8977C8.49676 13.7923 8.4375 13.6492 8.4375 13.5C8.4375 13.3508 8.49676 13.2077 8.60225 13.1023C8.70774 12.9968 8.85082 12.9375 9 12.9375H10.5C10.6492 12.9375 10.7923 12.9968 10.8977 13.1023C11.0032 13.2077 11.0625 13.3508 11.0625 13.5C11.0625 13.6492 11.0032 13.7923 10.8977 13.8977C10.7923 14.0032 10.6492 14.0625 10.5 14.0625H9ZM12.9375 13.5C12.9375 13.3508 12.9968 13.2077 13.1023 13.1023C13.2077 12.9968 13.3508 12.9375 13.5 12.9375H15C15.1492 12.9375 15.2923 12.9968 15.3977 13.1023C15.5032 13.2077 15.5625 13.3508 15.5625 13.5C15.5625 13.6492 15.5032 13.7923 15.3977 13.8977C15.2923 14.0032 15.1492 14.0625 15 14.0625H13.5C13.3508 14.0625 13.2077 14.0032 13.1023 13.8977C12.9968 13.7923 12.9375 13.6492 12.9375 13.5Z" fill="#F3F5F7"/>
</svg>
