<svg width="183" height="183" viewBox="0 0 183 183" fill="none" xmlns="http://www.w3.org/2000/svg">
<path d="M115.475 115.714C127.938 115.714 138.041 105.304 138.041 92.4625C138.041 79.6209 127.938 69.2108 115.475 69.2108H92.909V115.714H115.475Z" fill="#80BA53"/>
<path fill-rule="evenodd" clip-rule="evenodd" d="M10.7449 91.3C10.7449 136.888 47.531 173.844 92.909 173.844V115.714H70.3428C57.8798 115.714 47.7766 105.304 47.7766 92.4625C47.7766 79.6209 57.8798 69.2108 70.3428 69.2108H92.909V8.7561C47.531 8.7561 10.7449 45.7122 10.7449 91.3Z" fill="#247F78"/>
<path d="M116.099 64.4377C116.138 64.4443 116.166 64.4219 116.171 64.3835C116.272 63.6119 117.08 56.1545 111.313 52.3614C108.409 50.4511 105.275 46.2413 105.275 46.2413C105.275 46.2413 101.872 54.0294 104.228 58.4814C106.441 62.6632 115.268 64.2927 116.099 64.4377Z" fill="#247F78"/>
<path d="M120.466 66.0517C120.389 66.0947 120.299 66.0558 120.276 65.9705C119.874 64.5196 117.02 53.6138 120.321 47.7714C123.243 42.6009 132.57 38.5913 132.57 38.5913C132.57 38.5913 135.93 49.0234 132.57 55.4214C129.777 60.7389 121.652 65.3929 120.466 66.0517Z" fill="#247F78"/>
<path d="M90.3419 166.109C89.9035 166.307 89.3236 167.071 89.2246 167.58C89.1822 167.835 89.1539 170.847 89.1822 174.283C89.2246 180.336 89.2388 180.534 89.5216 180.93C90.3702 182.09 92.1804 182.09 93.0289 180.93C93.3118 180.534 93.3259 180.336 93.3683 174.213C93.3966 170.126 93.3683 167.707 93.2693 167.396C93.1845 167.113 92.9299 166.703 92.6895 166.477C92.336 166.137 92.1238 166.067 91.4591 166.024C91.0066 166.01 90.5116 166.038 90.3419 166.109Z" fill="#247F78"/>
<path d="M90.2994 1.05463C90.0307 1.18191 89.6772 1.47889 89.5216 1.69102C89.2388 2.08701 89.2246 2.28501 89.1822 8.30962C89.1539 12.227 89.1963 14.7161 89.2812 15.0555C89.366 15.3525 89.6347 15.7767 89.861 16.003C90.2711 16.3848 90.3984 16.4273 91.2752 16.4273C92.1521 16.4273 92.2794 16.3848 92.6895 16.003C92.9299 15.7767 93.1845 15.3666 93.2693 15.0838C93.3683 14.7726 93.3966 12.3826 93.3683 8.33789C93.3259 2.285 93.3117 2.08701 93.0289 1.69102C92.6612 1.1819 91.9117 0.800049 91.2752 0.800049C91.0065 0.800049 90.5681 0.913204 90.2994 1.05463Z" fill="#247F78"/>
<path d="M46.4868 12.6941C45.4261 13.0052 44.7473 14.2356 45.0867 15.2255C45.2989 15.8478 50.5456 25.2241 51.083 25.9595C51.776 26.8929 53.063 27.0485 53.9539 26.299C54.8166 25.5777 55.0005 24.6867 54.5055 23.7109C54.1943 23.1028 49.0183 13.9386 48.693 13.4153C48.4809 13.0759 47.4909 12.5244 47.1373 12.5527C47.0242 12.5527 46.7414 12.6234 46.4868 12.6941Z" fill="#247F78"/>
<path d="M134.579 12.7786C134.027 13.0473 133.872 13.2878 130.464 19.6235C128.243 23.7672 127.904 24.4743 127.904 25.0117C127.904 26.6381 129.954 27.7412 131.128 26.7512C131.482 26.4542 135.541 19.171 137.224 15.8334C137.676 14.9141 137.62 14.0797 137.068 13.4433C136.304 12.5807 135.456 12.3402 134.579 12.7786Z" fill="#247F78"/>
<path d="M167.318 45.0936C166.951 45.2209 157.504 50.8071 156.514 51.4718C155.92 51.8819 155.623 52.4193 155.623 53.1264C155.623 54.3003 156.358 55.1205 157.489 55.2054L158.239 55.2761L163.613 52.0799C166.611 50.2839 169.185 48.6575 169.454 48.3888C170.345 47.4271 169.977 45.7583 168.718 45.1926C168.068 44.8956 167.884 44.8815 167.318 45.0936Z" fill="#247F78"/>
<path d="M13.6199 45.2921C13.1391 45.6032 12.6865 46.2962 12.5734 46.9326C12.4319 47.668 12.8138 48.3609 13.6199 48.8559C15.8402 50.2136 24.4246 54.8522 24.8347 54.9088C26.5035 55.1916 27.8187 52.8158 26.6874 51.5712C26.3621 51.2318 18.4848 46.7346 15.8968 45.4193C15.0907 45.0092 14.1715 44.9668 13.6199 45.2921Z" fill="#247F78"/>
<path d="M2.08002 89.3448C0.340523 89.8539 0.38295 92.7955 2.15073 93.2905C2.47601 93.3753 5.0499 93.4319 8.75518 93.4319C14.2565 93.4319 14.8788 93.4036 15.3313 93.1773C16.7456 92.4702 16.8587 90.3913 15.5152 89.5145C15.1616 89.2741 14.6384 89.2599 8.82589 89.2317C5.24789 89.2175 2.33458 89.2599 2.08002 89.3448Z" fill="#247F78"/>
<path d="M166.979 89.458C166.272 89.7833 165.89 90.4197 165.89 91.3107C165.89 92.2299 166.272 92.8381 167.022 93.1633C167.601 93.432 167.955 93.4462 174.064 93.4037C180.315 93.3613 180.499 93.3472 180.895 93.0643C182.055 92.2158 182.055 90.4056 180.895 89.557C180.499 89.2742 180.315 89.26 174.036 89.2318C167.927 89.1893 167.545 89.2035 166.979 89.458Z" fill="#247F78"/>
<path d="M18.9234 130.555C15.9394 132.337 13.3655 133.964 13.1109 134.232C12.1634 135.237 12.616 136.976 13.9736 137.485C14.4827 137.683 14.6949 137.697 15.0909 137.57C15.5293 137.429 24.8207 131.97 26.037 131.149C27.7058 130.018 26.8855 127.373 24.8632 127.373C24.3682 127.373 23.5762 127.798 18.9234 130.555Z" fill="#247F78"/>
<path d="M156.881 127.967C155.835 128.561 155.453 129.99 156.089 130.909C156.33 131.277 157.631 132.083 161.69 134.402C164.603 136.057 167.219 137.485 167.516 137.57C167.969 137.711 168.124 137.697 168.69 137.429C170.316 136.637 170.415 134.671 168.888 133.723C167.672 132.96 159.215 128.165 158.663 127.925C157.928 127.586 157.504 127.6 156.881 127.967Z" fill="#247F78"/>
<path d="M128.724 155.658C127.748 156.181 127.296 157.214 127.678 158.119C127.904 158.67 133.038 167.891 133.731 168.98C134.494 170.196 135.894 170.366 136.927 169.362C137.464 168.839 137.69 168.132 137.506 167.495C137.436 167.255 135.993 164.554 134.296 161.527C130.973 155.616 130.789 155.375 129.757 155.375C129.474 155.389 129.007 155.517 128.724 155.658Z" fill="#247F78"/>
<path d="M52.1717 156.082C51.8747 156.266 50.7009 158.048 48.3674 161.838C45.2986 166.802 44.9733 167.382 44.9733 167.962C44.945 169.121 45.8784 169.942 47.2078 169.942C47.7452 169.942 47.9432 169.857 48.3533 169.475C48.8907 168.98 55.0143 159.151 55.2971 158.331C55.877 156.676 53.6849 155.106 52.1717 156.082Z" fill="#247F78"/>
<path d="M91.2754 16.8274C91.7008 16.8274 92.0138 16.82 92.2734 16.7415C92.5603 16.6546 92.7519 16.4917 92.9619 16.2961L92.9639 16.2942C93.2508 16.0241 93.5426 15.5583 93.6504 15.2053C93.6771 15.1214 93.6912 15.0102 93.7012 14.9094C93.7123 14.7971 93.7223 14.655 93.7305 14.4866C93.7469 14.1487 93.7586 13.6891 93.7666 13.1165C93.7826 11.9703 93.7827 10.3583 93.7686 8.33521C93.7474 5.31436 93.7333 3.73932 93.6885 2.87231C93.6662 2.44177 93.6356 2.15801 93.584 1.94946C93.5263 1.71621 93.4437 1.5831 93.3545 1.45825L93.3535 1.45728C93.125 1.14091 92.7913 0.879987 92.4346 0.698486C92.0775 0.516901 91.6687 0.399687 91.2754 0.399658C90.9353 0.399658 90.4334 0.532026 90.1133 0.700439V0.701416C89.9434 0.78416 89.765 0.907274 89.6133 1.03247C89.4577 1.16083 89.3037 1.31197 89.1992 1.45435L89.1963 1.45825C89.1072 1.58295 89.0245 1.71584 88.9668 1.94849C88.9152 2.15662 88.8846 2.43965 88.8623 2.86841C88.8175 3.73192 88.8034 5.30019 88.7822 8.30688C88.7681 10.2671 88.7713 11.8721 88.7891 13.0305C88.7979 13.6093 88.8105 14.079 88.8262 14.427C88.834 14.6006 88.8427 14.747 88.8525 14.8625C88.8617 14.9696 88.8743 15.0754 88.8936 15.1526L88.8965 15.1653L88.9482 15.3167C89.008 15.4692 89.0908 15.6253 89.1777 15.7659C89.295 15.9554 89.4374 16.1446 89.5781 16.2854L89.583 16.2913L89.5889 16.2961C89.7989 16.4916 89.9905 16.6546 90.2773 16.7415C90.5369 16.82 90.85 16.8274 91.2754 16.8274ZM50.7617 26.1975C51.5909 27.3144 53.1424 27.5041 54.2109 26.6057L54.3838 26.4514C54.7708 26.0821 55.0296 25.6573 55.1299 25.1829C55.2446 24.6401 55.1415 24.0799 54.8623 23.5295L54.8613 23.5286C54.5441 22.9088 49.3635 13.7372 49.0322 13.2043V13.2034C48.9406 13.0568 48.7926 12.9235 48.6543 12.8167C48.5076 12.7033 48.3353 12.5926 48.1621 12.4963C47.9892 12.4003 47.8065 12.314 47.6367 12.2522C47.4912 12.1993 47.3081 12.1487 47.1377 12.1545V12.1526C47.1333 12.1526 47.1285 12.1544 47.124 12.1545C47.1179 12.1549 47.1116 12.1531 47.1055 12.1536V12.1565C47.0024 12.1612 46.8769 12.1844 46.7764 12.2073C46.6509 12.2358 46.5098 12.2728 46.3799 12.3088L46.374 12.3098C45.7298 12.4988 45.2161 12.9619 44.9121 13.512C44.6085 14.0613 44.4949 14.7341 44.708 15.3557C44.7471 15.4698 44.871 15.7168 45.0283 16.0198C45.1947 16.3401 45.4202 16.7626 45.6855 17.2522C46.2167 18.2322 46.9101 19.4876 47.6133 20.7454C48.3165 22.0032 49.0307 23.265 49.6025 24.259C50.1661 25.2387 50.6088 25.9889 50.7598 26.1956L50.7617 26.1975ZM128.886 27.2151C129.645 27.6242 130.638 27.6867 131.385 27.0579C131.454 26.9998 131.52 26.9077 131.563 26.8459C131.618 26.7678 131.685 26.6664 131.761 26.5471C131.912 26.3076 132.109 25.9816 132.338 25.592C132.797 24.8117 133.391 23.7661 134.026 22.6272C134.979 20.9195 136.027 18.9961 136.848 17.4338L137.581 16.0139L137.582 16.01C138.087 14.9841 138.052 13.9677 137.37 13.1809L137.367 13.178C136.951 12.7078 136.485 12.376 135.971 12.2366C135.449 12.0952 134.919 12.1633 134.403 12.4202V12.4192C134.236 12.5006 134.076 12.5933 133.887 12.801C133.713 12.9913 133.519 13.2732 133.25 13.719C132.71 14.6153 131.813 16.2711 130.111 19.4338V19.4348C129.003 21.5036 128.358 22.7258 127.99 23.4983C127.627 24.261 127.504 24.6447 127.504 25.012C127.504 26.001 128.125 26.8049 128.886 27.2151ZM158.443 55.6194L163.817 52.4241L163.818 52.4231C165.319 51.5238 166.715 50.666 167.771 49.9993C168.298 49.6661 168.742 49.3796 169.072 49.1584C169.237 49.0481 169.376 48.9528 169.483 48.8752C169.533 48.8394 169.581 48.8033 169.625 48.7688L169.736 48.6711L169.742 48.6663L169.747 48.6604C170.838 47.4832 170.372 45.4968 168.883 44.8274C168.561 44.6804 168.292 44.5728 168.015 44.553C167.725 44.5324 167.469 44.6098 167.178 44.719V44.7209C167.118 44.7435 167.031 44.7874 166.958 44.8264C166.865 44.8764 166.741 44.945 166.593 45.0286C166.295 45.196 165.891 45.4282 165.414 45.7043C164.46 46.2571 163.212 46.9886 161.946 47.7366C159.422 49.2279 156.799 50.7991 156.291 51.1399L156.286 51.1428C155.591 51.6229 155.223 52.2799 155.223 53.1262C155.223 53.7977 155.434 54.3955 155.834 54.8411C156.233 55.286 156.797 55.553 157.452 55.6038L158.201 55.6741L158.331 55.6868L158.443 55.6194ZM24.7754 55.3049C25.827 55.4793 26.7136 54.8142 27.1611 54.0071C27.6095 53.1985 27.702 52.0925 26.9834 51.302L26.9766 51.2942C26.9218 51.2371 26.8344 51.1763 26.7666 51.1301C26.6845 51.0742 26.5767 51.0051 26.4492 50.925C26.1936 50.7645 25.8459 50.5534 25.4326 50.3079C24.6052 49.8163 23.5067 49.1801 22.3389 48.5139C20.2975 47.3494 18.0335 46.088 16.626 45.3469L16.0781 45.0627C15.1994 44.6157 14.1269 44.529 13.417 44.9475L13.4092 44.9514L13.4023 44.9563C13.1023 45.1505 12.8313 45.448 12.6221 45.7737C12.4118 46.101 12.2472 46.4829 12.1797 46.8625V46.8635C12.0007 47.8101 12.5141 48.6461 13.4102 49.1965L13.4111 49.1975C14.5319 49.8828 17.2424 51.3863 19.7158 52.7219C20.9544 53.3908 22.138 54.0201 23.0381 54.4856C23.4875 54.718 23.8685 54.911 24.1514 55.0481C24.2924 55.1165 24.4126 55.1725 24.5059 55.2131C24.5522 55.2333 24.5956 55.2517 24.6338 55.2659C24.6614 55.2761 24.7167 55.2962 24.7754 55.3049ZM174.067 93.804C177.187 93.7828 178.807 93.7686 179.695 93.7239C180.136 93.7017 180.424 93.6708 180.635 93.6194C180.812 93.5761 180.93 93.5188 181.031 93.4553L181.128 93.3899L181.132 93.387H181.131C182.509 92.3786 182.509 90.243 181.131 89.2346L181.128 89.2317C181.003 89.1427 180.87 89.0597 180.634 89.0022C180.423 88.951 180.134 88.921 179.691 88.8997C178.8 88.8567 177.172 88.8464 174.038 88.8323C170.988 88.8111 169.356 88.8039 168.416 88.8342C167.469 88.8648 167.17 88.9337 166.815 89.093L166.812 89.095C165.943 89.4949 165.49 90.2873 165.49 91.3108C165.49 91.8254 165.597 92.2842 165.834 92.6692C166.071 93.0542 166.419 93.3365 166.854 93.5266L166.987 93.5852C167.299 93.7118 167.629 93.7716 168.456 93.8C169.391 93.8322 171.018 93.8251 174.067 93.804ZM8.75488 93.8323C11.5021 93.8323 13.0426 93.825 13.9521 93.7893C14.8512 93.754 15.1989 93.6907 15.5098 93.5354C17.2034 92.6886 17.3298 90.2295 15.7393 89.1848L15.7402 89.1838C15.455 88.9899 15.1191 88.9302 14.2344 88.8938C13.3236 88.8563 11.7299 88.8454 8.82812 88.8313C7.03752 88.8242 5.41115 88.8313 4.2002 88.8508C3.59511 88.8606 3.09077 88.874 2.7207 88.8899C2.53625 88.8978 2.38136 88.9064 2.2627 88.9163C2.17016 88.924 2.05325 88.9365 1.96777 88.9622V88.9612C1.96542 88.9619 1.96329 88.9634 1.96094 88.9641C1.95856 88.9649 1.95545 88.9643 1.95312 88.9651V88.967C0.864285 89.2942 0.384524 90.3601 0.400391 91.3293C0.416406 92.3043 0.934987 93.3658 2.04297 93.676L2.0498 93.678C2.1271 93.6981 2.23475 93.7096 2.34082 93.719C2.45679 93.7293 2.60449 93.7396 2.7793 93.7483C3.12963 93.7658 3.60175 93.7808 4.17676 93.7932C5.32789 93.818 6.90076 93.8323 8.75488 93.8323ZM14.5449 138.048C14.7826 138.066 14.9898 138.022 15.2129 137.95H15.2139C15.28 137.929 15.375 137.882 15.457 137.839C15.5537 137.789 15.6798 137.721 15.8301 137.638C16.1312 137.472 16.5372 137.243 17.0137 136.97C17.9671 136.424 19.2091 135.702 20.4746 134.959C22.9981 133.478 25.6394 131.9 26.2607 131.481H26.2617C28.2615 130.125 27.2738 126.974 24.8633 126.974C24.5 126.974 24.0915 127.134 23.2637 127.577C22.4129 128.033 21.0434 128.834 18.7197 130.211L18.7188 130.212C17.2247 131.104 15.8321 131.958 14.7803 132.623C14.2547 132.956 13.8117 133.242 13.4834 133.463C13.3196 133.573 13.1817 133.669 13.0752 133.747C12.9782 133.818 12.8807 133.894 12.8203 133.957V133.958C11.6934 135.152 12.2006 137.132 13.6865 137.799L13.833 137.86C14.0941 137.961 14.3186 138.031 14.5449 138.048ZM168.107 138.05C168.346 138.022 168.58 137.924 168.861 137.79L168.865 137.788C169.798 137.334 170.326 136.521 170.371 135.656C170.416 134.79 169.977 133.928 169.099 133.383L169.098 133.384C168.476 132.994 166.051 131.599 163.724 130.28C162.556 129.617 161.408 128.972 160.518 128.476C159.642 127.988 158.984 127.628 158.823 127.558L158.822 127.559C158.434 127.38 158.081 127.272 157.72 127.281C157.352 127.291 157.025 127.42 156.684 127.62C155.498 128.294 155.005 129.896 155.69 131.029L155.761 131.137C155.864 131.29 156.039 131.443 156.256 131.605C156.488 131.778 156.812 131.992 157.246 132.263C158.116 132.805 159.462 133.59 161.491 134.749L161.492 134.75C162.95 135.578 164.335 136.35 165.393 136.926C165.921 137.214 166.371 137.454 166.707 137.627C166.875 137.714 167.017 137.785 167.128 137.838C167.225 137.884 167.327 137.931 167.401 137.953C167.637 138.027 167.855 138.08 168.107 138.05ZM135.18 170.401C135.89 170.486 136.614 170.223 137.205 169.649H137.206C137.828 169.043 138.123 168.188 137.891 167.384V167.382C137.871 167.314 137.823 167.213 137.778 167.12C137.727 167.013 137.656 166.873 137.569 166.704C137.396 166.367 137.155 165.909 136.863 165.366C136.28 164.28 135.495 162.846 134.646 161.331H134.645C132.99 158.389 132.099 156.821 131.489 155.996C131.183 155.582 130.916 155.31 130.623 155.153C130.317 154.989 130.027 154.975 129.757 154.975H129.746L129.736 154.976C129.393 154.993 128.872 155.136 128.545 155.3L128.535 155.306C127.421 155.904 126.829 157.137 127.309 158.275C127.348 158.369 127.465 158.594 127.621 158.887C127.785 159.196 128.008 159.607 128.271 160.087C128.795 161.047 129.48 162.287 130.18 163.542C131.574 166.045 133.038 168.637 133.393 169.195C133.83 169.89 134.471 170.315 135.18 170.401ZM47.208 170.342C47.4931 170.342 47.7398 170.321 47.9805 170.222C48.218 170.124 48.4134 169.966 48.626 169.768H48.625C48.6897 169.708 48.766 169.612 48.8369 169.517C48.9156 169.412 49.0122 169.276 49.123 169.115C49.3454 168.793 49.6322 168.362 49.96 167.859C50.6159 166.852 51.4422 165.549 52.2598 164.237C53.0774 162.924 53.8877 161.601 54.5117 160.553C54.8235 160.03 55.0901 159.573 55.2881 159.221C55.4757 158.887 55.6233 158.608 55.6738 158.463H55.6748C56.0398 157.421 55.5165 156.444 54.7529 155.896C53.9904 155.348 52.8867 155.15 51.9609 155.743V155.742C51.8698 155.799 51.7859 155.886 51.7188 155.962C51.6435 156.047 51.5573 156.157 51.46 156.287C51.2649 156.549 51.0118 156.915 50.6992 157.388C50.0733 158.336 49.1933 159.733 48.0264 161.628V161.629C46.4949 164.106 45.6405 165.502 45.1699 166.35C44.7035 167.191 44.5732 167.56 44.5732 167.962C44.5591 168.655 44.8338 169.26 45.3164 169.687C45.7971 170.112 46.4625 170.342 47.208 170.342ZM89.1992 181.166C90.1761 182.501 92.211 182.543 93.2539 181.291L93.3516 181.166L93.3545 181.162C93.4438 181.037 93.5264 180.904 93.584 180.67C93.6355 180.461 93.6662 180.174 93.6885 179.74C93.7332 178.864 93.7474 177.271 93.7686 174.215C93.7827 172.171 93.7826 170.542 93.7666 169.383C93.7586 168.804 93.7469 168.339 93.7305 167.998C93.7223 167.828 93.7123 167.685 93.7012 167.572C93.6915 167.473 93.6767 167.366 93.6514 167.282L93.6523 167.281C93.5466 166.929 93.2536 166.462 92.9658 166.19L92.9668 166.189C92.7698 166 92.5809 165.855 92.3271 165.763C92.0883 165.676 91.8182 165.647 91.4844 165.625L91.4717 165.624C91.234 165.617 90.9835 165.621 90.7666 165.636C90.5707 165.65 90.3419 165.676 90.1885 165.74L90.1768 165.744C89.8678 165.884 89.5648 166.187 89.3379 166.486C89.1086 166.787 88.8983 167.163 88.832 167.503L88.8301 167.514C88.8199 167.575 88.814 167.678 88.8096 167.783C88.8046 167.901 88.8 168.056 88.7959 168.242C88.7877 168.617 88.7818 169.127 88.7773 169.736C88.7685 170.952 88.7681 172.566 88.7822 174.286L88.8135 177.825C88.8252 178.705 88.8399 179.316 88.8623 179.749C88.8846 180.18 88.9152 180.464 88.9668 180.672C89.0245 180.905 89.1072 181.038 89.1963 181.162L89.1992 181.166Z" fill="#FDFDFD" stroke="#FDFDFD" stroke-width="0.8"/>
</svg>
