<svg width="72" height="72" viewBox="0 0 72 72" fill="none" xmlns="http://www.w3.org/2000/svg">
<rect x="0.5" y="0.5" width="71" height="71" rx="35.5" stroke="#B9FEF6"/>
<path d="M43.8488 32.3887V30.9057C43.8488 29.7797 43.3894 28.6999 42.5717 27.9038C41.7539 27.1076 40.6448 26.6604 39.4884 26.6604H36.8721V22.6981H41.814C42.1994 22.6981 42.5691 22.8472 42.8417 23.1126C43.1143 23.378 43.2674 23.7379 43.2674 24.1132C43.2674 24.3384 43.3593 24.5544 43.5229 24.7136C43.6864 24.8728 43.9082 24.9623 44.1395 24.9623C44.3708 24.9623 44.5926 24.8728 44.7562 24.7136C44.9197 24.5544 45.0116 24.3384 45.0116 24.1132C45.0116 23.2875 44.6747 22.4957 44.0751 21.9118C43.4754 21.328 42.662 21 41.814 21H32.5116C32.2803 21 32.0585 21.0895 31.895 21.2487C31.7314 21.4079 31.6395 21.6239 31.6395 21.8491C31.6395 22.0742 31.7314 22.2902 31.895 22.4494C32.0585 22.6087 32.2803 22.6981 32.5116 22.6981H35.1279V26.6604H32.5116C31.3552 26.6604 30.2461 27.1076 29.4283 27.9038C28.6106 28.6999 28.1512 29.7797 28.1512 30.9057V32.3887C26.8547 32.592 25.6747 33.2378 24.8226 34.2106C23.9704 35.1833 23.5016 36.4196 23.5 37.6981V49.0189C23.5 49.5443 23.7144 50.0482 24.096 50.4197C24.4776 50.7913 24.9952 51 25.5349 51H46.4651C47.0048 51 47.5224 50.7913 47.904 50.4197C48.2856 50.0482 48.5 49.5443 48.5 49.0189V37.6981C48.4984 36.4196 48.0296 35.1833 47.1774 34.2106C46.3252 33.2378 45.1453 32.592 43.8488 32.3887ZM32.5116 28.3585H39.4884C40.1823 28.3585 40.8477 28.6269 41.3384 29.1045C41.829 29.5822 42.1047 30.2301 42.1047 30.9057V32.3208H29.8953V30.9057C29.8953 30.2301 30.171 29.5822 30.6616 29.1045C31.1523 28.6269 31.8177 28.3585 32.5116 28.3585ZM46.7558 49.0189C46.7558 49.0939 46.7252 49.1659 46.6707 49.219C46.6162 49.2721 46.5422 49.3019 46.4651 49.3019H25.5349C25.4578 49.3019 25.3838 49.2721 25.3293 49.219C25.2748 49.1659 25.2442 49.0939 25.2442 49.0189V37.6981C25.2442 36.7223 25.6423 35.7865 26.351 35.0965C27.0598 34.4065 28.021 34.0189 29.0233 34.0189H42.9767C43.979 34.0189 44.9402 34.4065 45.649 35.0965C46.3577 35.7865 46.7558 36.7223 46.7558 37.6981V49.0189Z" fill="#2D9890"/>
</svg>
