<svg width="16" height="16" viewBox="0 0 16 16" fill="none" xmlns="http://www.w3.org/2000/svg">
<path d="M14.1188 4.67395L11.3256 1.88082C11.2444 1.79956 11.1479 1.7351 11.0417 1.69113C10.9356 1.64715 10.8218 1.62451 10.7069 1.62451C10.592 1.62451 10.4782 1.64715 10.372 1.69113C10.2658 1.7351 10.1694 1.79956 10.0881 1.88082L2.38125 9.58833C2.29984 9.66946 2.23528 9.7659 2.1913 9.8721C2.14732 9.97829 2.12479 10.0921 2.125 10.2071V13.0002C2.125 13.2323 2.21719 13.4548 2.38128 13.6189C2.54538 13.783 2.76794 13.8752 3 13.8752H5.79313C5.90807 13.8754 6.02191 13.8529 6.12811 13.8089C6.2343 13.7649 6.33074 13.7004 6.41188 13.6189L14.1188 5.91145C14.2 5.8302 14.2645 5.73373 14.3085 5.62757C14.3524 5.5214 14.3751 5.40761 14.3751 5.2927C14.3751 5.17779 14.3524 5.064 14.3085 4.95783C14.2645 4.85167 14.2 4.7552 14.1188 4.67395ZM5.88125 13.0883C5.85792 13.1118 5.82623 13.1251 5.79313 13.1252H3C2.96685 13.1252 2.93506 13.112 2.91161 13.0886C2.88817 13.0651 2.875 13.0334 2.875 13.0002V10.2071C2.87514 10.174 2.8884 10.1423 2.91188 10.1189L8.5 4.5302L11.4694 7.5002L5.88125 13.0883ZM13.5881 5.38145L12 6.96957L9.03063 4.0002L10.6188 2.41145C10.6304 2.39983 10.6441 2.39061 10.6593 2.38432C10.6745 2.37803 10.6908 2.37479 10.7072 2.37479C10.7236 2.37479 10.7399 2.37803 10.7551 2.38432C10.7702 2.39061 10.784 2.39983 10.7956 2.41145L13.5881 5.20457C13.5997 5.21618 13.609 5.22997 13.6153 5.24514C13.6215 5.26032 13.6248 5.27659 13.6248 5.29301C13.6248 5.30944 13.6215 5.32571 13.6153 5.34088C13.609 5.35605 13.5997 5.36984 13.5881 5.38145Z" fill="#2096D0"/>
</svg>
