<svg width="16" height="16" viewBox="0 0 16 16" fill="none" xmlns="http://www.w3.org/2000/svg">
<path d="M13.5 3.125H10.875V2.5C10.875 2.13533 10.7301 1.78559 10.4723 1.52773C10.2144 1.26987 9.86467 1.125 9.5 1.125H6.5C6.13533 1.125 5.78559 1.26987 5.52773 1.52773C5.26987 1.78559 5.125 2.13533 5.125 2.5V3.125H2.5C2.40054 3.125 2.30516 3.16451 2.23483 3.23483C2.16451 3.30516 2.125 3.40054 2.125 3.5C2.125 3.59946 2.16451 3.69484 2.23483 3.76517C2.30516 3.83549 2.40054 3.875 2.5 3.875H3.125V13C3.125 13.2321 3.21719 13.4546 3.38128 13.6187C3.54538 13.7828 3.76794 13.875 4 13.875H12C12.2321 13.875 12.4546 13.7828 12.6187 13.6187C12.7828 13.4546 12.875 13.2321 12.875 13V3.875H13.5C13.5995 3.875 13.6948 3.83549 13.7652 3.76517C13.8355 3.69484 13.875 3.59946 13.875 3.5C13.875 3.40054 13.8355 3.30516 13.7652 3.23483C13.6948 3.16451 13.5995 3.125 13.5 3.125ZM5.875 2.5C5.875 2.33424 5.94085 2.17527 6.05806 2.05806C6.17527 1.94085 6.33424 1.875 6.5 1.875H9.5C9.66576 1.875 9.82473 1.94085 9.94194 2.05806C10.0592 2.17527 10.125 2.33424 10.125 2.5V3.125H5.875V2.5ZM12.125 13C12.125 13.0332 12.1118 13.0649 12.0884 13.0884C12.0649 13.1118 12.0332 13.125 12 13.125H4C3.96685 13.125 3.93505 13.1118 3.91161 13.0884C3.88817 13.0649 3.875 13.0332 3.875 13V3.875H12.125V13ZM6.875 6.5V10.5C6.875 10.5995 6.83549 10.6948 6.76516 10.7652C6.69484 10.8355 6.59946 10.875 6.5 10.875C6.40054 10.875 6.30516 10.8355 6.23484 10.7652C6.16451 10.6948 6.125 10.5995 6.125 10.5V6.5C6.125 6.40054 6.16451 6.30516 6.23484 6.23484C6.30516 6.16451 6.40054 6.125 6.5 6.125C6.59946 6.125 6.69484 6.16451 6.76516 6.23484C6.83549 6.30516 6.875 6.40054 6.875 6.5ZM9.875 6.5V10.5C9.875 10.5995 9.83549 10.6948 9.76517 10.7652C9.69484 10.8355 9.59946 10.875 9.5 10.875C9.40054 10.875 9.30516 10.8355 9.23483 10.7652C9.16451 10.6948 9.125 10.5995 9.125 10.5V6.5C9.125 6.40054 9.16451 6.30516 9.23483 6.23484C9.30516 6.16451 9.40054 6.125 9.5 6.125C9.59946 6.125 9.69484 6.16451 9.76517 6.23484C9.83549 6.30516 9.875 6.40054 9.875 6.5Z" fill="#D04E34"/>
</svg>
