<svg width="927" height="179" viewBox="0 0 927 179" fill="none" xmlns="http://www.w3.org/2000/svg">
<g clip-path="url(#clip0_280_183)">
<path d="M112.797 113.231C125.055 113.231 134.993 102.974 134.993 90.3201C134.993 77.6667 125.055 67.4087 112.797 67.4087H90.6001V113.231H112.797Z" fill="#80BA53"/>
<path fill-rule="evenodd" clip-rule="evenodd" d="M9.78223 89.1743C9.78223 134.094 45.9656 170.509 90.6001 170.509V113.231H68.4037C56.1449 113.231 46.2072 102.974 46.2072 90.3203C46.2072 77.6669 56.1449 67.4089 68.4037 67.4089H90.6001V7.83984C45.9656 7.83984 9.78223 44.2546 9.78223 89.1743Z" fill="#247F78"/>
<path d="M113.411 62.7056C113.448 62.7122 113.476 62.6901 113.481 62.6522C113.58 61.8919 114.375 54.5438 108.703 50.8062C105.846 48.9239 102.763 44.7759 102.763 44.7759C102.763 44.7759 99.4164 52.4498 101.734 56.8366C103.91 60.9572 112.592 62.5628 113.411 62.7056Z" fill="#247F78"/>
<path d="M117.705 64.2959C117.629 64.3383 117.542 64.2999 117.518 64.2159C117.123 62.7862 114.316 52.0402 117.563 46.2834C120.437 41.1887 129.611 37.2378 129.611 37.2378C129.611 37.2378 132.917 47.5171 129.611 53.8214C126.863 59.061 118.872 63.6468 117.705 64.2959Z" fill="#247F78"/>
<path d="M89.1899 162.304H89.1978L89.2056 162.305C89.5343 162.326 89.8142 162.356 90.0649 162.447C90.3328 162.544 90.53 162.696 90.728 162.886L90.8384 163C91.0958 163.284 91.3377 163.69 91.4341 164.012H91.4321C91.4607 164.106 91.4764 164.222 91.4858 164.319C91.497 164.433 91.5061 164.576 91.5142 164.744C91.5304 165.082 91.5424 165.541 91.5503 166.112C91.566 167.255 91.5663 168.861 91.5522 170.876C91.5314 173.886 91.5173 175.458 91.4731 176.324C91.4512 176.753 91.4209 177.044 91.3677 177.26C91.3068 177.509 91.2175 177.652 91.1245 177.782L91.1216 177.787C90.0874 179.203 87.8991 179.203 86.8647 177.787L86.8608 177.782C86.7683 177.652 86.6795 177.509 86.6187 177.262C86.5654 177.046 86.5351 176.758 86.5132 176.333C86.4911 175.904 86.4769 175.301 86.4653 174.433L86.4351 170.946C86.421 169.251 86.4205 167.659 86.4292 166.46C86.4336 165.86 86.4406 165.357 86.4487 164.987C86.4528 164.803 86.4565 164.649 86.4614 164.533C86.4657 164.431 86.4715 164.323 86.4829 164.255L86.4858 164.242L86.5181 164.106C86.6092 163.789 86.8011 163.461 87.0024 163.195C87.2296 162.896 87.5413 162.581 87.8696 162.432L87.8823 162.427L88.021 162.382C88.1694 162.344 88.3412 162.325 88.4849 162.315C88.7024 162.3 88.9529 162.297 89.1899 162.304Z" fill="#FDFDFD" stroke="#FDFDFD"/>
<path d="M88.9932 -0.5C89.4001 -0.499993 89.8186 -0.379297 90.1816 -0.194336C90.4992 -0.0325003 90.8013 0.192053 91.0303 0.46582L91.123 0.585938L91.125 0.586914C91.2178 0.716821 91.3062 0.860541 91.3672 1.10742C91.4205 1.32343 91.4507 1.61211 91.4727 2.03711C91.5168 2.89449 91.5309 4.44928 91.5518 7.42383C91.5658 9.41761 91.5655 11.0071 91.5498 12.1377C91.5419 12.7023 91.5299 13.1566 91.5137 13.4912C91.5056 13.658 91.4965 13.7999 91.4854 13.9131C91.4756 14.0118 91.4616 14.1312 91.4316 14.2256L91.4307 14.2246C91.3189 14.591 91.022 15.0657 90.7275 15.3438L90.7246 15.3457C90.5165 15.5395 90.3132 15.7153 90.0059 15.8086C89.7326 15.8915 89.4083 15.8984 88.9932 15.8984C88.5781 15.8984 88.2538 15.8914 87.9805 15.8086C87.6729 15.7153 87.4687 15.5398 87.2607 15.3457L87.2539 15.3398L87.248 15.333C87.1023 15.187 86.9572 14.9933 86.8389 14.8018C86.7221 14.6126 86.61 14.391 86.5508 14.1836L86.5469 14.168C86.5256 14.0828 86.5129 13.9705 86.5039 13.8652C86.4941 13.7495 86.4853 13.6041 86.4775 13.4326C86.462 13.0882 86.4501 12.6236 86.4414 12.0527C86.424 10.9101 86.4205 9.3275 86.4346 7.39551C86.4554 4.43476 86.4696 2.887 86.5137 2.0332C86.5356 1.60971 86.5658 1.32201 86.6191 1.10645C86.68 0.860515 86.768 0.717562 86.8604 0.587891L86.8643 0.582031H86.8652C86.9751 0.432332 87.1342 0.277059 87.291 0.147461C87.443 0.0218992 87.6238 -0.104024 87.7998 -0.19043V-0.191406L87.8193 -0.201172V-0.200195C88.1483 -0.368764 88.6461 -0.5 88.9932 -0.5Z" fill="#FDFDFD" stroke="#FDFDFD"/>
<path d="M45.5781 11.0835C45.7668 11.0777 45.9612 11.1325 46.1055 11.1851C46.2791 11.2483 46.4647 11.3363 46.6387 11.4331C46.8128 11.53 46.9865 11.6419 47.1357 11.7573C47.2744 11.8646 47.432 12.005 47.5322 12.1655L47.5332 12.1665C47.8197 12.6282 51.7587 19.6087 52.9482 21.7563L53.2705 22.3481L53.2715 22.3491C53.5545 22.9079 53.6627 23.4843 53.5439 24.0474C53.4253 24.6097 53.0934 25.0998 52.6045 25.5093C51.5059 26.434 49.9093 26.2375 49.0576 25.0884L49.0557 25.0854C48.9029 24.876 48.4627 24.1306 47.9102 23.1685C47.3475 22.1886 46.6459 20.9442 45.9541 19.7046C45.2623 18.465 44.5795 17.2275 44.0566 16.2612C43.7955 15.7786 43.5732 15.3619 43.4092 15.0454C43.2562 14.7504 43.1295 14.4982 43.0879 14.3765L43.0508 14.2544C42.8829 13.6442 43.0053 13.002 43.2959 12.4751C43.6066 11.912 44.1336 11.4359 44.7979 11.2407L44.8047 11.2378V11.2388C44.9332 11.203 45.0735 11.1649 45.1992 11.1362C45.2954 11.1143 45.4258 11.0892 45.5381 11.0835V11.0825L45.5391 11.0835C45.5524 11.0828 45.5654 11.0806 45.5781 11.0806V11.0835Z" fill="#FDFDFD" stroke="#FDFDFD"/>
<path d="M131.367 11.3538C131.894 11.0908 132.444 11.0204 132.984 11.1672C133.449 11.2937 133.872 11.5709 134.25 11.9553L134.41 12.1272L134.413 12.1311C135.119 12.946 135.148 13.9948 134.638 15.0334L134.635 15.0383C133.802 16.692 132.386 19.315 131.137 21.5588C130.512 22.6814 129.926 23.7128 129.475 24.4827C129.249 24.8669 129.055 25.1896 128.905 25.427C128.831 25.5452 128.763 25.6468 128.708 25.7258C128.667 25.7842 128.595 25.8849 128.515 25.9524C127.737 26.6092 126.71 26.5382 125.937 26.1204C125.161 25.7014 124.521 24.8774 124.521 23.8567C124.522 23.4691 124.653 23.0722 125.01 22.3206C125.372 21.5565 126.008 20.3494 127.098 18.3118L127.099 18.3108C128.771 15.196 129.655 13.562 130.188 12.676C130.453 12.2356 130.649 11.9498 130.827 11.7542C131.025 11.5365 131.195 11.4378 131.367 11.3538Z" fill="#FDFDFD" stroke="#FDFDFD"/>
<path d="M164.483 43.0071C164.778 43.0282 165.058 43.1423 165.375 43.2874L165.375 43.2883C166.899 43.9766 167.382 46.0148 166.257 47.2307L166.25 47.2385L166.245 47.2454C166.179 47.3108 166.079 47.3862 165.982 47.4563C165.875 47.5338 165.737 47.6285 165.575 47.7375C165.249 47.9562 164.811 48.2401 164.292 48.5686C163.254 49.2261 161.88 50.0709 160.403 50.9573L160.402 50.9583L155.115 54.1077L154.975 54.1917L154.812 54.176L154.076 54.1067V54.1047C153.407 54.0524 152.827 53.7807 152.415 53.3206C152.001 52.8595 151.786 52.2438 151.786 51.5598C151.786 50.6891 152.167 50.0096 152.878 49.5178L152.883 49.5149C153.386 49.177 155.97 47.6269 158.451 46.1584C159.696 45.4213 160.924 44.7004 161.863 44.1555C162.332 43.8832 162.731 43.6539 163.024 43.4885C163.17 43.406 163.293 43.3381 163.385 43.2883C163.453 43.2517 163.545 43.2037 163.614 43.178V43.177C163.616 43.1761 163.619 43.1759 163.622 43.175C163.623 43.1745 163.625 43.1727 163.626 43.1721V43.1731C163.911 43.0669 164.178 42.9853 164.483 43.0071Z" fill="#FDFDFD" stroke="#FDFDFD"/>
<path d="M12.356 43.4099C13.0966 42.9724 14.1927 43.0697 15.0767 43.5203L16.2583 44.1433C17.6343 44.8849 19.5176 45.939 21.2388 46.9226C22.3878 47.5792 23.4691 48.2074 24.2837 48.6921C24.6906 48.9343 25.034 49.1416 25.2866 49.3005C25.4124 49.3797 25.5188 49.4494 25.6011 49.5056C25.6333 49.5276 25.6735 49.5554 25.7134 49.5857L25.8247 49.6824L25.8335 49.6912C26.5806 50.5144 26.4776 51.6567 26.0229 52.4783C25.57 53.2966 24.6631 53.9877 23.5728 53.8103V53.8113L23.5718 53.8103C23.5671 53.8095 23.5618 53.8101 23.5571 53.8093V53.8074C23.4915 53.7964 23.4327 53.777 23.4067 53.7673C23.3665 53.7524 23.3214 53.7329 23.2749 53.7126C23.1812 53.6718 23.0616 53.6162 22.9224 53.5486C22.6429 53.4129 22.2671 53.2222 21.8247 52.9929C20.9386 52.5338 19.7737 51.9138 18.5552 51.2546C16.1226 49.9387 13.4544 48.4551 12.3491 47.7781H12.3481C11.4397 47.2193 10.899 46.3536 11.0894 45.3621H11.0903C11.1604 44.9744 11.3271 44.5883 11.5386 44.2585C11.7503 43.9284 12.0271 43.6224 12.3384 43.4207L12.3472 43.4148L12.356 43.4099Z" fill="#FDFDFD" stroke="#FDFDFD"/>
<path d="M7.89746 86.6362C10.7505 86.6503 12.3204 86.6607 13.2188 86.6978C14.0769 86.7332 14.4392 86.7908 14.7471 86.9976L14.748 86.9966C16.3858 88.0676 16.2603 90.5982 14.5176 91.4712C14.1891 91.6357 13.826 91.698 12.9414 91.7329C12.0442 91.7683 10.5265 91.7749 7.8252 91.7749C6.0009 91.7749 4.45272 91.7613 3.31934 91.7368C2.75313 91.7246 2.2875 91.7092 1.94141 91.6919C1.76867 91.6833 1.62193 91.6739 1.50586 91.6636C1.40219 91.6543 1.28803 91.6421 1.20215 91.6196L0.985352 91.5474C-0.0199451 91.1572 -0.484777 90.1329 -0.5 89.2046C-0.515994 88.2213 -0.029127 87.1163 1.10059 86.7749V86.7729C1.10464 86.7716 1.10911 86.7713 1.11328 86.77C1.11495 86.7695 1.11649 86.7686 1.11816 86.7681V86.769C1.21597 86.7398 1.34333 86.7275 1.43066 86.7202C1.54941 86.7103 1.70295 86.7017 1.88477 86.6938C2.25015 86.6781 2.7473 86.6654 3.34277 86.6558C4.53484 86.6365 6.13577 86.6294 7.89746 86.6362Z" fill="#FDFDFD" stroke="#FDFDFD"/>
<path d="M170.402 86.637L170.401 86.6379C173.482 86.6516 175.086 86.6609 175.965 86.7034C176.401 86.7244 176.695 86.7548 176.913 86.8079C177.1 86.8535 177.227 86.9148 177.333 86.9817L177.435 87.05L177.44 87.054C178.853 88.0898 178.853 90.2799 177.44 91.3157L177.435 91.3196C177.306 91.4119 177.163 91.5006 176.914 91.5618C176.696 91.6151 176.404 91.6462 175.969 91.6682C175.093 91.7125 173.496 91.7264 170.429 91.7473C167.431 91.7682 165.827 91.7753 164.905 91.7434C163.97 91.711 163.662 91.6378 163.288 91.4641V91.4631C162.845 91.2684 162.484 90.9779 162.239 90.5784C161.993 90.1787 161.885 89.7062 161.885 89.1848C161.885 88.1414 162.349 87.3192 163.248 86.9055L163.25 86.9036C163.618 86.7376 163.93 86.6692 164.866 86.6389C165.793 86.6089 167.403 86.6161 170.402 86.637Z" fill="#FDFDFD" stroke="#FDFDFD"/>
<path d="M23.6694 124.219C26.1454 124.219 27.1578 127.458 25.105 128.853L25.104 128.854C24.4893 129.269 21.8871 130.827 19.4067 132.285C18.1618 133.017 16.9397 133.729 16.0015 134.267C15.5329 134.535 15.1333 134.761 14.8364 134.925C14.6882 135.007 14.5626 135.075 14.4663 135.125C14.4273 135.146 14.3821 135.169 14.3374 135.19L14.2104 135.242C13.9843 135.315 13.7653 135.362 13.5122 135.343C13.2717 135.325 13.0368 135.251 12.7759 135.149V135.148C11.1443 134.53 10.5467 132.408 11.7456 131.135L11.7466 131.134C11.8136 131.063 11.9168 130.985 12.0112 130.915C12.1176 130.837 12.2548 130.741 12.4165 130.632C12.7406 130.413 13.1767 130.131 13.6938 129.803C14.7294 129.147 16.0996 128.305 17.5698 127.425H17.5718C19.8568 126.068 21.2061 125.278 22.0454 124.827C22.856 124.392 23.2809 124.219 23.6694 124.219Z" fill="#FDFDFD" stroke="#FDFDFD"/>
<path d="M154.346 124.523C154.728 124.513 155.095 124.628 155.487 124.809L155.486 124.81C155.666 124.891 156.31 125.244 157.152 125.713C158.029 126.202 159.158 126.839 160.308 127.492C162.599 128.793 164.991 130.169 165.601 130.552H165.6C166.493 131.108 166.946 131.992 166.899 132.885C166.853 133.779 166.309 134.613 165.358 135.077L165.354 135.079C165.078 135.21 164.834 135.315 164.579 135.345C164.311 135.377 164.08 135.319 163.848 135.247C163.845 135.246 163.843 135.245 163.841 135.245C163.839 135.244 163.837 135.244 163.836 135.244V135.243C163.754 135.217 163.649 135.17 163.558 135.126C163.447 135.074 163.305 135.002 163.14 134.917C162.808 134.745 162.366 134.509 161.846 134.225C160.804 133.657 159.442 132.896 158.007 132.08H158.005C156.01 130.937 154.684 130.163 153.826 129.627C153.398 129.36 153.077 129.147 152.845 128.973C152.631 128.813 152.447 128.654 152.335 128.487L152.334 128.488C151.523 127.313 152.023 125.59 153.27 124.875V124.875C153.615 124.67 153.957 124.533 154.346 124.523Z" fill="#FDFDFD" stroke="#FDFDFD"/>
<path d="M126.844 151.811C127.113 151.811 127.421 151.824 127.746 151.999C128.056 152.165 128.33 152.449 128.634 152.861C129.238 153.68 130.12 155.232 131.745 158.128V158.129C132.581 159.622 133.355 161.035 133.929 162.106C134.215 162.641 134.453 163.092 134.624 163.426C134.709 163.592 134.779 163.732 134.83 163.839C134.851 163.883 134.875 163.932 134.896 163.98L134.946 164.114L134.947 164.115C135.173 164.899 134.916 165.722 134.36 166.332L134.245 166.451C133.644 167.037 132.9 167.31 132.165 167.221C131.431 167.133 130.775 166.692 130.33 165.984C129.978 165.431 128.536 162.874 127.166 160.41C126.478 159.173 125.804 157.951 125.288 157.005C125.03 156.532 124.811 156.126 124.649 155.821C124.495 155.531 124.376 155.301 124.336 155.204L124.337 155.203C123.843 154.022 124.46 152.757 125.592 152.149L125.598 152.146L125.604 152.142C125.938 151.976 126.464 151.83 126.818 151.812L126.831 151.811H126.844Z" fill="#FDFDFD" stroke="#FDFDFD"/>
<path d="M50.2666 152.583C51.2223 151.971 52.3558 152.18 53.1318 152.738C53.9088 153.297 54.4532 154.304 54.0762 155.385L54.0771 155.386C54.0242 155.54 53.8729 155.825 53.6895 156.152C53.4941 156.5 53.2308 156.951 52.9238 157.467C52.3096 158.5 51.5124 159.805 50.708 161.098C49.9036 162.391 49.0901 163.676 48.4443 164.668C48.1218 165.164 47.8396 165.59 47.6201 165.909C47.5107 166.067 47.4146 166.203 47.3359 166.308C47.2671 166.4 47.186 166.502 47.1143 166.569L47.1152 166.57C46.9043 166.767 46.7004 166.934 46.4482 167.038C46.1919 167.143 45.9325 167.164 45.6475 167.164C44.8925 167.164 44.212 166.93 43.7168 166.492C43.2162 166.048 42.9327 165.418 42.9502 164.701H42.9512C42.9539 164.28 43.095 163.895 43.5498 163.074C44.0142 162.235 44.8569 160.857 46.3633 158.417C47.5111 156.549 48.3766 155.171 48.9932 154.236C49.301 153.769 49.5504 153.406 49.7441 153.146C49.8407 153.017 49.9283 152.907 50.0049 152.82C50.0715 152.744 50.1624 152.647 50.2666 152.583V152.583Z" fill="#FDFDFD" stroke="#FDFDFD"/>
</g>
<path d="M806.601 85.5715C808.196 85.5715 809.49 86.8631 809.49 88.4565C809.49 90.0499 808.196 91.3416 806.601 91.3416H762.184V128.143H814.7C816.331 128.143 817.654 129.463 817.654 131.092C817.654 132.721 816.331 134.041 814.7 134.041H756.93C756.216 134.041 755.636 133.463 755.636 132.75V45.5739C755.636 44.8605 756.216 44.2822 756.93 44.2822H812.774C814.405 44.2822 815.728 45.6026 815.728 47.2315C815.728 48.8603 814.405 50.1807 812.774 50.1807H762.184V85.5715H806.601Z" fill="#80BA53"/>
<path fill-rule="evenodd" clip-rule="evenodd" d="M204.592 44.2823C202.726 44.2823 201.472 46.1929 202.219 47.8995L239.249 132.492C239.661 133.433 240.593 134.041 241.622 134.041H254.666C255.697 134.041 256.629 133.432 257.04 132.489L293.949 47.8967C294.693 46.1904 293.44 44.2823 291.575 44.2823H280.53C279.5 44.2823 278.568 44.8916 278.156 45.8339L248.623 113.475L219.415 45.8433C219.006 44.896 218.071 44.2823 217.037 44.2823H204.592ZM321.703 95.3166V120.065H369.834C371.264 120.065 372.423 121.221 372.423 122.648V131.458C372.423 132.885 371.264 134.041 369.834 134.041H306.306C305.591 134.041 305.011 133.463 305.011 132.75V45.5739C305.011 44.8606 305.591 44.2823 306.306 44.2823H368.036C369.466 44.2823 370.625 45.4389 370.625 46.8656V55.6757C370.625 57.1024 369.466 58.259 368.036 58.259H321.703V81.5963H359.474C360.904 81.5963 362.063 82.7531 362.063 84.1796V92.7333C362.063 94.1601 360.904 95.3166 359.474 95.3166H321.703ZM393.621 44.2823C392.191 44.2823 391.031 45.4389 391.031 46.8656V131.458C391.031 132.885 392.191 134.041 393.621 134.041H405.006C406.436 134.041 407.596 132.885 407.596 131.458V73.271L456.382 133.089C456.874 133.691 457.611 134.041 458.391 134.041H468.308C469.74 134.041 470.897 132.885 470.897 131.458V46.8656C470.897 45.4389 469.74 44.2823 468.308 44.2823H456.924C455.494 44.2823 454.334 45.4389 454.334 46.8656V105.053L405.548 45.2351C405.056 44.6322 404.318 44.2823 403.539 44.2823H393.621ZM517.453 131.99C523.361 134.212 529.739 135.323 536.585 135.323C544.034 135.323 550.795 134.041 556.875 131.477C562.175 129.24 566.758 126.126 570.626 122.134C571.584 121.146 571.499 119.577 570.502 118.629L563.42 111.893C562.366 110.89 560.696 110.96 559.648 111.968C556.88 114.621 553.858 116.679 550.583 118.141C546.559 119.851 542.193 120.706 537.486 120.706C532.776 120.706 528.455 119.936 524.516 118.398C520.663 116.859 517.282 114.679 514.371 111.858C511.547 109.037 509.322 105.703 507.696 101.856C506.156 98.0095 505.384 93.778 505.384 89.1618C505.384 84.5457 506.156 80.3142 507.696 76.4673C509.322 72.6205 511.547 69.2867 514.371 66.4656C517.282 63.6446 520.663 61.4647 524.516 59.926C528.455 58.3873 532.776 57.6179 537.486 57.6179C542.193 57.6179 546.559 58.5155 550.583 60.3107C553.863 61.7051 556.888 63.6965 559.658 66.2849C560.707 67.266 562.351 67.3309 563.397 66.3473L570.497 59.68C571.499 58.7393 571.595 57.1745 570.644 56.1806C566.773 52.1236 562.183 49.0123 556.875 46.8468C550.795 44.2823 544.076 43 536.714 43C529.78 43 523.403 44.154 517.582 46.4621C511.761 48.6848 506.668 51.8904 502.303 56.0792C497.937 60.1824 494.556 65.0551 492.158 70.6972C489.76 76.3392 488.564 82.494 488.564 89.1618C488.564 95.8297 489.76 101.984 492.158 107.626C494.556 113.268 497.893 118.184 502.173 122.373C506.539 126.476 511.632 129.682 517.453 131.99ZM590.867 44.2823C589.435 44.2823 588.277 45.4389 588.277 46.8656V131.458C588.277 132.885 589.435 134.041 590.867 134.041H602.379C603.811 134.041 604.968 132.885 604.968 131.458V46.8656C604.968 45.4389 603.811 44.2823 602.379 44.2823H590.867Z" fill="#FDFDFD"/>
<path d="M635.465 134.041C634.035 134.041 632.875 132.885 632.875 131.458V45.5739C632.875 44.8605 633.455 44.2822 634.17 44.2822H637.65C638.114 44.2822 638.541 44.5279 638.771 44.9269L678.649 113.668L718.405 44.9283C718.635 44.5285 719.062 44.2822 719.526 44.2822H722.879C723.594 44.2822 724.171 44.8594 724.174 45.5721L724.295 131.454C724.298 132.882 723.138 134.041 721.706 134.041H720.463C719.037 134.041 717.877 132.887 717.874 131.462L717.755 57.2463L680.876 120.827C680.415 121.625 679.56 122.116 678.636 122.116H678.408C677.486 122.116 676.634 121.626 676.171 120.83L639.297 57.4655V131.458C639.297 132.885 638.137 134.041 636.708 134.041H635.465Z" fill="#80BA53"/>
<path fill-rule="evenodd" clip-rule="evenodd" d="M842.827 134.041C842.11 134.041 841.533 133.463 841.533 132.75V45.5739C841.533 44.8605 842.11 44.2822 842.827 44.2822H877.099C886.602 44.2822 894.947 46.2056 902.138 50.0525C909.328 53.8993 914.892 59.1994 918.831 65.9526C922.854 72.706 924.866 80.4423 924.866 89.1618C924.866 97.8813 922.854 105.618 918.831 112.371C914.892 119.124 909.328 124.424 902.138 128.271C894.947 132.118 886.602 134.041 877.099 134.041H842.827ZM876.586 128.143H848.081V50.1807H876.586C885.061 50.1807 892.423 51.8476 898.67 55.1815C904.921 58.5155 909.755 63.1316 913.181 69.0301C916.604 74.8432 918.318 81.5536 918.318 89.1618C918.318 96.77 916.604 103.523 913.181 109.422C909.755 115.235 904.921 119.808 898.67 123.142C892.423 126.476 885.061 128.143 876.586 128.143Z" fill="#80BA53"/>
<defs>
<clipPath id="clip0_280_183">
<rect width="178" height="179" fill="white"/>
</clipPath>
</defs>
</svg>
