<svg width="56" height="56" viewBox="0 0 56 56" fill="none" xmlns="http://www.w3.org/2000/svg">
<rect width="56" height="56" rx="28" fill="#247F78"/>
<path d="M15.0275 23.5513C15.0095 23.616 15.0002 23.6828 15 23.75V25.75C14.9997 26.5087 15.1811 27.2564 15.5291 27.9306C15.877 28.6047 16.3814 29.1858 17 29.625V38.75C17 38.9489 17.079 39.1397 17.2197 39.2803C17.3603 39.421 17.5511 39.5 17.75 39.5H37.75C37.9489 39.5 38.1397 39.421 38.2803 39.2803C38.421 39.1397 38.5 38.9489 38.5 38.75V29.625C39.1186 29.1858 39.623 28.6047 39.971 27.9306C40.3189 27.2564 40.5003 26.5087 40.5 25.75V23.75C40.5001 23.6807 40.4904 23.6116 40.4713 23.545L38.6788 17.2688C38.5731 16.9046 38.3526 16.5843 38.0501 16.3556C37.7475 16.127 37.3792 16.0022 37 16H18.5C18.1208 16.0022 17.7525 16.127 17.4499 16.3556C17.1474 16.5843 16.9269 16.9046 16.8213 17.2688L15.0275 23.5513ZM18.2638 17.6762C18.2794 17.6256 18.3107 17.5813 18.3531 17.5496C18.3956 17.5179 18.447 17.5006 18.5 17.5H37C37.0543 17.5001 37.107 17.5178 37.1503 17.5505C37.1936 17.5832 37.2251 17.6291 37.24 17.6813L38.7563 23H16.75L18.2638 17.6762ZM24.5 24.5H31V25.75C31 26.612 30.6576 27.4386 30.0481 28.0481C29.4386 28.6576 28.612 29 27.75 29C26.888 29 26.0614 28.6576 25.4519 28.0481C24.8424 27.4386 24.5 26.612 24.5 25.75V24.5ZM16.5 24.5H23V25.75C23.0006 26.3109 22.8561 26.8624 22.5805 27.3508C22.3048 27.8393 21.9075 28.2481 21.427 28.5376C20.9466 28.827 20.3994 28.9871 19.8388 29.0025C19.2781 29.0178 18.723 28.8877 18.2275 28.625C18.1659 28.5725 18.0963 28.5303 18.0213 28.5C17.5558 28.2076 17.1722 27.802 16.9061 27.3211C16.6401 26.8402 16.5004 26.2996 16.5 25.75V24.5ZM37 38H18.5V30.3325C19.4768 30.5983 20.513 30.545 21.4574 30.1805C22.4018 29.816 23.205 29.1593 23.75 28.3062C24.1786 28.9786 24.7699 29.5321 25.469 29.9155C26.1681 30.2989 26.9526 30.4999 27.75 30.4999C28.5474 30.4999 29.3319 30.2989 30.031 29.9155C30.7301 29.5321 31.3214 28.9786 31.75 28.3062C32.295 29.1593 33.0982 29.816 34.0426 30.1805C34.987 30.545 36.0232 30.5983 37 30.3325V38ZM37.4788 28.5C37.4037 28.5303 37.3341 28.5725 37.2725 28.625C36.777 28.8877 36.2219 29.0178 35.6612 29.0025C35.1006 28.9871 34.5534 28.827 34.073 28.5376C33.5925 28.2481 33.1952 27.8393 32.9195 27.3508C32.6439 26.8624 32.4994 26.3109 32.5 25.75V24.5H39V25.75C38.9997 26.2996 38.8599 26.8402 38.5939 27.3211C38.3278 27.802 37.9442 28.2076 37.4788 28.5Z" fill="white"/>
</svg>
