<svg width="72" height="72" viewBox="0 0 72 72" fill="none" xmlns="http://www.w3.org/2000/svg">
<rect x="0.5" y="0.5" width="71" height="71" rx="35.5" stroke="#B9FEF6"/>
<path d="M31.0588 37.3725C30.7874 37.3725 30.522 37.292 30.2963 37.1412C30.0706 36.9904 29.8946 36.776 29.7908 36.5252C29.6869 36.2744 29.6597 35.9985 29.7127 35.7322C29.7656 35.466 29.8963 35.2214 30.0883 35.0295C30.2802 34.8375 30.5248 34.7068 30.7911 34.6538C31.0573 34.6009 31.3333 34.628 31.5841 34.7319C31.8349 34.8358 32.0492 35.0117 32.2001 35.2374C32.3509 35.4632 32.4314 35.7285 32.4314 36C32.4314 36.364 32.2868 36.7131 32.0294 36.9705C31.772 37.2279 31.4228 37.3725 31.0588 37.3725ZM40.9412 34.6274C40.6697 34.6274 40.4043 34.7079 40.1786 34.8588C39.9529 35.0096 39.777 35.2239 39.6731 35.4747C39.5692 35.7255 39.542 36.0015 39.595 36.2678C39.648 36.534 39.7787 36.7786 39.9706 36.9705C40.1626 37.1625 40.4072 37.2932 40.6734 37.3462C40.9397 37.3991 41.2156 37.372 41.4664 37.2681C41.7172 37.1642 41.9316 36.9883 42.0824 36.7625C42.2332 36.5368 42.3137 36.2715 42.3137 36C42.3137 35.636 42.1691 35.2869 41.9117 35.0295C41.6543 34.7721 41.3052 34.6274 40.9412 34.6274ZM39.4039 40.7929C38.382 41.4277 37.203 41.7641 36 41.7641C34.797 41.7641 33.618 41.4277 32.5961 40.7929C32.4112 40.6764 32.1875 40.6382 31.9744 40.6866C31.7613 40.735 31.5761 40.8661 31.4596 41.051C31.3431 41.2359 31.3049 41.4595 31.3533 41.6727C31.4017 41.8858 31.5327 42.071 31.7177 42.1874C33.0025 42.988 34.4861 43.4124 36 43.4124C37.5139 43.4124 38.9975 42.988 40.2824 42.1874C40.3739 42.1298 40.4532 42.0546 40.5157 41.9663C40.5783 41.878 40.6228 41.7782 40.6467 41.6727C40.6707 41.5671 40.6736 41.4579 40.6554 41.3512C40.6371 41.2446 40.5981 41.1425 40.5404 41.051C40.4827 40.9594 40.4076 40.8801 40.3192 40.8176C40.2309 40.7551 40.1311 40.7105 40.0256 40.6866C39.9201 40.6626 39.8109 40.6597 39.7042 40.6779C39.5975 40.6962 39.4955 40.7353 39.4039 40.7929ZM50 36C50 38.7689 49.1789 41.4757 47.6406 43.778C46.1022 46.0803 43.9157 47.8747 41.3576 48.9343C38.7994 49.9939 35.9845 50.2712 33.2687 49.731C30.553 49.1908 28.0584 47.8574 26.1005 45.8995C24.1426 43.9416 22.8092 41.447 22.269 38.7313C21.7288 36.0155 22.0061 33.2006 23.0657 30.6424C24.1253 28.0843 25.9197 25.8978 28.222 24.3594C30.5243 22.8211 33.2311 22 36 22C39.7117 22.0044 43.2701 23.4808 45.8947 26.1053C48.5192 28.7299 49.9956 32.2883 50 36ZM48.3529 36C48.3491 32.7946 47.1009 29.7159 44.8715 27.4128C42.6422 25.1097 39.6057 23.7621 36.4022 23.6539C34.6686 26.012 34.6275 28.2931 34.6275 28.3137C34.6275 28.6777 34.7721 29.0269 35.0295 29.2843C35.2869 29.5417 35.636 29.6863 36 29.6863C36.364 29.6863 36.7131 29.5417 36.9705 29.2843C37.2279 29.0269 37.3726 28.6777 37.3726 28.3137C37.3726 28.0953 37.4593 27.8858 37.6138 27.7314C37.7682 27.577 37.9777 27.4902 38.1961 27.4902C38.4145 27.4902 38.624 27.577 38.7784 27.7314C38.9328 27.8858 39.0196 28.0953 39.0196 28.3137C39.0196 29.1146 38.7015 29.8826 38.1352 30.4489C37.5689 31.0152 36.8009 31.3333 36 31.3333C35.1992 31.3333 34.4311 31.0152 33.8648 30.4489C33.2985 29.8826 32.9804 29.1146 32.9804 28.3137C32.9804 28.2108 33.001 26.1424 34.3722 23.7541C32.0192 24.0669 29.8062 25.051 27.9979 26.5887C26.1896 28.1263 24.8626 30.1524 24.1756 32.4245C23.4887 34.6966 23.471 37.1185 24.1245 39.4004C24.778 41.6824 26.0752 43.7277 27.8608 45.2917C29.6463 46.8557 31.8447 47.8721 34.1928 48.2194C36.541 48.5666 38.9394 48.23 41.1012 47.2498C43.2631 46.2695 45.0967 44.6872 46.3827 42.6921C47.6688 40.697 48.3528 38.3737 48.3529 36Z" fill="#2D9890"/>
</svg>
