<svg width="72" height="72" viewBox="0 0 72 72" fill="none" xmlns="http://www.w3.org/2000/svg">
<rect x="0.5" y="0.5" width="71" height="71" rx="35.5" stroke="#B9FEF6"/>
<path d="M42.5455 23C39.5864 23 37.0134 24.3095 35.5 26.504C33.9866 24.3095 31.4136 23 28.4545 23C26.2131 23.0026 24.0641 23.8775 22.4792 25.4329C20.8942 26.9883 20.0026 29.0971 20 31.2968C20 35.3345 22.5645 39.5369 27.6232 43.7848C29.9412 45.7232 32.4451 47.4366 35.0998 48.9012C35.2228 48.966 35.3603 49 35.5 49C35.6397 49 35.7772 48.966 35.9002 48.9012C38.5549 47.4366 41.0588 45.7232 43.3768 43.7848C48.4355 39.5369 51 35.3345 51 31.2968C50.9974 29.0971 50.1058 26.9883 48.5208 25.4329C46.9359 23.8775 44.7869 23.0026 42.5455 23ZM35.5 47.2142C33.1877 45.9046 21.6909 39.0017 21.6909 31.2968C21.6928 29.537 22.406 27.8498 23.674 26.6054C24.942 25.3611 26.6613 24.6612 28.4545 24.6594C31.3122 24.6594 33.7119 26.1569 34.718 28.5685C34.7817 28.7207 34.89 28.8508 35.0293 28.9424C35.1685 29.034 35.3324 29.083 35.5 29.083C35.6676 29.083 35.8315 29.034 35.9707 28.9424C36.11 28.8508 36.2183 28.7207 36.282 28.5685C37.2881 26.1569 39.6878 24.6594 42.5455 24.6594C44.3387 24.6612 46.058 25.3611 47.326 26.6054C48.594 27.8498 49.3072 29.537 49.3091 31.2968C49.3091 39.0017 37.8123 45.9046 35.5 47.2142Z" fill="#2D9890"/>
</svg>
