<svg width="20" height="20" viewBox="0 0 20 20" fill="none" xmlns="http://www.w3.org/2000/svg">
<path d="M8.75 4.6875C8.75 4.44027 8.82331 4.1986 8.96066 3.99304C9.09802 3.78748 9.29324 3.62726 9.52165 3.53265C9.75005 3.43804 10.0014 3.41329 10.2439 3.46152C10.4863 3.50975 10.7091 3.6288 10.8839 3.80362C11.0587 3.97843 11.1778 4.20116 11.226 4.44364C11.2742 4.68611 11.2495 4.93745 11.1549 5.16585C11.0602 5.39426 10.9 5.58949 10.6945 5.72684C10.4889 5.86419 10.2472 5.9375 10 5.9375C9.66848 5.9375 9.35054 5.8058 9.11612 5.57138C8.8817 5.33696 8.75 5.01902 8.75 4.6875ZM10 8.75C9.75277 8.75 9.5111 8.82331 9.30554 8.96066C9.09998 9.09802 8.93976 9.29324 8.84515 9.52165C8.75054 9.75005 8.72579 10.0014 8.77402 10.2439C8.82225 10.4863 8.9413 10.7091 9.11612 10.8839C9.29093 11.0587 9.51366 11.1778 9.75614 11.226C9.99861 11.2742 10.2499 11.2495 10.4784 11.1549C10.7068 11.0602 10.902 10.9 11.0393 10.6945C11.1767 10.4889 11.25 10.2472 11.25 10C11.25 9.66848 11.1183 9.35054 10.8839 9.11612C10.6495 8.8817 10.3315 8.75 10 8.75ZM10 14.0625C9.75277 14.0625 9.5111 14.1358 9.30554 14.2732C9.09998 14.4105 8.93976 14.6057 8.84515 14.8341C8.75054 15.0626 8.72579 15.3139 8.77402 15.5564C8.82225 15.7988 8.9413 16.0216 9.11612 16.1964C9.29093 16.3712 9.51366 16.4903 9.75614 16.5385C9.99861 16.5867 10.2499 16.562 10.4784 16.4674C10.7068 16.3727 10.902 16.2125 11.0393 16.007C11.1767 15.8014 11.25 15.5597 11.25 15.3125C11.25 14.981 11.1183 14.663 10.8839 14.4286C10.6495 14.1942 10.3315 14.0625 10 14.0625Z" fill="#247F78"/>
</svg>
