<svg width="16" height="16" viewBox="0 0 16 16" fill="none" xmlns="http://www.w3.org/2000/svg">
<path d="M15.3425 7.84812C15.3212 7.79938 14.8012 6.64625 13.64 5.485C12.5625 4.40875 10.7112 3.125 7.99997 3.125C5.28872 3.125 3.43747 4.40875 2.35997 5.485C1.19872 6.64625 0.67872 7.7975 0.65747 7.84812C0.636103 7.89613 0.625061 7.94808 0.625061 8.00062C0.625061 8.05317 0.636103 8.10512 0.65747 8.15312C0.67872 8.20125 1.19872 9.35437 2.35997 10.5156C3.43747 11.5919 5.28872 12.875 7.99997 12.875C10.7112 12.875 12.5625 11.5919 13.64 10.5156C14.8012 9.35437 15.3212 8.20312 15.3425 8.15312C15.3638 8.10512 15.3749 8.05317 15.3749 8.00062C15.3749 7.94808 15.3638 7.89613 15.3425 7.84812ZM7.99997 12.125C6.03872 12.125 4.32622 11.4113 2.90934 10.0044C2.31539 9.41409 1.81278 8.73854 1.41809 8C1.81267 7.26158 2.31529 6.58622 2.90934 5.99625C4.32622 4.58875 6.03872 3.875 7.99997 3.875C9.96122 3.875 11.6737 4.58875 13.0906 5.99625C13.6846 6.58622 14.1873 7.26158 14.5818 8C14.1837 8.76312 12.1875 12.125 7.99997 12.125ZM7.99997 5.125C7.43135 5.125 6.8755 5.29362 6.40271 5.60952C5.92991 5.92543 5.56142 6.37445 5.34382 6.89979C5.12621 7.42512 5.06928 8.00319 5.18021 8.56088C5.29114 9.11858 5.56496 9.63086 5.96704 10.0329C6.36911 10.435 6.88139 10.7088 7.43909 10.8198C7.99678 10.9307 8.57485 10.8738 9.10018 10.6562C9.62552 10.4386 10.0745 10.0701 10.3904 9.59726C10.7064 9.12447 10.875 8.56862 10.875 8C10.874 7.23781 10.5708 6.50712 10.0318 5.96816C9.49285 5.42921 8.76216 5.12599 7.99997 5.125ZM7.99997 10.125C7.57968 10.125 7.16884 10.0004 6.81938 9.76687C6.46993 9.53338 6.19756 9.20149 6.03673 8.8132C5.87589 8.42491 5.83381 7.99764 5.9158 7.58543C5.99779 7.17322 6.20018 6.79458 6.49737 6.4974C6.79455 6.20021 7.17319 5.99782 7.5854 5.91583C7.99761 5.83384 8.42488 5.87592 8.81317 6.03676C9.20146 6.19759 9.53335 6.46996 9.76684 6.81941C10.0003 7.16887 10.125 7.57971 10.125 8C10.125 8.56359 9.90109 9.10409 9.50257 9.5026C9.10406 9.90112 8.56355 10.125 7.99997 10.125Z" fill="#247F78"/>
</svg>
