<svg width="72" height="72" viewBox="0 0 72 72" fill="none" xmlns="http://www.w3.org/2000/svg">
<rect x="0.5" y="0.5" width="71" height="71" rx="35.5" stroke="#B9FEF6"/>
<path d="M47.0452 25.4541C45.6644 24.0507 44.0194 22.9346 42.2051 22.1702C40.3908 21.4057 38.4431 21.0081 36.4743 21.0001C34.5056 20.9922 32.5547 21.3741 30.7343 22.1239C28.9139 22.8736 27.26 23.9764 25.8679 25.3686C24.4758 26.7608 23.3731 28.4148 22.6235 30.2353C21.8738 32.0557 21.492 34.0066 21.5001 35.9754C21.5082 37.9441 21.906 39.8918 22.6706 41.706C23.4352 43.5203 24.5514 45.1652 25.9548 46.5459C27.3356 47.9493 28.9806 49.0654 30.7949 49.8298C32.6092 50.5943 34.5569 50.9919 36.5257 50.9999C38.4944 51.0078 40.4453 50.6259 42.2657 49.8761C44.0861 49.1264 45.74 48.0236 47.1321 46.6314C48.5242 45.2392 49.6269 43.5852 50.3765 41.7647C51.1262 39.9443 51.508 37.9934 51.4999 36.0246C51.4918 34.0559 51.094 32.1082 50.3294 30.294C49.5648 28.4797 48.4486 26.8348 47.0452 25.4541ZM31.5286 48.1908V39.5099C31.5286 39.4324 31.5594 39.358 31.6143 39.3032C31.6691 39.2483 31.7435 39.2175 31.8211 39.2175H41.1789C41.2565 39.2175 41.3309 39.2483 41.3857 39.3032C41.4406 39.358 41.4714 39.4324 41.4714 39.5099V48.1908C38.2832 49.4835 34.7168 49.4835 31.5286 48.1908ZM39.1319 37.4629H33.8681V31.8643L39.1319 29.2324V37.4629ZM45.8052 45.306C45.0315 46.0797 44.1652 46.755 43.226 47.3165V39.5099C43.226 38.967 43.0103 38.4464 42.6264 38.0625C42.2425 37.6786 41.7218 37.4629 41.1789 37.4629H40.8865V27.8126C40.8865 27.6631 40.8484 27.516 40.7756 27.3854C40.7029 27.2548 40.5979 27.1449 40.4708 27.0663C40.3436 26.9876 40.1985 26.9427 40.0491 26.9359C39.8997 26.9291 39.7511 26.9606 39.6173 27.0274L32.5989 30.5366C32.453 30.6094 32.3303 30.7215 32.2446 30.8602C32.1588 30.9989 32.1134 31.1587 32.1135 31.3218V37.4629H31.8211C31.2782 37.4629 30.7575 37.6786 30.3736 38.0625C29.9897 38.4464 29.774 38.967 29.774 39.5099V47.3165C28.8348 46.755 27.9685 46.0797 27.1948 45.306C25.3544 43.4656 24.1011 41.1208 23.5933 38.5681C23.0856 36.0154 23.3462 33.3695 24.3422 30.9649C25.3382 28.5603 27.0249 26.5051 29.189 25.0591C31.353 23.6131 33.8973 22.8413 36.5 22.8413C39.1027 22.8413 41.6469 23.6131 43.811 25.0591C45.9751 26.5051 47.6618 28.5603 48.6578 30.9649C49.6538 33.3695 49.9144 36.0154 49.4067 38.5681C48.8989 41.1208 47.6456 43.4656 45.8052 45.306Z" fill="#2D9890"/>
</svg>
