<svg width="56" height="56" viewBox="0 0 56 56" fill="none" xmlns="http://www.w3.org/2000/svg">
<rect width="56" height="56" rx="28" fill="#247F78"/>
<path fill-rule="evenodd" clip-rule="evenodd" d="M37.776 24.1494C38.264 24.6374 38.684 25.0587 39.0027 25.4333C39.3387 25.8293 39.636 26.2587 39.808 26.7867C40.0647 27.5752 40.0647 28.4248 39.808 29.2133C39.636 29.7413 39.3387 30.1707 39.0027 30.5667C38.684 30.9413 38.264 31.3627 37.776 31.8493L31.8493 37.776C31.3627 38.264 30.9427 38.684 30.5667 39.0027C30.1707 39.3387 29.7413 39.636 29.2133 39.808C28.4248 40.0647 27.5752 40.0647 26.7867 39.808C26.2587 39.636 25.8293 39.3387 25.4333 39.0027C24.9908 38.6097 24.563 38.2006 24.1507 37.776L18.224 31.8493C17.7995 31.4371 17.3903 31.0092 16.9973 30.5667C16.6613 30.1707 16.364 29.7413 16.192 29.2133C15.9353 28.4248 15.9353 27.5752 16.192 26.7867C16.364 26.2587 16.6613 25.8293 16.9973 25.4333C17.316 25.0587 17.736 24.6374 18.224 24.1494L24.1494 18.224C24.6374 17.736 25.0587 17.316 25.4333 16.9973C25.8293 16.6613 26.2587 16.364 26.7867 16.192C27.5752 15.9353 28.4248 15.9353 29.2133 16.192C29.7413 16.364 30.1707 16.6613 30.5667 16.9973C30.9413 17.316 31.3627 17.736 31.8493 18.224L37.776 24.1494ZM33.528 21.752L30.96 19.1867C29.924 18.1507 29.4067 17.632 28.808 17.4373C28.2825 17.2663 27.7162 17.2663 27.1907 17.4373C26.5933 17.632 26.076 18.1507 25.04 19.1867L22.472 21.752H22.832C23.5933 21.752 24.312 22.0853 24.8293 22.656L27.3947 25.4787C27.4713 25.5631 27.5647 25.6306 27.669 25.6768C27.7732 25.723 27.886 25.7468 28 25.7468C28.114 25.7468 28.2268 25.723 28.331 25.6768C28.4353 25.6306 28.5287 25.5631 28.6053 25.4787L31.1707 22.656C31.4223 22.3742 31.7301 22.1482 32.0743 21.9925C32.4186 21.8368 32.7916 21.7549 33.1693 21.752H33.528ZM21.164 23.0613H22.8307C23.204 23.0613 23.5773 23.224 23.8613 23.536L26.4267 26.3587C26.626 26.5779 26.8689 26.753 27.1398 26.8728C27.4108 26.9926 27.7038 27.0545 28 27.0545C28.2963 27.0545 28.5892 26.9926 28.8602 26.8728C29.1311 26.753 29.374 26.5779 29.5733 26.3587L32.1387 23.536C32.2678 23.3893 32.4263 23.2713 32.6038 23.1896C32.7813 23.1078 32.9739 23.0641 33.1693 23.0613H34.836L36.8147 25.04C37.8507 26.076 38.3693 26.5933 38.564 27.192C38.7347 27.7173 38.7347 28.2827 38.564 28.8094C38.3693 29.4067 37.8507 29.924 36.8147 30.96L34.836 32.9387H33.1693C32.796 32.9387 32.4227 32.776 32.1387 32.464L29.5733 29.64C29.3741 29.4207 29.1313 29.2454 28.8603 29.1255C28.5894 29.0055 28.2963 28.9436 28 28.9436C27.7037 28.9436 27.4107 29.0055 27.1397 29.1255C26.8688 29.2454 26.6259 29.4207 26.4267 29.64L23.8613 32.4627C23.7322 32.6094 23.5738 32.7274 23.3963 32.8091C23.2188 32.8909 23.0261 32.9345 22.8307 32.9373H21.164L19.1853 30.96C18.1493 29.924 17.6307 29.4067 17.436 28.808C17.265 28.2825 17.265 27.7162 17.436 27.1907C17.6307 26.5933 18.1493 26.076 19.1853 25.04L21.164 23.0613ZM25.04 36.8133L22.472 34.2467H22.832C23.5933 34.2467 24.312 33.9133 24.8293 33.3427L27.3947 30.52C27.4713 30.4356 27.5647 30.3681 27.669 30.3219C27.7732 30.2757 27.886 30.2519 28 30.2519C28.114 30.2519 28.2268 30.2757 28.331 30.3219C28.4353 30.3681 28.5287 30.4356 28.6053 30.52L31.1707 33.3427C31.4223 33.6245 31.7301 33.8505 32.0743 34.0062C32.4186 34.1619 32.7916 34.2438 33.1693 34.2467H33.528L30.96 36.8133C29.924 37.8493 29.4067 38.368 28.808 38.5627C28.2825 38.7337 27.7162 38.7337 27.1907 38.5627C26.5933 38.368 26.076 37.8507 25.04 36.8133Z" fill="white"/>
</svg>
