<svg width="24" height="24" viewBox="0 0 24 24" fill="none" xmlns="http://www.w3.org/2000/svg">
<path d="M21.15 5.87251L12.9 1.35657C12.6243 1.20483 12.3147 1.12526 12 1.12526C11.6853 1.12526 11.3757 1.20483 11.1 1.35657L2.85 5.87251C2.5548 6.03403 2.3085 6.27201 2.13695 6.5615C1.9654 6.85099 1.87492 7.18132 1.875 7.51782V16.4822C1.87492 16.8187 1.9654 17.149 2.13695 17.4385C2.3085 17.728 2.5548 17.966 2.85 18.1275L11.1 22.6434C11.3756 22.7953 11.6853 22.875 12 22.875C12.3147 22.875 12.6244 22.7953 12.9 22.6434L21.15 18.1275C21.4452 17.966 21.6915 17.728 21.863 17.4385C22.0346 17.149 22.1251 16.8187 22.125 16.4822V7.51782C22.1251 7.18132 22.0346 6.85099 21.863 6.5615C21.6915 6.27201 21.4452 6.03403 21.15 5.87251ZM12 3.42844L18.75 7.12501L16.7409 8.22469L9.99094 4.52907L12 3.42844ZM12 10.8188L5.25 7.12501L7.64625 5.81251L14.3962 9.50719L12 10.8188ZM4.125 9.07407L10.875 12.7678V19.9556L4.125 16.26V9.07407ZM13.125 19.9556V12.7678L15.375 11.5369V14.25C15.375 14.5484 15.4935 14.8345 15.7045 15.0455C15.9155 15.2565 16.2016 15.375 16.5 15.375C16.7984 15.375 17.0845 15.2565 17.2955 15.0455C17.5065 14.8345 17.625 14.5484 17.625 14.25V10.305L19.875 9.07407V16.26L13.125 19.9556Z" fill="black"/>
</svg>
