<svg width="56" height="56" viewBox="0 0 56 56" fill="none" xmlns="http://www.w3.org/2000/svg">
<rect width="56" height="56" rx="28" fill="#247F78"/>
<path d="M40.2716 24.9709C39.7753 24.4529 39.2624 23.9184 39.0562 23.4207C38.8653 22.9587 38.8551 22.2753 38.8436 21.5524C38.8258 20.3585 38.8055 19.0069 37.8993 18.1007C36.9931 17.1945 35.6364 17.1742 34.4476 17.1564C33.7247 17.1449 33.0476 17.1347 32.5793 16.9438C32.0816 16.7376 31.5471 16.2247 31.0291 15.7284C30.184 14.9189 29.2269 14 28 14C26.7731 14 25.816 14.9189 24.9709 15.7284C24.4529 16.2247 23.9184 16.7376 23.4207 16.9438C22.9587 17.1347 22.2753 17.1449 21.5524 17.1564C20.3585 17.1742 19.0069 17.1945 18.1007 18.1007C17.1945 19.0069 17.1742 20.3636 17.1564 21.5524C17.1449 22.2753 17.1347 22.9524 16.9438 23.4207C16.7376 23.9184 16.2247 24.4529 15.7284 24.9709C14.9189 25.816 14 26.7731 14 28C14 29.2269 14.9189 30.184 15.7284 31.0291C16.2247 31.5471 16.7376 32.0816 16.9438 32.5793C17.1347 33.0413 17.1449 33.7247 17.1564 34.4476C17.1742 35.6415 17.1945 36.9931 18.1007 37.8993C19.0069 38.8055 20.3636 38.8258 21.5524 38.8436C22.2753 38.8551 22.9524 38.8653 23.4207 39.0562C23.9184 39.2624 24.4529 39.7753 24.9709 40.2716C25.816 41.0811 26.7731 42 28 42C29.2269 42 30.184 41.0811 31.0291 40.2716C31.5471 39.7753 32.0816 39.2624 32.5793 39.0562C33.0413 38.8653 33.7247 38.8551 34.4476 38.8436C35.6415 38.8258 36.9931 38.8055 37.8993 37.8993C38.8055 36.9931 38.8258 35.6415 38.8436 34.4476C38.8551 33.7247 38.8653 33.0476 39.0562 32.5793C39.2624 32.0816 39.7753 31.5471 40.2716 31.0291C41.0811 30.184 42 29.2269 42 28C42 26.7731 41.0811 25.816 40.2716 24.9709ZM39.1695 29.9715C38.5751 30.5913 37.9604 31.2327 37.6422 31.9964C37.3393 32.7269 37.3265 33.5898 37.3138 34.4247C37.2998 35.3716 37.2845 36.3516 36.8175 36.82C36.3504 37.2884 35.3691 37.3024 34.4222 37.3164C33.5873 37.3291 32.7244 37.3418 31.9938 37.6447C31.2302 37.9604 30.5938 38.5751 29.9689 39.172C29.3007 39.8084 28.6096 40.4753 27.9975 40.4753C27.3853 40.4753 26.6942 39.8122 26.0247 39.172C25.4062 38.5776 24.7647 37.9629 24.0011 37.6447C23.2705 37.3418 22.4076 37.3291 21.5727 37.3164C20.6258 37.3024 19.6458 37.2871 19.1775 36.82C18.7091 36.3529 18.6951 35.3716 18.6811 34.4247C18.6684 33.5898 18.6556 32.7269 18.3527 31.9964C18.0371 31.2327 17.4224 30.5964 16.8255 29.9715C16.1904 29.3033 15.5273 28.6122 15.5273 28C15.5273 27.3878 16.1904 26.6967 16.8305 26.0285C17.4249 25.4087 18.0396 24.7673 18.3578 24.0036C18.6607 23.2731 18.6735 22.4102 18.6862 21.5753C18.7002 20.6284 18.7155 19.6484 19.1825 19.18C19.6496 18.7116 20.6309 18.6976 21.5778 18.6836C22.4127 18.6709 23.2756 18.6582 24.0062 18.3553C24.7698 18.0396 25.4062 17.4249 26.0311 16.828C26.6967 16.1904 27.3878 15.5273 28 15.5273C28.6122 15.5273 29.3033 16.1904 29.9727 16.8305C30.5913 17.4249 31.2327 18.0396 31.9964 18.3578C32.7269 18.6607 33.5898 18.6735 34.4247 18.6862C35.3716 18.7002 36.3516 18.7155 36.82 19.1825C37.2884 19.6496 37.3024 20.6309 37.3164 21.5778C37.3291 22.4127 37.3418 23.2756 37.6447 24.0062C37.9604 24.7698 38.5751 25.4062 39.172 26.0311C39.8084 26.6993 40.4753 27.3904 40.4753 28.0025C40.4753 28.6147 39.8096 29.3033 39.1695 29.9715ZM26.7273 23.9273C26.7273 23.3735 26.5631 22.8321 26.2554 22.3717C25.9477 21.9112 25.5104 21.5523 24.9988 21.3404C24.4872 21.1285 23.9242 21.073 23.381 21.1811C22.8379 21.2891 22.339 21.5558 21.9474 21.9474C21.5558 22.339 21.2891 22.8379 21.1811 23.381C21.073 23.9242 21.1285 24.4872 21.3404 24.9988C21.5523 25.5104 21.9112 25.9477 22.3717 26.2554C22.8321 26.5631 23.3735 26.7273 23.9273 26.7273C24.6699 26.7273 25.3821 26.4323 25.9072 25.9072C26.4323 25.3821 26.7273 24.6699 26.7273 23.9273ZM22.6545 23.9273C22.6545 23.6756 22.7292 23.4295 22.869 23.2202C23.0089 23.0109 23.2077 22.8478 23.4402 22.7514C23.6728 22.6551 23.9287 22.6299 24.1756 22.679C24.4225 22.7281 24.6492 22.8493 24.8272 23.0273C25.0052 23.2053 25.1264 23.4321 25.1755 23.679C25.2247 23.9259 25.1994 24.1818 25.1031 24.4143C25.0068 24.6469 24.8437 24.8457 24.6344 24.9855C24.4251 25.1254 24.179 25.2 23.9273 25.2C23.5897 25.2 23.266 25.0659 23.0273 24.8272C22.7886 24.5885 22.6545 24.2648 22.6545 23.9273ZM32.0727 29.2727C31.5189 29.2727 30.9776 29.4369 30.5171 29.7446C30.0567 30.0523 29.6978 30.4896 29.4859 31.0012C29.2739 31.5128 29.2185 32.0758 29.3265 32.619C29.4346 33.1621 29.7012 33.661 30.0928 34.0526C30.4844 34.4442 30.9833 34.7109 31.5265 34.8189C32.0696 34.927 32.6326 34.8715 33.1442 34.6596C33.6559 34.4477 34.0932 34.0888 34.4008 33.6283C34.7085 33.1679 34.8727 32.6265 34.8727 32.0727C34.8727 31.3301 34.5777 30.6179 34.0526 30.0928C33.5275 29.5677 32.8153 29.2727 32.0727 29.2727ZM32.0727 33.3455C31.821 33.3455 31.5749 33.2708 31.3656 33.131C31.1563 32.9911 30.9932 32.7923 30.8969 32.5598C30.8006 32.3272 30.7753 32.0713 30.8245 31.8244C30.8736 31.5775 30.9948 31.3508 31.1728 31.1728C31.3508 30.9948 31.5775 30.8736 31.8244 30.8245C32.0713 30.7753 32.3272 30.8006 32.5598 30.8969C32.7923 30.9932 32.9911 31.1563 33.131 31.3656C33.2708 31.5749 33.3455 31.821 33.3455 32.0727C33.3455 32.4103 33.2114 32.734 32.9727 32.9727C32.734 33.2114 32.4103 33.3455 32.0727 33.3455ZM33.6305 23.4487L23.4487 33.6305C23.304 33.7654 23.1125 33.8389 22.9147 33.8354C22.7168 33.8319 22.5281 33.7517 22.3882 33.6118C22.2483 33.4719 22.1681 33.2832 22.1646 33.0853C22.1611 32.8875 22.2346 32.696 22.3695 32.5513L32.5513 22.3695C32.696 22.2346 32.8875 22.1611 33.0853 22.1646C33.2832 22.1681 33.4719 22.2483 33.6118 22.3882C33.7517 22.5281 33.8319 22.7168 33.8354 22.9147C33.8389 23.1125 33.7654 23.304 33.6305 23.4487Z" fill="white"/>
</svg>
