<svg width="12" height="18" viewBox="0 0 12 18" fill="none" xmlns="http://www.w3.org/2000/svg">
<path d="M1.9248 0.904297C2.13544 0.922579 2.33548 1.00348 2.48926 1.1377L10.8213 8.41016L10.8838 8.46973C10.9425 8.53216 10.9903 8.60278 11.0264 8.67871C11.0745 8.78009 11.0996 8.88925 11.0996 9C11.0996 9.11075 11.0745 9.21991 11.0264 9.32129C10.9903 9.39722 10.9425 9.46784 10.8838 9.53027L10.8213 9.58984L2.48926 16.8623C2.40207 16.9384 2.29877 16.9985 2.18652 17.0391C2.07446 17.0795 1.95464 17.0996 1.83398 17.0996C1.71312 17.0996 1.59272 17.0796 1.48047 17.0391C1.36832 16.9985 1.26584 16.9383 1.17871 16.8623C1.11343 16.8053 1.0577 16.7397 1.01367 16.668L0.972656 16.5938C0.924604 16.4925 0.900406 16.3831 0.900391 16.2725L0.904297 16.1895C0.913589 16.1074 0.936685 16.027 0.972656 15.9512L1.01367 15.877C1.05771 15.8051 1.11338 15.7396 1.17871 15.6826L8.83496 9L1.17871 2.31738C1.00246 2.16355 0.900391 1.95177 0.900391 1.72754L0.904297 1.64453C0.926185 1.45154 1.02439 1.27238 1.17871 1.1377L1.24707 1.08398C1.41338 0.964937 1.62076 0.900391 1.83398 0.900391L1.9248 0.904297Z" fill="#373737" stroke="#373737" stroke-width="0.2"/>
</svg>
