<svg width="12" height="18" viewBox="0 0 12 18" fill="none" xmlns="http://www.w3.org/2000/svg">
<path d="M10.0752 17.0957C9.86456 17.0774 9.66452 16.9965 9.51074 16.8623L1.17871 9.58984L1.11621 9.53027C1.05747 9.46784 1.00971 9.39722 0.973633 9.32129C0.925482 9.21991 0.900391 9.11075 0.900391 9C0.900391 8.88925 0.925482 8.78009 0.973633 8.67871C1.00971 8.60278 1.05747 8.53216 1.11621 8.46973L1.17871 8.41016L9.51074 1.1377C9.59793 1.0616 9.70123 1.00152 9.81348 0.960938C9.92554 0.920467 10.0454 0.900423 10.166 0.900391C10.2869 0.900391 10.4073 0.920357 10.5195 0.960938C10.6317 1.00149 10.7342 1.06169 10.8213 1.1377C10.8866 1.19467 10.9423 1.26026 10.9863 1.33203L11.0273 1.40625C11.0754 1.50755 11.0996 1.61689 11.0996 1.72754L11.0957 1.81055C11.0864 1.89256 11.0633 1.97295 11.0273 2.04883L10.9863 2.12305C10.9423 2.19488 10.8866 2.26037 10.8213 2.31738L3.16504 9L10.8213 15.6826C10.9975 15.8364 11.0996 16.0482 11.0996 16.2725L11.0957 16.3555C11.0738 16.5485 10.9756 16.7276 10.8213 16.8623L10.7529 16.916C10.5866 17.0351 10.3792 17.0996 10.166 17.0996L10.0752 17.0957Z" fill="#373737" stroke="#373737" stroke-width="0.2"/>
</svg>
