<svg width="72" height="72" viewBox="0 0 72 72" fill="none" xmlns="http://www.w3.org/2000/svg">
<rect x="0.5" y="0.5" width="71" height="71" rx="35.5" stroke="#B9FEF6"/>
<path fill-rule="evenodd" clip-rule="evenodd" d="M43.5349 25.4291V22.9091C43.5349 22.4028 43.3291 21.9172 42.9627 21.5592C42.5964 21.2011 42.0995 21 41.5814 21H30.4186C29.9005 21 29.4036 21.2011 29.0373 21.5592C28.6709 21.9172 28.4651 22.4028 28.4651 22.9091V25.4291C27.2205 25.625 26.0878 26.2473 25.2697 27.1847C24.4516 28.1221 24.0015 29.3134 24 30.5455V45.8182C24 47.1925 24.5586 48.5105 25.553 49.4823C26.5474 50.4541 27.8961 51 29.3023 51H42.6977C44.1039 51 45.4526 50.4541 46.447 49.4823C47.4414 48.5105 48 47.1925 48 45.8182V30.5455C47.9985 29.3134 47.5484 28.1221 46.7303 27.1847C45.9122 26.2473 44.7795 25.625 43.5349 25.4291ZM46.3256 33.5455H25.6744V42.8182H46.3256V33.5455ZM41.8605 25.3636V22.9091C41.8605 22.8368 41.8311 22.7674 41.7787 22.7162C41.7264 22.6651 41.6554 22.6364 41.5814 22.6364H30.4186C30.3446 22.6364 30.2736 22.6651 30.2213 22.7162C30.1689 22.7674 30.1395 22.8368 30.1395 22.9091V25.3636H41.8605ZM42.6977 27H29.3023C28.3401 27 27.4174 27.3735 26.737 28.0384C26.0566 28.7033 25.6744 29.6051 25.6744 30.5455V31.9091H46.3256V30.5455C46.3256 29.6051 45.9434 28.7033 45.263 28.0384C44.5826 27.3735 43.6599 27 42.6977 27ZM29.3023 49.3636H42.6977C43.1741 49.3636 43.6459 49.2719 44.086 49.0938C44.5262 48.9156 44.9261 48.6544 45.263 48.3252C45.5999 47.996 45.8671 47.6051 46.0494 47.175C46.2317 46.7448 46.3256 46.2838 46.3256 45.8182V44.4545H25.6744V45.8182C25.6744 46.2838 25.7683 46.7448 25.9506 47.175C26.1329 47.6051 26.4001 47.996 26.737 48.3252C27.0739 48.6544 27.4738 48.9156 27.914 49.0938C28.3541 49.2719 28.8259 49.3636 29.3023 49.3636Z" fill="#2D9890"/>
</svg>
