<svg width="32" height="32" viewBox="0 0 32 32" fill="none" xmlns="http://www.w3.org/2000/svg">
<path d="M28.865 26.5C26.9613 23.2087 24.0275 20.8487 20.6038 19.73C22.2973 18.7218 23.6131 17.1856 24.349 15.3572C25.085 13.5289 25.2004 11.5095 24.6776 9.60918C24.1548 7.70887 23.0226 6.03272 21.455 4.83814C19.8873 3.64355 17.9709 2.99658 16 2.99658C14.0291 2.99658 12.1127 3.64355 10.545 4.83814C8.9774 6.03272 7.84525 7.70887 7.32243 9.60918C6.79961 11.5095 6.91504 13.5289 7.65099 15.3572C8.38694 17.1856 9.70271 18.7218 11.3963 19.73C7.9725 20.8475 5.03875 23.2075 3.135 26.5C3.06519 26.6138 3.01888 26.7405 2.99881 26.8725C2.97875 27.0045 2.98532 27.1392 3.01816 27.2687C3.05099 27.3981 3.10942 27.5197 3.18999 27.6262C3.27056 27.7326 3.37165 27.8219 3.48728 27.8887C3.60292 27.9555 3.73076 27.9985 3.86326 28.015C3.99577 28.0316 4.13025 28.0215 4.25878 27.9853C4.38731 27.949 4.50728 27.8874 4.61161 27.8041C4.71595 27.7207 4.80253 27.6173 4.86625 27.5C7.22125 23.43 11.3838 21 16 21C20.6163 21 24.7788 23.43 27.1338 27.5C27.1975 27.6173 27.2841 27.7207 27.3884 27.8041C27.4927 27.8874 27.6127 27.949 27.7412 27.9853C27.8698 28.0215 28.0042 28.0316 28.1367 28.015C28.2692 27.9985 28.3971 27.9555 28.5127 27.8887C28.6284 27.8219 28.7294 27.7326 28.81 27.6262C28.8906 27.5197 28.949 27.3981 28.9818 27.2687C29.0147 27.1392 29.0213 27.0045 29.0012 26.8725C28.9811 26.7405 28.9348 26.6138 28.865 26.5ZM9 12C9 10.6155 9.41055 9.26214 10.1797 8.11099C10.9489 6.95985 12.0421 6.06264 13.3212 5.53283C14.6003 5.00301 16.0078 4.86439 17.3656 5.13449C18.7235 5.40458 19.9708 6.07127 20.9497 7.05023C21.9287 8.0292 22.5954 9.27648 22.8655 10.6344C23.1356 11.9922 22.997 13.3997 22.4672 14.6788C21.9373 15.9578 21.0401 17.0511 19.889 17.8203C18.7379 18.5894 17.3845 19 16 19C14.1441 18.998 12.3648 18.2599 11.0524 16.9475C9.74012 15.6352 9.00199 13.8559 9 12Z" fill="#C2CDD6"/>
</svg>
