<svg width="725" height="93" viewBox="0 0 725 93" fill="none" xmlns="http://www.w3.org/2000/svg">
<path d="M604.601 42.5715C606.196 42.5715 607.49 43.8631 607.49 45.4565C607.49 47.0499 606.196 48.3416 604.601 48.3416H560.184V85.1427H612.7C614.331 85.1427 615.654 86.4633 615.654 88.0921C615.654 89.7209 614.331 91.0413 612.7 91.0413H554.93C554.216 91.0413 553.636 90.4631 553.636 89.7496V2.57389C553.636 1.86052 554.216 1.28223 554.93 1.28223H610.774C612.405 1.28223 613.728 2.60264 613.728 4.23145C613.728 5.86027 612.405 7.18069 610.774 7.18069H560.184V42.5715H604.601Z" fill="#80BA53"/>
<path fill-rule="evenodd" clip-rule="evenodd" d="M2.59213 1.28227C0.725583 1.28227 -0.527771 3.19295 0.219284 4.89955L37.2492 89.4921C37.6612 90.4332 38.5928 91.0413 39.6221 91.0413H52.6661C53.6966 91.0413 54.629 90.4316 55.0402 89.489L91.9487 4.89668C92.6931 3.19042 91.4399 1.28227 89.5745 1.28227H78.53C77.4999 1.28227 76.5675 1.8916 76.1561 2.83392L46.623 70.4746L17.415 2.84335C17.0058 1.89598 16.071 1.28227 15.037 1.28227H2.59213ZM119.703 52.3166V77.0647H167.834C169.264 77.0647 170.423 78.2213 170.423 79.648V88.458C170.423 89.8848 169.264 91.0413 167.834 91.0413H104.306C103.591 91.0413 103.011 90.4632 103.011 89.7496V2.57394C103.011 1.86057 103.591 1.28227 104.306 1.28227H166.036C167.466 1.28227 168.625 2.43887 168.625 3.8656V12.6757C168.625 14.1024 167.466 15.259 166.036 15.259H119.703V38.5963H157.474C158.904 38.5963 160.063 39.7531 160.063 41.1796V49.7333C160.063 51.1601 158.904 52.3166 157.474 52.3166H119.703ZM191.621 1.28227C190.191 1.28227 189.031 2.43887 189.031 3.8656V88.458C189.031 89.8848 190.191 91.0413 191.621 91.0413H203.006C204.436 91.0413 205.596 89.8848 205.596 88.458V30.271L254.382 90.0886C254.874 90.6913 255.611 91.0413 256.391 91.0413H266.308C267.74 91.0413 268.897 89.8848 268.897 88.458V3.8656C268.897 2.43887 267.74 1.28227 266.308 1.28227H254.924C253.494 1.28227 252.334 2.43887 252.334 3.8656V62.0527L203.548 2.23511C203.056 1.63223 202.318 1.28227 201.539 1.28227H191.621ZM315.453 88.9896C321.361 91.2123 327.739 92.3232 334.585 92.3232C342.034 92.3232 348.795 91.0413 354.875 88.4768C360.175 86.2402 364.758 83.126 368.626 79.134C369.584 78.1456 369.499 76.5772 368.502 75.6286L361.42 68.8931C360.366 67.8903 358.696 67.9603 357.648 68.9678C354.88 71.6211 351.858 73.679 348.583 75.1412C344.559 76.8508 340.193 77.7056 335.486 77.7056C330.776 77.7056 326.455 76.9363 322.516 75.3977C318.663 73.8588 315.282 71.679 312.371 68.858C309.547 66.037 307.322 62.7032 305.696 58.8563C304.156 55.0095 303.384 50.778 303.384 46.1618C303.384 41.5457 304.156 37.3142 305.696 33.4673C307.322 29.6205 309.547 26.2867 312.371 23.4656C315.282 20.6446 318.663 18.4647 322.516 16.926C326.455 15.3873 330.776 14.6179 335.486 14.6179C340.193 14.6179 344.559 15.5155 348.583 17.3107C351.863 18.7051 354.888 20.6965 357.658 23.2849C358.707 24.266 360.351 24.3309 361.397 23.3473L368.497 16.68C369.499 15.7393 369.595 14.1745 368.644 13.1806C364.773 9.12358 360.183 6.01229 354.875 3.84682C348.795 1.28227 342.076 0 334.714 0C327.78 0 321.403 1.15405 315.582 3.46213C309.761 5.68475 304.668 8.89044 300.303 13.0792C295.937 17.1824 292.556 22.0551 290.158 27.6972C287.76 33.3392 286.564 39.494 286.564 46.1618C286.564 52.8297 287.76 58.9845 290.158 64.6265C292.556 70.2685 295.893 75.184 300.173 79.3727C304.539 83.476 309.632 86.6817 315.453 88.9896ZM388.867 1.28227C387.435 1.28227 386.277 2.43887 386.277 3.8656V88.458C386.277 89.8848 387.435 91.0413 388.867 91.0413H400.379C401.811 91.0413 402.968 89.8848 402.968 88.458V3.8656C402.968 2.43887 401.811 1.28227 400.379 1.28227H388.867Z" fill="#FDFDFD"/>
<path d="M433.465 91.0413C432.035 91.0413 430.875 89.8847 430.875 88.4579V2.57389C430.875 1.86052 431.455 1.28223 432.17 1.28223H435.65C436.114 1.28223 436.541 1.52789 436.771 1.92686L476.649 70.6683L516.405 1.92835C516.635 1.52854 517.062 1.28223 517.526 1.28223H520.879C521.594 1.28223 522.171 1.8594 522.174 2.57205L522.295 88.4543C522.298 89.8824 521.138 91.0413 519.706 91.0413H518.463C517.037 91.0413 515.877 89.8873 515.874 88.4621L515.755 14.2463L478.876 77.8267C478.415 78.6247 477.56 79.1161 476.636 79.1161H476.408C475.486 79.1161 474.634 78.6263 474.171 77.8298L437.297 14.4655V88.4579C437.297 89.8847 436.137 91.0413 434.708 91.0413H433.465Z" fill="#80BA53"/>
<path fill-rule="evenodd" clip-rule="evenodd" d="M640.827 91.0413C640.11 91.0413 639.533 90.4631 639.533 89.7496V2.57389C639.533 1.86052 640.11 1.28223 640.827 1.28223H675.099C684.602 1.28223 692.947 3.20564 700.138 7.05245C707.328 10.8993 712.892 16.1994 716.831 22.9526C720.854 29.706 722.866 37.4423 722.866 46.1618C722.866 54.8813 720.854 62.6176 716.831 69.371C712.892 76.1241 707.328 81.4243 700.138 85.2711C692.947 89.118 684.602 91.0413 675.099 91.0413H640.827ZM674.586 85.1427H646.081V7.18069H674.586C683.061 7.18069 690.423 8.84764 696.67 12.1815C702.921 15.5155 707.755 20.1316 711.181 26.0301C714.604 31.8432 716.318 38.5536 716.318 46.1618C716.318 53.77 714.604 60.5233 711.181 66.4216C707.755 72.2346 702.921 76.8081 696.67 80.1419C690.423 83.476 683.061 85.1427 674.586 85.1427Z" fill="#80BA53"/>
</svg>
