<svg width="72" height="72" viewBox="0 0 72 72" fill="none" xmlns="http://www.w3.org/2000/svg">
<rect x="0.5" y="0.5" width="71" height="71" rx="35.5" stroke="#B9FEF6"/>
<path d="M47.4418 24.0599C46.122 22.7409 44.3325 22 42.4666 22C40.6007 22 38.8112 22.7409 37.4914 24.0599L23.561 37.9898C22.2415 39.3091 21.5001 41.0985 21.5 42.9643C21.4999 44.8302 22.241 46.6196 23.5603 47.9391C24.8796 49.2585 26.6691 49.9999 28.535 50C30.4009 50.0001 32.1904 49.259 33.5099 47.9398L47.4418 34.0098C48.7598 32.6896 49.5 30.9003 49.5 29.0348C49.5 27.1694 48.7598 25.3801 47.4418 24.0599ZM32.3447 46.7732C31.3276 47.7492 29.9685 48.2877 28.5589 48.2733C27.1494 48.2589 25.8016 47.6927 24.8046 46.6961C23.8077 45.6996 23.241 44.352 23.2261 42.9425C23.2112 41.533 23.7492 40.1738 24.7248 39.1564L31.1095 32.7733L38.7294 40.3915L32.3447 46.7732ZM46.2779 32.8433L39.8932 39.2264L32.2733 31.6081L38.658 25.2264C39.6751 24.2505 41.0342 23.7119 42.4438 23.7264C43.8534 23.7408 45.2011 24.307 46.1981 25.3035C47.195 26.3001 47.7617 27.6476 47.7767 29.0571C47.7916 30.4666 47.2535 31.8259 46.2779 32.8433ZM43.7718 29.9283C43.926 30.0827 44.0126 30.292 44.0126 30.5102C44.0126 30.7284 43.926 30.9377 43.7718 31.0921L40.4779 34.3859C40.3231 34.5383 40.1144 34.6234 39.8972 34.6227C39.6799 34.6219 39.4718 34.5354 39.3181 34.3818C39.1644 34.2283 39.0776 34.0203 39.0766 33.8031C39.0755 33.5858 39.1604 33.377 39.3127 33.2221L42.6066 29.9283C42.6831 29.8517 42.7739 29.791 42.8739 29.7496C42.9738 29.7081 43.081 29.6868 43.1892 29.6868C43.2974 29.6868 43.4046 29.7081 43.5045 29.7496C43.6045 29.791 43.6953 29.8517 43.7718 29.9283Z" fill="#2D9890"/>
</svg>
