<svg width="579" height="784" viewBox="0 0 579 784" fill="none" xmlns="http://www.w3.org/2000/svg">
<g clip-path="url(#clip0_63_99)">
<rect width="579" height="784" rx="24" fill="#247F78"/>
<path opacity="0.7" d="M298.475 548.735C220.886 577.733 51.4679 593.322 37.9328 480.575C20.8929 338.639 119.711 288.232 208.796 267.727C297.881 247.222 379.718 140.252 489.425 196.148C606.084 255.585 517.538 551.667 386.502 558.302C315.652 561.889 298.475 548.735 298.475 548.735Z" fill="#37B3AA"/>
<path d="M411.057 392.539H123.743V400.608H411.057V392.539Z" fill="#F9FBFC"/>
<path d="M411.057 392.539H123.743V400.608H411.057V392.539Z" stroke="#2F497E" stroke-width="0.850123" stroke-miterlimit="10" stroke-linecap="round" stroke-linejoin="round"/>
<path d="M191.28 392.54H215.052V359.14H191.28V392.54Z" fill="#F9FBFC"/>
<path d="M193.569 368.943H210.122V365.113H193.569V368.943Z" fill="#2F497E"/>
<path d="M193.569 368.943H210.122V365.113H193.569V368.943Z" stroke="#2F497E" stroke-width="0.850123" stroke-miterlimit="10" stroke-linecap="round" stroke-linejoin="round"/>
<path d="M191.28 392.54H215.052V359.14H191.28V392.54Z" stroke="#2F497E" stroke-width="0.850123" stroke-miterlimit="10" stroke-linecap="round" stroke-linejoin="round"/>
<path d="M191.28 359.139H215.052V352.535C215.052 351.442 214.165 350.554 213.071 350.554H193.261C192.167 350.554 191.279 351.442 191.279 352.535V359.139H191.28Z" fill="#6194D6"/>
<path d="M191.28 359.139H215.052V352.535C215.052 351.442 214.165 350.554 213.071 350.554H193.261C192.167 350.554 191.279 351.442 191.279 352.535V359.139H191.28Z" stroke="#2F497E" stroke-width="0.850123" stroke-miterlimit="10" stroke-linecap="round" stroke-linejoin="round"/>
<path d="M192.931 350.584V359.139" stroke="#2F497E" stroke-width="0.850123" stroke-miterlimit="10" stroke-linecap="round" stroke-linejoin="round"/>
<path d="M194.792 350.555V359.139" stroke="#2F497E" stroke-width="0.850123" stroke-miterlimit="10" stroke-linecap="round" stroke-linejoin="round"/>
<path d="M196.653 350.555V359.139" stroke="#2F497E" stroke-width="0.850123" stroke-miterlimit="10" stroke-linecap="round" stroke-linejoin="round"/>
<path d="M198.513 350.555V359.139" stroke="#2F497E" stroke-width="0.850123" stroke-miterlimit="10" stroke-linecap="round" stroke-linejoin="round"/>
<path d="M200.374 350.555V359.139" stroke="#2F497E" stroke-width="0.850123" stroke-miterlimit="10" stroke-linecap="round" stroke-linejoin="round"/>
<path d="M202.236 350.555V359.139" stroke="#2F497E" stroke-width="0.850123" stroke-miterlimit="10" stroke-linecap="round" stroke-linejoin="round"/>
<path d="M204.097 350.555V359.139" stroke="#2F497E" stroke-width="0.850123" stroke-miterlimit="10" stroke-linecap="round" stroke-linejoin="round"/>
<path d="M205.957 350.555V359.139" stroke="#2F497E" stroke-width="0.850123" stroke-miterlimit="10" stroke-linecap="round" stroke-linejoin="round"/>
<path d="M207.818 350.555V359.139" stroke="#2F497E" stroke-width="0.850123" stroke-miterlimit="10" stroke-linecap="round" stroke-linejoin="round"/>
<path d="M209.679 350.555V359.139" stroke="#2F497E" stroke-width="0.850123" stroke-miterlimit="10" stroke-linecap="round" stroke-linejoin="round"/>
<path d="M211.54 350.555V359.139" stroke="#2F497E" stroke-width="0.850123" stroke-miterlimit="10" stroke-linecap="round" stroke-linejoin="round"/>
<path d="M213.402 350.584V359.139" stroke="#2F497E" stroke-width="0.850123" stroke-miterlimit="10" stroke-linecap="round" stroke-linejoin="round"/>
<path d="M191.28 392.54H215.052V390.074H191.28V392.54Z" fill="#8AACDD"/>
<path d="M191.28 392.54H215.052V390.074H191.28V392.54Z" stroke="#2F497E" stroke-width="0.850123" stroke-miterlimit="10" stroke-linecap="round" stroke-linejoin="round"/>
<path d="M146.785 392.539H172.669V350.582H146.785V392.539Z" fill="#F9FBFC"/>
<path d="M146.785 392.539H172.669V350.582H146.785V392.539Z" stroke="#2F497E" stroke-width="0.850123" stroke-miterlimit="10" stroke-linecap="round" stroke-linejoin="round"/>
<path d="M172.67 392.539H177.248V350.582H172.67V392.539Z" fill="#6194D6"/>
<path d="M172.67 392.539H177.248V350.582H172.67V392.539Z" stroke="#2F497E" stroke-width="0.850123" stroke-miterlimit="10" stroke-linecap="round" stroke-linejoin="round"/>
<path d="M146.785 392.539H172.669V376.91H146.785V392.539Z" fill="#8AACDD"/>
<path d="M146.785 392.539H172.669V376.91H146.785V392.539Z" stroke="#2F497E" stroke-width="0.850123" stroke-miterlimit="10" stroke-linecap="round" stroke-linejoin="round"/>
<path d="M153.3 363.933C153.3 360.383 156.178 357.506 159.727 357.506C163.277 357.506 166.154 360.384 166.154 363.933C166.154 367.483 163.276 370.36 159.727 370.36C156.177 370.36 153.3 367.482 153.3 363.933Z" fill="#80BA53"/>
<path d="M153.3 363.933C153.3 360.383 156.178 357.506 159.727 357.506C163.277 357.506 166.154 360.384 166.154 363.933C166.154 367.483 163.276 370.36 159.727 370.36C156.177 370.36 153.3 367.482 153.3 363.933Z" stroke="#2F497E" stroke-width="0.850123" stroke-miterlimit="10" stroke-linecap="round" stroke-linejoin="round"/>
<path d="M276.814 392.54H300.585V359.14H276.814V392.54Z" fill="#F9FBFC"/>
<path d="M279.102 368.943H295.654V365.113H279.102V368.943Z" fill="#2F497E"/>
<path d="M279.102 368.943H295.654V365.113H279.102V368.943Z" stroke="#2F497E" stroke-width="0.850123" stroke-miterlimit="10" stroke-linecap="round" stroke-linejoin="round"/>
<path d="M276.814 392.54H300.585V359.14H276.814V392.54Z" stroke="#2F497E" stroke-width="0.850123" stroke-miterlimit="10" stroke-linecap="round" stroke-linejoin="round"/>
<path d="M276.813 359.139H300.585V352.535C300.585 351.442 299.698 350.554 298.603 350.554H278.793C277.699 350.554 276.812 351.442 276.812 352.535V359.139H276.813Z" fill="#6194D6"/>
<path d="M276.813 359.139H300.585V352.535C300.585 351.442 299.698 350.554 298.603 350.554H278.793C277.699 350.554 276.812 351.442 276.812 352.535V359.139H276.813Z" stroke="#2F497E" stroke-width="0.850123" stroke-miterlimit="10" stroke-linecap="round" stroke-linejoin="round"/>
<path d="M278.463 350.584V359.139" stroke="#2F497E" stroke-width="0.850123" stroke-miterlimit="10" stroke-linecap="round" stroke-linejoin="round"/>
<path d="M280.325 350.555V359.139" stroke="#2F497E" stroke-width="0.850123" stroke-miterlimit="10" stroke-linecap="round" stroke-linejoin="round"/>
<path d="M282.186 350.555V359.139" stroke="#2F497E" stroke-width="0.850123" stroke-miterlimit="10" stroke-linecap="round" stroke-linejoin="round"/>
<path d="M284.047 350.555V359.139" stroke="#2F497E" stroke-width="0.850123" stroke-miterlimit="10" stroke-linecap="round" stroke-linejoin="round"/>
<path d="M285.907 350.555V359.139" stroke="#2F497E" stroke-width="0.850123" stroke-miterlimit="10" stroke-linecap="round" stroke-linejoin="round"/>
<path d="M287.768 350.555V359.139" stroke="#2F497E" stroke-width="0.850123" stroke-miterlimit="10" stroke-linecap="round" stroke-linejoin="round"/>
<path d="M289.629 350.555V359.139" stroke="#2F497E" stroke-width="0.850123" stroke-miterlimit="10" stroke-linecap="round" stroke-linejoin="round"/>
<path d="M291.491 350.555V359.139" stroke="#2F497E" stroke-width="0.850123" stroke-miterlimit="10" stroke-linecap="round" stroke-linejoin="round"/>
<path d="M293.352 350.555V359.139" stroke="#2F497E" stroke-width="0.850123" stroke-miterlimit="10" stroke-linecap="round" stroke-linejoin="round"/>
<path d="M295.212 350.555V359.139" stroke="#2F497E" stroke-width="0.850123" stroke-miterlimit="10" stroke-linecap="round" stroke-linejoin="round"/>
<path d="M297.073 350.555V359.139" stroke="#2F497E" stroke-width="0.850123" stroke-miterlimit="10" stroke-linecap="round" stroke-linejoin="round"/>
<path d="M298.934 350.584V359.139" stroke="#2F497E" stroke-width="0.850123" stroke-miterlimit="10" stroke-linecap="round" stroke-linejoin="round"/>
<path d="M276.814 392.54H300.585V390.074H276.814V392.54Z" fill="#8AACDD"/>
<path d="M276.814 392.54H300.585V390.074H276.814V392.54Z" stroke="#2F497E" stroke-width="0.850123" stroke-miterlimit="10" stroke-linecap="round" stroke-linejoin="round"/>
<path d="M232.317 392.539H258.203V350.582H232.317V392.539Z" fill="#F9FBFC"/>
<path d="M232.317 392.539H258.203V350.582H232.317V392.539Z" stroke="#2F497E" stroke-width="0.850123" stroke-miterlimit="10" stroke-linecap="round" stroke-linejoin="round"/>
<path d="M258.203 392.539H262.781V350.582H258.203V392.539Z" fill="#6194D6"/>
<path d="M258.203 392.539H262.781V350.582H258.203V392.539Z" stroke="#2F497E" stroke-width="0.850123" stroke-miterlimit="10" stroke-linecap="round" stroke-linejoin="round"/>
<path d="M232.317 392.539H258.203V376.91H232.317V392.539Z" fill="#8AACDD"/>
<path d="M232.317 392.539H258.203V376.91H232.317V392.539Z" stroke="#2F497E" stroke-width="0.850123" stroke-miterlimit="10" stroke-linecap="round" stroke-linejoin="round"/>
<path d="M238.833 363.933C238.833 360.383 241.711 357.506 245.26 357.506C248.81 357.506 251.687 360.384 251.687 363.933C251.687 367.483 248.809 370.36 245.26 370.36C241.711 370.36 238.833 367.482 238.833 363.933Z" fill="#80BA53"/>
<path d="M238.833 363.933C238.833 360.383 241.711 357.506 245.26 357.506C248.81 357.506 251.687 360.384 251.687 363.933C251.687 367.483 248.809 370.36 245.26 370.36C241.711 370.36 238.833 367.482 238.833 363.933Z" stroke="#2F497E" stroke-width="0.850123" stroke-miterlimit="10" stroke-linecap="round" stroke-linejoin="round"/>
<path d="M362.347 392.54H386.119V359.14H362.347V392.54Z" fill="#F9FBFC"/>
<path d="M364.635 368.943H381.187V365.113H364.635V368.943Z" fill="#2F497E"/>
<path d="M364.635 368.943H381.187V365.113H364.635V368.943Z" stroke="#2F497E" stroke-width="0.850123" stroke-miterlimit="10" stroke-linecap="round" stroke-linejoin="round"/>
<path d="M362.347 392.54H386.119V359.14H362.347V392.54Z" stroke="#2F497E" stroke-width="0.850123" stroke-miterlimit="10" stroke-linecap="round" stroke-linejoin="round"/>
<path d="M362.346 359.139H386.117V352.535C386.117 351.442 385.23 350.554 384.136 350.554H364.326C363.232 350.554 362.344 351.442 362.344 352.535V359.139H362.346Z" fill="#6194D6"/>
<path d="M362.346 359.139H386.117V352.535C386.117 351.442 385.23 350.554 384.136 350.554H364.326C363.232 350.554 362.344 351.442 362.344 352.535V359.139H362.346Z" stroke="#2F497E" stroke-width="0.850123" stroke-miterlimit="10" stroke-linecap="round" stroke-linejoin="round"/>
<path d="M363.997 350.584V359.139" stroke="#2F497E" stroke-width="0.850123" stroke-miterlimit="10" stroke-linecap="round" stroke-linejoin="round"/>
<path d="M365.858 350.555V359.139" stroke="#2F497E" stroke-width="0.850123" stroke-miterlimit="10" stroke-linecap="round" stroke-linejoin="round"/>
<path d="M367.718 350.555V359.139" stroke="#2F497E" stroke-width="0.850123" stroke-miterlimit="10" stroke-linecap="round" stroke-linejoin="round"/>
<path d="M369.58 350.555V359.139" stroke="#2F497E" stroke-width="0.850123" stroke-miterlimit="10" stroke-linecap="round" stroke-linejoin="round"/>
<path d="M371.441 350.555V359.139" stroke="#2F497E" stroke-width="0.850123" stroke-miterlimit="10" stroke-linecap="round" stroke-linejoin="round"/>
<path d="M373.302 350.555V359.139" stroke="#2F497E" stroke-width="0.850123" stroke-miterlimit="10" stroke-linecap="round" stroke-linejoin="round"/>
<path d="M375.162 350.555V359.139" stroke="#2F497E" stroke-width="0.850123" stroke-miterlimit="10" stroke-linecap="round" stroke-linejoin="round"/>
<path d="M377.023 350.555V359.139" stroke="#2F497E" stroke-width="0.850123" stroke-miterlimit="10" stroke-linecap="round" stroke-linejoin="round"/>
<path d="M378.885 350.555V359.139" stroke="#2F497E" stroke-width="0.850123" stroke-miterlimit="10" stroke-linecap="round" stroke-linejoin="round"/>
<path d="M380.746 350.555V359.139" stroke="#2F497E" stroke-width="0.850123" stroke-miterlimit="10" stroke-linecap="round" stroke-linejoin="round"/>
<path d="M382.606 350.555V359.139" stroke="#2F497E" stroke-width="0.850123" stroke-miterlimit="10" stroke-linecap="round" stroke-linejoin="round"/>
<path d="M384.467 350.584V359.139" stroke="#2F497E" stroke-width="0.850123" stroke-miterlimit="10" stroke-linecap="round" stroke-linejoin="round"/>
<path d="M362.347 392.54H386.119V390.074H362.347V392.54Z" fill="#8AACDD"/>
<path d="M362.347 392.54H386.119V390.074H362.347V392.54Z" stroke="#2F497E" stroke-width="0.850123" stroke-miterlimit="10" stroke-linecap="round" stroke-linejoin="round"/>
<path d="M317.852 392.539H343.736V350.582H317.852V392.539Z" fill="#F9FBFC"/>
<path d="M317.852 392.539H343.736V350.582H317.852V392.539Z" stroke="#2F497E" stroke-width="0.850123" stroke-miterlimit="10" stroke-linecap="round" stroke-linejoin="round"/>
<path d="M343.736 392.539H348.314V350.582H343.736V392.539Z" fill="#6194D6"/>
<path d="M343.736 392.539H348.314V350.582H343.736V392.539Z" stroke="#2F497E" stroke-width="0.850123" stroke-miterlimit="10" stroke-linecap="round" stroke-linejoin="round"/>
<path d="M317.852 392.539H343.736V376.91H317.852V392.539Z" fill="#8AACDD"/>
<path d="M317.852 392.539H343.736V376.91H317.852V392.539Z" stroke="#2F497E" stroke-width="0.850123" stroke-miterlimit="10" stroke-linecap="round" stroke-linejoin="round"/>
<path d="M324.365 363.933C324.365 360.383 327.243 357.506 330.792 357.506C334.343 357.506 337.219 360.384 337.219 363.933C337.219 367.483 334.341 370.36 330.792 370.36C327.243 370.36 324.365 367.482 324.365 363.933Z" fill="#80BA53"/>
<path d="M324.365 363.933C324.365 360.383 327.243 357.506 330.792 357.506C334.343 357.506 337.219 360.384 337.219 363.933C337.219 367.483 334.341 370.36 330.792 370.36C327.243 370.36 324.365 367.482 324.365 363.933Z" stroke="#2F497E" stroke-width="0.850123" stroke-miterlimit="10" stroke-linecap="round" stroke-linejoin="round"/>
<path d="M479.241 465.825H54.2484V473.894H479.241V465.825Z" fill="#F9FBFC"/>
<path d="M479.241 465.825H54.2484V473.894H479.241V465.825Z" stroke="#2F497E" stroke-width="0.850123" stroke-miterlimit="10" stroke-linecap="round" stroke-linejoin="round"/>
<path d="M454.697 465.825H466.715V432.426H454.697V465.825Z" fill="#6194D6"/>
<path d="M454.697 465.825H466.715V432.426H454.697V465.825Z" stroke="#2F497E" stroke-width="0.850123" stroke-miterlimit="10" stroke-linecap="round" stroke-linejoin="round"/>
<path d="M419.568 465.825H454.698V432.426H419.568V465.825Z" fill="#F9FBFC"/>
<path d="M419.568 465.825H454.698V432.426H419.568V465.825Z" stroke="#2F497E" stroke-width="0.850123" stroke-miterlimit="10" stroke-linecap="round" stroke-linejoin="round"/>
<path d="M425.334 444.399H448.93V441.934H425.334V444.399Z" fill="#2F497E"/>
<path d="M425.334 444.399H448.93V441.934H425.334V444.399Z" stroke="#2F497E" stroke-width="0.850123" stroke-miterlimit="10" stroke-linecap="round" stroke-linejoin="round"/>
<path d="M425.335 451.59H437.132V450.358H425.335V451.59Z" fill="#2F497E"/>
<path d="M425.335 453.996H437.132V452.764H425.335V453.996Z" fill="#2F497E"/>
<path d="M425.335 456.402H437.132V455.17H425.335V456.402Z" fill="#2F497E"/>
<path d="M425.335 451.59H437.132V450.358H425.335V451.59Z" stroke="#2F497E" stroke-width="0.850123" stroke-miterlimit="10" stroke-linecap="round" stroke-linejoin="round"/>
<path d="M425.335 453.996H437.132V452.764H425.335V453.996Z" stroke="#2F497E" stroke-width="0.850123" stroke-miterlimit="10" stroke-linecap="round" stroke-linejoin="round"/>
<path d="M425.335 456.402H437.132V455.17H425.335V456.402Z" stroke="#2F497E" stroke-width="0.850123" stroke-miterlimit="10" stroke-linecap="round" stroke-linejoin="round"/>
<path d="M398.103 465.825H410.122V432.426H398.103V465.825Z" fill="#6194D6"/>
<path d="M398.103 465.825H410.122V432.426H398.103V465.825Z" stroke="#2F497E" stroke-width="0.850123" stroke-miterlimit="10" stroke-linecap="round" stroke-linejoin="round"/>
<path d="M362.975 465.825H398.105V432.426H362.975V465.825Z" fill="#F9FBFC"/>
<path d="M362.975 465.825H398.105V432.426H362.975V465.825Z" stroke="#2F497E" stroke-width="0.850123" stroke-miterlimit="10" stroke-linecap="round" stroke-linejoin="round"/>
<path d="M368.741 444.399H392.337V441.934H368.741V444.399Z" fill="#2F497E"/>
<path d="M368.741 444.399H392.337V441.934H368.741V444.399Z" stroke="#2F497E" stroke-width="0.850123" stroke-miterlimit="10" stroke-linecap="round" stroke-linejoin="round"/>
<path d="M368.742 451.59H380.539V450.358H368.742V451.59Z" fill="#2F497E"/>
<path d="M368.742 453.996H380.539V452.764H368.742V453.996Z" fill="#2F497E"/>
<path d="M368.742 456.402H380.539V455.17H368.742V456.402Z" fill="#2F497E"/>
<path d="M368.742 451.59H380.539V450.358H368.742V451.59Z" stroke="#2F497E" stroke-width="0.850123" stroke-miterlimit="10" stroke-linecap="round" stroke-linejoin="round"/>
<path d="M368.742 453.996H380.539V452.764H368.742V453.996Z" stroke="#2F497E" stroke-width="0.850123" stroke-miterlimit="10" stroke-linecap="round" stroke-linejoin="round"/>
<path d="M368.742 456.402H380.539V455.17H368.742V456.402Z" stroke="#2F497E" stroke-width="0.850123" stroke-miterlimit="10" stroke-linecap="round" stroke-linejoin="round"/>
<path d="M216.765 438.633H192.993V465.825H216.765V438.633Z" fill="#F9FBFC"/>
<path d="M216.765 438.633H192.993V465.825H216.765V438.633Z" stroke="#2F497E" stroke-width="0.850123" stroke-miterlimit="10" stroke-linecap="round" stroke-linejoin="round"/>
<path d="M202.238 442.264H192.993V461.612H202.238V442.264Z" fill="#8AACDD"/>
<path d="M202.238 442.264H192.993V461.612H202.238V442.264Z" stroke="#2F497E" stroke-width="0.850123" stroke-miterlimit="10" stroke-linecap="round" stroke-linejoin="round"/>
<path d="M216.766 438.633H192.994V432.029C192.994 430.935 193.88 430.047 194.975 430.047H214.786C215.879 430.047 216.767 430.934 216.767 432.029V438.633H216.766Z" fill="#80BA53"/>
<path d="M216.766 438.633H192.994V432.029C192.994 430.935 193.88 430.047 194.975 430.047H214.786C215.879 430.047 216.767 430.934 216.767 432.029V438.633H216.766Z" stroke="#2F497E" stroke-width="0.850123" stroke-miterlimit="10" stroke-linecap="round" stroke-linejoin="round"/>
<path d="M215.114 430.076V438.633" stroke="#2F497E" stroke-width="0.850123" stroke-miterlimit="10" stroke-linecap="round" stroke-linejoin="round"/>
<path d="M213.253 430.049V438.633" stroke="#2F497E" stroke-width="0.850123" stroke-miterlimit="10" stroke-linecap="round" stroke-linejoin="round"/>
<path d="M211.393 430.049V438.633" stroke="#2F497E" stroke-width="0.850123" stroke-miterlimit="10" stroke-linecap="round" stroke-linejoin="round"/>
<path d="M209.532 430.049V438.633" stroke="#2F497E" stroke-width="0.850123" stroke-miterlimit="10" stroke-linecap="round" stroke-linejoin="round"/>
<path d="M207.671 430.049V438.633" stroke="#2F497E" stroke-width="0.850123" stroke-miterlimit="10" stroke-linecap="round" stroke-linejoin="round"/>
<path d="M205.81 430.049V438.633" stroke="#2F497E" stroke-width="0.850123" stroke-miterlimit="10" stroke-linecap="round" stroke-linejoin="round"/>
<path d="M203.948 430.049V438.633" stroke="#2F497E" stroke-width="0.850123" stroke-miterlimit="10" stroke-linecap="round" stroke-linejoin="round"/>
<path d="M202.088 430.049V438.633" stroke="#2F497E" stroke-width="0.850123" stroke-miterlimit="10" stroke-linecap="round" stroke-linejoin="round"/>
<path d="M200.227 430.049V438.633" stroke="#2F497E" stroke-width="0.850123" stroke-miterlimit="10" stroke-linecap="round" stroke-linejoin="round"/>
<path d="M198.366 430.049V438.633" stroke="#2F497E" stroke-width="0.850123" stroke-miterlimit="10" stroke-linecap="round" stroke-linejoin="round"/>
<path d="M196.505 430.049V438.633" stroke="#2F497E" stroke-width="0.850123" stroke-miterlimit="10" stroke-linecap="round" stroke-linejoin="round"/>
<path d="M194.645 430.076V438.633" stroke="#2F497E" stroke-width="0.850123" stroke-miterlimit="10" stroke-linecap="round" stroke-linejoin="round"/>
<path d="M110.321 465.825H78.5109C74.4144 465.825 71.0944 462.505 71.0944 458.409V442.647H117.738V458.41C117.738 462.505 114.417 465.825 110.321 465.825Z" fill="#F9FBFC"/>
<path d="M110.321 465.825H78.5109C74.4144 465.825 71.0944 462.505 71.0944 458.409V442.647H117.738V458.41C117.738 462.505 114.417 465.825 110.321 465.825Z" fill="#F9FBFC"/>
<path d="M110.321 465.825H78.5109C74.4144 465.825 71.0944 462.505 71.0944 458.409V442.647H117.738V458.41C117.738 462.505 114.417 465.825 110.321 465.825Z" stroke="#2F497E" stroke-width="0.850123" stroke-miterlimit="10" stroke-linecap="round" stroke-linejoin="round"/>
<path d="M82.1551 462.053H116.777C117.385 460.976 117.738 459.735 117.738 458.409V447.134H82.1551V462.053Z" fill="#80BA53"/>
<path d="M117.738 447.134H82.1551V451.743H117.738V447.134Z" fill="#2F497E"/>
<path d="M82.1551 462.053H116.777C117.385 460.976 117.738 459.735 117.738 458.409V447.134H82.1551V462.053Z" stroke="#2F497E" stroke-width="0.850123" stroke-miterlimit="10" stroke-linecap="round" stroke-linejoin="round"/>
<path d="M117.738 447.134H82.1551V451.743H117.738V447.134Z" stroke="#2F497E" stroke-width="0.850123" stroke-miterlimit="10" stroke-linecap="round" stroke-linejoin="round"/>
<path d="M117.738 455.85H99.6778V457.423H117.738V455.85Z" fill="#2F497E"/>
<path d="M117.738 455.85H99.6778V457.423H117.738V455.85Z" stroke="#2F497E" stroke-width="0.850123" stroke-miterlimit="10" stroke-linecap="round" stroke-linejoin="round"/>
<path d="M114.693 433.845H74.1378C72.4569 433.845 71.0944 435.207 71.0944 436.888V442.647H117.738V436.888C117.738 435.207 116.374 433.845 114.693 433.845Z" fill="#80BA53"/>
<path d="M91.3897 433.845V442.647" stroke="#2F497E" stroke-width="0.850123" stroke-miterlimit="10" stroke-linecap="round" stroke-linejoin="round"/>
<path d="M88.3621 433.845V442.647" stroke="#2F497E" stroke-width="0.850123" stroke-miterlimit="10" stroke-linecap="round" stroke-linejoin="round"/>
<path d="M85.3357 433.845V442.647" stroke="#2F497E" stroke-width="0.850123" stroke-miterlimit="10" stroke-linecap="round" stroke-linejoin="round"/>
<path d="M82.3092 433.845V442.647" stroke="#2F497E" stroke-width="0.850123" stroke-miterlimit="10" stroke-linecap="round" stroke-linejoin="round"/>
<path d="M79.2828 433.845V442.647" stroke="#2F497E" stroke-width="0.850123" stroke-miterlimit="10" stroke-linecap="round" stroke-linejoin="round"/>
<path d="M76.2564 433.845V442.647" stroke="#2F497E" stroke-width="0.850123" stroke-miterlimit="10" stroke-linecap="round" stroke-linejoin="round"/>
<path d="M73.2299 433.982V442.647" stroke="#2F497E" stroke-width="0.850123" stroke-miterlimit="10" stroke-linecap="round" stroke-linejoin="round"/>
<path d="M100.469 433.845V442.647" stroke="#2F497E" stroke-width="0.850123" stroke-miterlimit="10" stroke-linecap="round" stroke-linejoin="round"/>
<path d="M97.4426 433.845V442.647" stroke="#2F497E" stroke-width="0.850123" stroke-miterlimit="10" stroke-linecap="round" stroke-linejoin="round"/>
<path d="M94.4161 433.845V442.647" stroke="#2F497E" stroke-width="0.850123" stroke-miterlimit="10" stroke-linecap="round" stroke-linejoin="round"/>
<path d="M103.495 433.845V442.647" stroke="#2F497E" stroke-width="0.850123" stroke-miterlimit="10" stroke-linecap="round" stroke-linejoin="round"/>
<path d="M106.523 433.845V442.647" stroke="#2F497E" stroke-width="0.850123" stroke-miterlimit="10" stroke-linecap="round" stroke-linejoin="round"/>
<path d="M109.549 433.845V442.647" stroke="#2F497E" stroke-width="0.850123" stroke-miterlimit="10" stroke-linecap="round" stroke-linejoin="round"/>
<path d="M112.576 433.845V442.647" stroke="#2F497E" stroke-width="0.850123" stroke-miterlimit="10" stroke-linecap="round" stroke-linejoin="round"/>
<path d="M115.602 433.982V442.647" stroke="#2F497E" stroke-width="0.850123" stroke-miterlimit="10" stroke-linecap="round" stroke-linejoin="round"/>
<path d="M114.693 433.845H74.1378C72.4569 433.845 71.0944 435.207 71.0944 436.888V442.647H117.738V436.888C117.738 435.207 116.374 433.845 114.693 433.845Z" stroke="#2F497E" stroke-width="0.850123" stroke-miterlimit="10" stroke-linecap="round" stroke-linejoin="round"/>
<path d="M172.657 465.825H140.848C136.751 465.825 133.431 462.505 133.431 458.409V442.647H180.073V458.41C180.073 462.505 176.752 465.825 172.657 465.825Z" fill="#F9FBFC"/>
<path d="M172.657 465.825H140.848C136.751 465.825 133.431 462.505 133.431 458.409V442.647H180.073V458.41C180.073 462.505 176.752 465.825 172.657 465.825Z" fill="#F9FBFC"/>
<path d="M172.657 465.825H140.848C136.751 465.825 133.431 462.505 133.431 458.409V442.647H180.073V458.41C180.073 462.505 176.752 465.825 172.657 465.825Z" stroke="#2F497E" stroke-width="0.850123" stroke-miterlimit="10" stroke-linecap="round" stroke-linejoin="round"/>
<path d="M144.491 462.053H179.112C179.721 460.976 180.073 459.735 180.073 458.409V447.134H144.491V462.053Z" fill="#80BA53"/>
<path d="M180.073 447.134H144.491V451.743H180.073V447.134Z" fill="#2F497E"/>
<path d="M144.491 462.053H179.112C179.721 460.976 180.073 459.735 180.073 458.409V447.134H144.491V462.053Z" stroke="#2F497E" stroke-width="0.850123" stroke-miterlimit="10" stroke-linecap="round" stroke-linejoin="round"/>
<path d="M180.073 447.134H144.491V451.743H180.073V447.134Z" stroke="#2F497E" stroke-width="0.850123" stroke-miterlimit="10" stroke-linecap="round" stroke-linejoin="round"/>
<path d="M180.072 455.85H162.013V457.423H180.072V455.85Z" fill="#2F497E"/>
<path d="M180.072 455.85H162.013V457.423H180.072V455.85Z" stroke="#2F497E" stroke-width="0.850123" stroke-miterlimit="10" stroke-linecap="round" stroke-linejoin="round"/>
<path d="M177.029 433.845H136.473C134.792 433.845 133.43 435.207 133.43 436.888V442.647H180.072V436.888C180.073 435.207 178.71 433.845 177.029 433.845Z" fill="#80BA53"/>
<path d="M153.725 433.845V442.647" stroke="#2F497E" stroke-width="0.850123" stroke-miterlimit="10" stroke-linecap="round" stroke-linejoin="round"/>
<path d="M150.698 433.845V442.647" stroke="#2F497E" stroke-width="0.850123" stroke-miterlimit="10" stroke-linecap="round" stroke-linejoin="round"/>
<path d="M147.671 433.845V442.647" stroke="#2F497E" stroke-width="0.850123" stroke-miterlimit="10" stroke-linecap="round" stroke-linejoin="round"/>
<path d="M144.645 433.845V442.647" stroke="#2F497E" stroke-width="0.850123" stroke-miterlimit="10" stroke-linecap="round" stroke-linejoin="round"/>
<path d="M141.618 433.845V442.647" stroke="#2F497E" stroke-width="0.850123" stroke-miterlimit="10" stroke-linecap="round" stroke-linejoin="round"/>
<path d="M138.592 433.845V442.647" stroke="#2F497E" stroke-width="0.850123" stroke-miterlimit="10" stroke-linecap="round" stroke-linejoin="round"/>
<path d="M135.565 433.982V442.647" stroke="#2F497E" stroke-width="0.850123" stroke-miterlimit="10" stroke-linecap="round" stroke-linejoin="round"/>
<path d="M162.805 433.845V442.647" stroke="#2F497E" stroke-width="0.850123" stroke-miterlimit="10" stroke-linecap="round" stroke-linejoin="round"/>
<path d="M159.778 433.845V442.647" stroke="#2F497E" stroke-width="0.850123" stroke-miterlimit="10" stroke-linecap="round" stroke-linejoin="round"/>
<path d="M156.752 433.845V442.647" stroke="#2F497E" stroke-width="0.850123" stroke-miterlimit="10" stroke-linecap="round" stroke-linejoin="round"/>
<path d="M165.831 433.845V442.647" stroke="#2F497E" stroke-width="0.850123" stroke-miterlimit="10" stroke-linecap="round" stroke-linejoin="round"/>
<path d="M168.859 433.845V442.647" stroke="#2F497E" stroke-width="0.850123" stroke-miterlimit="10" stroke-linecap="round" stroke-linejoin="round"/>
<path d="M171.885 433.845V442.647" stroke="#2F497E" stroke-width="0.850123" stroke-miterlimit="10" stroke-linecap="round" stroke-linejoin="round"/>
<path d="M174.911 433.845V442.647" stroke="#2F497E" stroke-width="0.850123" stroke-miterlimit="10" stroke-linecap="round" stroke-linejoin="round"/>
<path d="M177.938 433.982V442.647" stroke="#2F497E" stroke-width="0.850123" stroke-miterlimit="10" stroke-linecap="round" stroke-linejoin="round"/>
<path d="M177.029 433.845H136.473C134.792 433.845 133.43 435.207 133.43 436.888V442.647H180.072V436.888C180.073 435.207 178.71 433.845 177.029 433.845Z" stroke="#2F497E" stroke-width="0.850123" stroke-miterlimit="10" stroke-linecap="round" stroke-linejoin="round"/>
<path d="M235.937 247.066C235.937 210.026 205.91 180 168.871 180C131.832 180 101.805 210.026 101.805 247.066C101.805 284.105 131.832 314.132 168.871 314.132H223.429L210.74 299.44C226.093 287.15 235.937 268.262 235.937 247.066Z" fill="#F9FBFC"/>
<path d="M235.937 247.066C235.937 210.026 205.91 180 168.871 180C131.832 180 101.805 210.026 101.805 247.066C101.805 284.105 131.832 314.132 168.871 314.132H223.429L210.74 299.44C226.093 287.15 235.937 268.262 235.937 247.066Z" stroke="#2F497E" stroke-width="0.850123" stroke-miterlimit="10" stroke-linecap="round" stroke-linejoin="round"/>
<path d="M194.599 236.472H179.465V221.338C179.465 215.486 174.722 210.744 168.871 210.744C163.02 210.744 158.277 215.486 158.277 221.338V236.472H143.143C137.292 236.472 132.549 241.215 132.549 247.066C132.549 252.917 137.292 257.659 143.143 257.659H158.277V272.794C158.277 278.645 163.02 283.387 168.871 283.387C174.722 283.387 179.465 278.644 179.465 272.794V257.659H194.599C200.45 257.659 205.193 252.917 205.193 247.066C205.193 241.215 200.449 236.472 194.599 236.472Z" fill="#80BA53"/>
<path d="M194.599 236.472H179.465V221.338C179.465 215.486 174.722 210.744 168.871 210.744C163.02 210.744 158.277 215.486 158.277 221.338V236.472H143.143C137.292 236.472 132.549 241.215 132.549 247.066C132.549 252.917 137.292 257.659 143.143 257.659H158.277V272.794C158.277 278.645 163.02 283.387 168.871 283.387C174.722 283.387 179.465 278.644 179.465 272.794V257.659H194.599C200.45 257.659 205.193 252.917 205.193 247.066C205.193 241.215 200.449 236.472 194.599 236.472Z" stroke="#2F497E" stroke-width="0.850123" stroke-miterlimit="10" stroke-linecap="round" stroke-linejoin="round"/>
<path d="M450.149 325.054C477.683 318.443 494.644 290.762 488.032 263.229C481.42 235.695 453.74 218.734 426.207 225.346C398.673 231.957 381.712 259.638 388.324 287.171C394.935 314.705 422.616 331.666 450.149 325.054Z" fill="#80BA53"/>
<path d="M450.149 325.054C477.683 318.443 494.644 290.762 488.032 263.229C481.42 235.695 453.74 218.734 426.207 225.346C398.673 231.957 381.712 259.638 388.324 287.171C394.935 314.705 422.616 331.666 450.149 325.054Z" stroke="#2F497E" stroke-width="0.850123" stroke-miterlimit="10" stroke-linecap="round" stroke-linejoin="round"/>
<path d="M438.159 318.589C414.234 318.589 394.771 299.125 394.771 275.201C394.771 251.278 414.234 231.813 438.159 231.813C462.082 231.813 481.545 251.277 481.545 275.201C481.545 299.126 462.081 318.589 438.159 318.589Z" fill="#F9FBFC"/>
<path d="M438.159 318.589C414.234 318.589 394.771 299.125 394.771 275.201C394.771 251.278 414.234 231.813 438.159 231.813C462.082 231.813 481.545 251.277 481.545 275.201C481.545 299.126 462.081 318.589 438.159 318.589Z" stroke="#2F497E" stroke-width="0.850123" stroke-miterlimit="10" stroke-linecap="round" stroke-linejoin="round"/>
<path d="M438.157 246.795L435.663 276.6C435.607 277.261 436.128 277.828 436.792 277.828H438.157H439.523C440.186 277.828 440.708 277.261 440.652 276.6L438.157 246.795Z" fill="#2F497E"/>
<path d="M430.58 288.326L440.908 275.254C441.337 274.711 441.184 273.915 440.585 273.569L439.471 272.925L438.357 272.282C437.758 271.936 436.992 272.202 436.737 272.844L430.58 288.326Z" fill="#2F497E"/>
<path d="M438.157 235.97V242.552" stroke="#2F497E" stroke-width="0.850123" stroke-miterlimit="10" stroke-linecap="round" stroke-linejoin="round"/>
<path d="M418.542 241.226L421.833 246.926" stroke="#2F497E" stroke-width="0.850123" stroke-miterlimit="10" stroke-linecap="round" stroke-linejoin="round"/>
<path d="M404.182 255.585L409.882 258.877" stroke="#2F497E" stroke-width="0.850123" stroke-miterlimit="10" stroke-linecap="round" stroke-linejoin="round"/>
<path d="M398.927 275.201H405.508" stroke="#2F497E" stroke-width="0.850123" stroke-miterlimit="10" stroke-linecap="round" stroke-linejoin="round"/>
<path d="M404.183 294.817L409.882 291.526" stroke="#2F497E" stroke-width="0.850123" stroke-miterlimit="10" stroke-linecap="round" stroke-linejoin="round"/>
<path d="M418.542 309.177L421.833 303.477" stroke="#2F497E" stroke-width="0.850123" stroke-miterlimit="10" stroke-linecap="round" stroke-linejoin="round"/>
<path d="M438.157 314.432V307.851" stroke="#2F497E" stroke-width="0.850123" stroke-miterlimit="10" stroke-linecap="round" stroke-linejoin="round"/>
<path d="M457.774 309.176L454.482 303.477" stroke="#2F497E" stroke-width="0.850123" stroke-miterlimit="10" stroke-linecap="round" stroke-linejoin="round"/>
<path d="M472.133 294.817L466.433 291.525" stroke="#2F497E" stroke-width="0.850123" stroke-miterlimit="10" stroke-linecap="round" stroke-linejoin="round"/>
<path d="M477.389 275.201H470.807" stroke="#2F497E" stroke-width="0.850123" stroke-miterlimit="10" stroke-linecap="round" stroke-linejoin="round"/>
<path d="M472.133 255.585L466.433 258.876" stroke="#2F497E" stroke-width="0.850123" stroke-miterlimit="10" stroke-linecap="round" stroke-linejoin="round"/>
<path d="M457.773 241.226L454.482 246.925" stroke="#2F497E" stroke-width="0.850123" stroke-miterlimit="10" stroke-linecap="round" stroke-linejoin="round"/>
<path d="M298.475 402.253C268.422 401.82 206.537 409.129 182.322 460.248C158.107 511.368 153.923 555.313 187.106 571.157C220.289 587.001 310.27 558.9 310.27 558.9C310.27 558.9 372.151 579.228 398.459 569.064C424.766 558.9 422.674 509.635 417.292 489.126C411.912 468.618 402.372 403.747 298.475 402.253Z" fill="#F9FBFC"/>
<path d="M214.36 483.283L224.263 528.582L210.362 531.882L214.36 483.283Z" fill="#D0E0FC"/>
<path d="M212.144 529.378L217.31 421.922C203.12 430.59 190.547 442.887 182.325 460.247C158.11 511.367 153.925 555.311 187.108 571.155C220.291 586.999 310.273 558.899 310.273 558.899C310.273 558.899 319 561.766 331.291 564.808C332.132 564.259 332.658 563.935 332.769 563.907C333.666 563.682 363.261 546.195 363.261 546.195L320.214 522.279L212.144 529.378Z" fill="#F9FBFC"/>
<path d="M320.211 522.279L212.144 529.378L214.36 483.283" stroke="#2F497E" stroke-width="0.850123" stroke-miterlimit="10" stroke-linecap="round" stroke-linejoin="round"/>
<path d="M300.407 476.914V526.464" stroke="#2F497E" stroke-width="0.850123" stroke-miterlimit="10" stroke-linecap="round" stroke-linejoin="round"/>
<path d="M398.46 569.063C424.767 558.899 422.675 509.634 417.293 489.125C413.301 473.909 407.004 434.275 361.587 414.221L366.621 523.324L279.479 508.676L267.67 542.756C267.67 542.756 290.54 553.219 310.27 558.899C310.27 558.899 372.153 579.227 398.46 569.063Z" fill="#F9FBFC"/>
<path d="M355.579 521.469C355.579 521.469 359.536 526.726 361.254 528.968C362.972 531.21 365.533 531.065 365.505 528.716C365.505 528.716 368.279 532.853 370.147 532.331C372.015 531.808 372.227 531.023 372.227 531.023L373.32 530C375.379 531.285 377.97 529.79 377.683 528.257L378.621 525.523C378.621 525.523 381.689 526.375 381.58 522.565L374.033 515.588L355.579 521.469Z" fill="#D0E0FC"/>
<path d="M329.594 517.101C329.594 517.101 348.162 504.492 362.138 507.257C376.114 510.022 384.076 520.137 382.223 522.129C380.971 523.475 378.356 522.354 376.861 520.709C376.861 520.709 380.449 527.66 377.683 528.257C374.917 528.854 372.003 523.698 372.003 523.698C372.003 523.698 375.142 530.349 372.227 531.023C369.313 531.695 366.248 524.147 363.259 522.279C363.259 522.279 367.146 528.109 365.052 529.155C362.96 530.201 360.219 523.553 357.74 521.832L329.594 517.101Z" fill="#F9B7B8"/>
<path d="M351.158 507.629C354.864 506.835 358.645 506.565 362.139 507.257C376.115 510.022 384.077 520.137 382.224 522.129C380.972 523.475 378.357 522.354 376.862 520.709C376.862 520.709 380.45 527.66 377.684 528.257C374.918 528.854 372.004 523.698 372.004 523.698C372.004 523.698 375.143 530.35 372.229 531.023C369.314 531.695 366.249 524.147 363.26 522.279C363.26 522.279 367.147 528.109 365.054 529.155C362.961 530.201 360.22 523.553 357.741 521.832" stroke="#2F497E" stroke-width="0.850123" stroke-miterlimit="10" stroke-linecap="round" stroke-linejoin="round"/>
<path d="M376.861 520.709C376.861 520.709 374.022 516.43 368.135 513.067" stroke="#2F497E" stroke-width="0.850123" stroke-miterlimit="10" stroke-linecap="round" stroke-linejoin="round"/>
<path d="M372.004 523.698C372.004 523.698 368.697 518.84 365.11 516.655" stroke="#2F497E" stroke-width="0.850123" stroke-miterlimit="10" stroke-linecap="round" stroke-linejoin="round"/>
<path d="M363.259 522.279C363.259 522.279 362.764 521.653 361.774 520.998" stroke="#2F497E" stroke-width="0.850123" stroke-miterlimit="10" stroke-linecap="round" stroke-linejoin="round"/>
<path d="M268.807 539.481L255.976 534.087L265.841 506.86C265.841 506.86 267.727 506.7 279.48 508.676L268.807 539.481Z" fill="#F16880"/>
<path d="M172.069 559.138C175.801 564.07 180.767 568.13 187.106 571.157C220.289 587.001 310.27 558.9 310.27 558.9L297.456 543.992C250.528 560.24 190.464 559.738 172.069 559.138Z" fill="#D0E0FC"/>
<path d="M270.779 533.787C270.779 533.787 262.877 531.147 257.81 529.024L255.976 534.087L268.807 539.481L270.779 533.787Z" fill="#CC5670"/>
<path d="M268.807 539.481L255.976 534.087L265.841 506.86C265.841 506.86 267.727 506.7 279.48 508.676L268.807 539.481Z" stroke="#2F497E" stroke-width="0.850123" stroke-miterlimit="10" stroke-linecap="round" stroke-linejoin="round"/>
<path d="M417.294 489.126C415.228 481.25 412.529 466.832 404.122 451.973C408.351 477.389 404.403 515.999 401.53 537.61C400.242 547.294 391.839 554.382 382.072 554.128C333.845 552.874 270.78 533.787 270.78 533.787L267.672 542.756C267.672 542.756 290.542 553.219 310.273 558.899C310.273 558.899 372.154 579.227 398.461 569.063C424.767 558.899 422.675 509.634 417.294 489.126Z" fill="#D0E0FC"/>
<path d="M237.478 485.658V468.169H270.661" stroke="#2F497E" stroke-width="0.850123" stroke-miterlimit="10" stroke-linecap="round" stroke-linejoin="round"/>
<path d="M245.213 468.169H241.514V451.746C241.514 450.725 242.342 449.896 243.363 449.896C244.385 449.896 245.213 450.725 245.213 451.746V468.169Z" fill="#B7CFFC" stroke="#2F497E" stroke-width="0.809658" stroke-miterlimit="10" stroke-linecap="round" stroke-linejoin="round"/>
<path d="M357.741 521.832L279.48 508.677L267.671 542.757C267.671 542.757 290.541 553.22 310.272 558.9" stroke="#2F497E" stroke-width="0.850123" stroke-miterlimit="10" stroke-linecap="round" stroke-linejoin="round"/>
<path d="M364.125 469.214L365.925 508.222" stroke="#2F497E" stroke-width="0.850123" stroke-miterlimit="10" stroke-linecap="round" stroke-linejoin="round"/>
<path d="M266.744 408.942L254.07 422.618L269.74 435.062L263.747 451.973L300.407 476.914L266.744 408.942Z" fill="#D0E0FC"/>
<path d="M333.024 405.554C322.85 403.612 311.399 402.439 298.475 402.253C290.17 402.134 279.43 402.618 267.731 404.446L277.713 445.301L300.407 476.914L323.575 449.897C323.575 449.897 332.145 406.87 333.024 405.554Z" fill="#F16880"/>
<path d="M267.728 404.433L300.407 476.914L263.225 445.898L267.672 429.008L254.07 419.143L267.728 404.433Z" fill="#F9FBFC"/>
<path d="M267.728 404.433L300.407 476.914L263.225 445.898L267.672 429.008L254.07 419.143L267.728 404.433Z" stroke="#2F497E" stroke-width="0.850123" stroke-miterlimit="10" stroke-linecap="round" stroke-linejoin="round"/>
<path d="M334.068 408.942L346.024 423.275L331.074 435.062L336.517 452.213L300.407 476.914L334.068 408.942Z" fill="#D0E0FC"/>
<path d="M333.029 405.542L300.407 476.914L337.588 445.898L333.141 429.008L346.743 419.143L333.029 405.542Z" fill="#F9FBFC"/>
<path d="M333.029 405.542L300.407 476.914L337.588 445.898L333.141 429.008L346.743 419.143L333.029 405.542Z" stroke="#2F497E" stroke-width="0.850123" stroke-miterlimit="10" stroke-linecap="round" stroke-linejoin="round"/>
<path d="M310.122 494.066C310.122 493.013 309.268 492.161 308.217 492.161C307.163 492.161 306.311 493.014 306.311 494.066C306.311 495.118 307.165 495.972 308.217 495.972C309.268 495.972 310.122 495.118 310.122 494.066Z" stroke="#2F497E" stroke-width="0.850123" stroke-miterlimit="10" stroke-linecap="round" stroke-linejoin="round"/>
<path d="M298.475 402.253C268.422 401.82 206.537 409.129 182.322 460.248C158.107 511.368 153.923 555.313 187.106 571.157C220.289 587.001 310.27 558.9 310.27 558.9C310.27 558.9 372.151 579.228 398.459 569.064C424.766 558.9 422.674 509.635 417.292 489.126C411.912 468.618 402.372 403.747 298.475 402.253Z" stroke="#2F497E" stroke-width="0.850123" stroke-miterlimit="10" stroke-linecap="round" stroke-linejoin="round"/>
<path d="M238.826 527.626C238.826 527.626 241.962 504.522 265.841 506.86L258.738 526.464L238.826 527.626Z" fill="#F9B7B8"/>
<path d="M238.826 527.626C238.826 527.626 241.962 504.522 265.841 506.86L258.738 526.464L238.826 527.626Z" stroke="#2F497E" stroke-width="0.850123" stroke-miterlimit="10" stroke-linecap="round" stroke-linejoin="round"/>
<path d="M259.919 343.883C259.919 343.883 252.508 321.761 255.498 307.861C258.487 293.96 268.353 271.988 292.119 273.184C315.885 274.38 329.487 286.337 332.625 303.526C332.625 303.526 342.042 302.929 346.078 313.69C350.114 324.453 348.32 355.543 318.724 385.885L259.919 343.883Z" fill="#2F497E"/>
<path d="M265.352 337.904C265.352 337.904 261.439 332.971 256.506 337.904C251.573 342.837 258.474 368.246 268.103 363.089C277.731 357.934 265.352 337.904 265.352 337.904Z" fill="#F9B7B8"/>
<path d="M285.609 402.42V382.485C285.609 382.485 269.698 382.485 264.093 360.961C258.488 339.437 265.663 318.249 265.663 318.249C265.663 318.249 279.339 327.105 294.473 325.984C309.607 324.863 316.67 323.406 316.67 323.406C316.67 323.406 316.333 344.37 320.258 344.593C324.181 344.817 326.424 334.504 333.373 337.755C340.324 341.005 338.322 357.092 331.68 363.776C327.196 368.289 319.472 365.258 319.472 365.258V403.747C319.472 403.747 298.978 412.751 285.609 402.42Z" fill="#F9B7B8"/>
<path d="M285.609 387.193C285.609 387.193 297.228 385.337 300.002 380.804C300.002 380.804 293.955 383.466 285.609 382.486V387.193Z" fill="#E09DA3"/>
<path d="M319.472 403.747C319.472 403.747 298.98 412.751 285.609 402.42V382.485C285.609 382.485 269.698 382.485 264.093 360.961C262.516 354.907 261.95 348.879 261.953 343.343" stroke="#2F497E" stroke-width="0.850123" stroke-miterlimit="10" stroke-linecap="round" stroke-linejoin="round"/>
<path d="M333.132 352.168C333.567 349.9 333.654 347.561 333.293 345.521C332.958 343.639 332.253 342.236 331.452 341.861C331.041 341.67 330.829 341.664 330.775 341.654C328.972 341.341 328.188 342.042 328.188 342.042" stroke="#2F497E" stroke-width="0.850123" stroke-miterlimit="10" stroke-linecap="round" stroke-linejoin="round"/>
<path d="M330.066 346.912L333.293 345.521" stroke="#2F497E" stroke-width="0.850123" stroke-miterlimit="10" stroke-linecap="round" stroke-linejoin="round"/>
<path d="M266.771 336.457L285.87 335.749C286.764 335.717 287.517 336.415 287.549 337.309L287.718 341.879C287.834 345.006 282.82 348.259 274.256 348.575C268.629 348.784 264.033 346.387 263.899 342.76C263.854 341.524 263.839 340.409 263.841 339.478C263.843 337.845 265.139 336.517 266.771 336.457Z" stroke="#F16880" stroke-width="1.70025" stroke-miterlimit="10"/>
<path d="M316.956 334.6L297.859 335.307C296.964 335.34 296.266 336.093 296.299 336.987L296.468 341.556C296.583 344.683 301.824 347.556 310.388 347.239C316.015 347.03 320.421 344.301 320.287 340.675C320.242 339.438 320.173 338.325 320.102 337.396C319.978 335.768 318.588 334.539 316.956 334.6Z" stroke="#F16880" stroke-width="1.70025" stroke-miterlimit="10"/>
<path d="M287.563 337.691C287.563 337.691 292.18 335.361 296.311 337.367" stroke="#F16880" stroke-width="1.70025" stroke-miterlimit="10"/>
<path d="M291.053 338.64C291.053 338.64 287.522 345.406 292.846 345.779" stroke="#2F497E" stroke-width="0.850123" stroke-miterlimit="10" stroke-linecap="round" stroke-linejoin="round"/>
<path d="M278.485 339.796C278.485 338.743 277.631 337.891 276.579 337.891C275.528 337.891 274.674 338.744 274.674 339.796C274.674 340.848 275.528 341.701 276.579 341.701C277.632 341.703 278.485 340.849 278.485 339.796Z" fill="#2F497E"/>
<path d="M306.929 339.796C306.929 338.743 306.075 337.891 305.023 337.891C303.97 337.891 303.118 338.744 303.118 339.796C303.118 340.848 303.972 341.701 305.023 341.701C306.075 341.703 306.929 340.849 306.929 339.796Z" fill="#2F497E"/>
<path d="M283.252 361.474C282.321 365.772 291.451 371.83 300.409 369.583C309.367 367.337 311.054 358.856 308.105 356.341C305.158 353.826 300.682 358.186 294.879 358.625C289.075 359.063 284.119 357.475 283.252 361.474Z" fill="#2F497E"/>
<path d="M285.609 392.05V402.42C298.98 412.751 319.472 403.747 319.472 403.747V392.051H285.609V392.05Z" fill="#F16880"/>
<path d="M285.609 392.05V402.42C298.98 412.751 319.472 403.747 319.472 403.747V392.051H285.609V392.05Z" stroke="#2F497E" stroke-width="0.850123" stroke-miterlimit="10" stroke-linecap="round" stroke-linejoin="round"/>
<path d="M285.609 382.485C285.609 382.485 295.257 383.269 300.002 380.803" stroke="#2F497E" stroke-width="0.850123" stroke-miterlimit="10" stroke-linecap="round" stroke-linejoin="round"/>
<path d="M291.937 328.451C310.209 328.675 316.669 323.406 316.669 323.406C316.669 323.406 309.606 324.863 294.473 325.984C279.338 327.105 265.662 318.249 265.662 318.249C265.662 318.249 273.666 328.226 291.937 328.451Z" fill="#E09DA3"/>
<path opacity="0.2" d="M92.7922 659.792H48.2078V615.208C48.2078 597.971 34.2367 584 17 584C-0.236748 584 -14.2078 597.971 -14.2078 615.208V659.792H-58.7922C-76.029 659.792 -90 673.763 -90 691C-90 708.237 -76.029 722.208 -58.7922 722.208H-14.2078V766.792C-14.2078 784.029 -0.236748 798 17 798C34.2367 798 48.2078 784.026 48.2078 766.792V722.208H92.7922C110.029 722.208 124 708.237 124 691C124 673.763 110.026 659.792 92.7922 659.792Z" fill="white"/>
</g>
<defs>
<clipPath id="clip0_63_99">
<rect width="579" height="784" rx="24" fill="white"/>
</clipPath>
</defs>
</svg>
