<svg width="230" height="44" viewBox="0 0 230 44" fill="none" xmlns="http://www.w3.org/2000/svg">
<g clip-path="url(#clip0_308_2868)">
<mask id="mask0_308_2868" style="mask-type:luminance" maskUnits="userSpaceOnUse" x="0" y="0" width="44" height="44">
<path d="M43.5331 0H0V44H43.5331V0Z" fill="white"/>
</mask>
<g mask="url(#mask0_308_2868)">
<path d="M27.5864 27.8333C30.5845 27.8333 33.015 25.312 33.015 22.2016C33.015 19.0913 30.5845 16.5698 27.5864 16.5698H22.1579V27.8333H27.5864Z" fill="#80BA53"/>
<path fill-rule="evenodd" clip-rule="evenodd" d="M2.3924 21.9199C2.3924 32.9618 11.2417 41.9127 22.1578 41.9127V27.8333H16.7293C13.7312 27.8333 11.3008 25.312 11.3008 22.2016C11.3008 19.0913 13.7312 16.5698 16.7293 16.5698H22.1578V1.92712C11.2417 1.92712 2.3924 10.8782 2.3924 21.9199Z" fill="#247F78"/>
<path d="M27.7367 15.4137C27.7457 15.4153 27.7527 15.4099 27.7539 15.4006C27.778 15.2137 27.9724 13.4075 26.5852 12.4887C25.8865 12.026 25.1327 11.0064 25.1327 11.0064C25.1327 11.0064 24.3141 12.8927 24.8809 13.971C25.4132 14.9839 27.5366 15.3786 27.7367 15.4137Z" fill="#247F78"/>
<path d="M28.787 15.8046C28.7684 15.815 28.747 15.8056 28.7413 15.7849C28.6445 15.4335 27.9581 12.792 28.7522 11.3769C29.4551 10.1246 31.6987 9.15344 31.6987 9.15344C31.6987 9.15344 32.5073 11.6802 31.6987 13.2298C31.0268 14.5178 29.0723 15.645 28.787 15.8046Z" fill="#247F78"/>
<path d="M21.5404 40.0396C21.4349 40.0872 21.2955 40.2723 21.2717 40.3956C21.2615 40.4571 21.2546 41.1869 21.2615 42.0192C21.2717 43.4854 21.275 43.5334 21.343 43.6294C21.5471 43.9102 21.9826 43.9102 22.1867 43.6294C22.2548 43.5334 22.2582 43.4854 22.2684 42.0022C22.2753 41.0123 22.2684 40.4265 22.2447 40.3512C22.2242 40.2825 22.1629 40.1832 22.1052 40.1283C22.0201 40.0462 21.9691 40.0291 21.8091 40.0189C21.7003 40.0152 21.5813 40.0222 21.5404 40.0396Z" fill="#BABABA"/>
<path d="M21.5301 0.0616596C21.4655 0.092488 21.3804 0.16442 21.3429 0.2158C21.2749 0.311712 21.2716 0.359668 21.2614 1.81888C21.2545 2.76771 21.2647 3.37058 21.2852 3.4528C21.3056 3.52473 21.3702 3.62748 21.4246 3.68229C21.5233 3.77476 21.5539 3.78505 21.7649 3.78505C21.9758 3.78505 22.0063 3.77476 22.1051 3.68229C22.1629 3.62748 22.2241 3.52816 22.2446 3.45964C22.2683 3.38429 22.2752 2.80539 22.2683 1.82573C22.2581 0.359668 22.2548 0.311712 22.1866 0.2158C22.0982 0.0924866 21.9179 0 21.7649 0C21.7002 0 21.5948 0.0274056 21.5301 0.0616596Z" fill="#BABABA"/>
<path d="M10.9904 2.88083C10.7353 2.95618 10.572 3.25418 10.6536 3.49396C10.7047 3.64468 11.9668 5.9157 12.0961 6.09384C12.2628 6.31992 12.5724 6.35759 12.7867 6.17603C12.9943 6.00134 13.0385 5.78555 12.9194 5.54919C12.8445 5.40192 11.5994 3.18225 11.5211 3.05551C11.4701 2.97331 11.232 2.83971 11.1469 2.84657C11.1197 2.84657 11.0517 2.86369 10.9904 2.88083Z" fill="#BABABA"/>
<path d="M32.182 2.90133C32.0494 2.96641 32.0119 3.02465 31.192 4.55923C30.6578 5.56287 30.5763 5.73414 30.5763 5.86429C30.5763 6.25821 31.0696 6.52538 31.3518 6.2856C31.4369 6.21367 32.4134 4.4496 32.8182 3.6412C32.9271 3.41856 32.9135 3.21646 32.7807 3.06233C32.5971 2.85337 32.393 2.79514 32.182 2.90133Z" fill="#BABABA"/>
<path d="M40.0577 10.7284C39.9696 10.7592 37.6968 12.1122 37.4588 12.2732C37.3159 12.3726 37.2444 12.5027 37.2444 12.674C37.2444 12.9583 37.4211 13.157 37.6935 13.1775L37.8735 13.1947L39.1664 12.4205C39.8876 11.9855 40.5068 11.5916 40.5714 11.5265C40.7858 11.2935 40.6973 10.8894 40.3947 10.7523C40.238 10.6804 40.1938 10.677 40.0577 10.7284Z" fill="#BABABA"/>
<path d="M3.08403 10.7764C2.96835 10.8518 2.85948 11.0196 2.83227 11.1738C2.79825 11.3519 2.89011 11.5198 3.08403 11.6396C3.61815 11.9685 5.6832 13.092 5.78187 13.1057C6.18332 13.1742 6.4997 12.5987 6.22755 12.2973C6.14929 12.2151 4.25433 11.1258 3.63177 10.8073C3.43784 10.7079 3.21671 10.6977 3.08403 10.7764Z" fill="#BABABA"/>
<path d="M0.30797 21.4463C-0.110485 21.5695 -0.100279 22.2822 0.324981 22.402C0.403229 22.4226 1.02241 22.4362 1.91375 22.4362C3.23716 22.4362 3.38684 22.4293 3.49571 22.3745C3.83592 22.2032 3.86313 21.6999 3.53995 21.4875C3.45489 21.4291 3.32901 21.4258 1.93076 21.4188C1.07004 21.4155 0.369208 21.4258 0.30797 21.4463Z" fill="#BABABA"/>
<path d="M39.9761 21.4739C39.8063 21.5526 39.7142 21.7067 39.7142 21.9225C39.7142 22.1452 39.8063 22.2925 39.9866 22.3712C40.1259 22.4363 40.2112 22.4398 41.6804 22.4296C43.1845 22.4193 43.2284 22.4157 43.3238 22.3473C43.6028 22.1418 43.6028 21.7033 43.3238 21.4978C43.2284 21.4294 43.1845 21.4258 41.6739 21.4191C40.2043 21.4088 40.1121 21.4122 39.9761 21.4739Z" fill="#BABABA"/>
<path d="M4.35976 31.428C3.64193 31.8596 3.02275 32.2535 2.9615 32.3186C2.73357 32.5618 2.84244 32.9832 3.16904 33.1064C3.2915 33.1544 3.34254 33.1578 3.43781 33.1269C3.54326 33.0927 5.77843 31.7705 6.07101 31.5718C6.47246 31.2978 6.27514 30.6572 5.78862 30.6572C5.66956 30.6572 5.47903 30.7601 4.35976 31.428Z" fill="#BABABA"/>
<path d="M37.547 30.8012C37.2952 30.945 37.2034 31.2909 37.3565 31.5136C37.4142 31.6026 37.7273 31.7978 38.7039 32.3597C39.4047 32.7604 40.0342 33.1064 40.1056 33.1269C40.2145 33.1612 40.2518 33.1578 40.3879 33.0927C40.7789 32.9008 40.8029 32.4248 40.4354 32.1952C40.143 32.0102 38.1082 30.8491 37.9758 30.7909C37.7987 30.7086 37.6968 30.712 37.547 30.8012Z" fill="#BABABA"/>
<path d="M30.7735 37.508C30.5387 37.6349 30.4299 37.8847 30.5218 38.104C30.5763 38.2378 31.8111 40.4709 31.9778 40.7349C32.1615 41.0295 32.4984 41.0705 32.7467 40.8273C32.876 40.7004 32.9304 40.5291 32.8862 40.3753C32.8693 40.3167 32.5222 39.6625 32.114 38.9295C31.3145 37.4978 31.2703 37.4396 31.0218 37.4396C30.9538 37.4429 30.8416 37.4738 30.7735 37.508Z" fill="#BABABA"/>
<path d="M12.358 37.6109C12.2866 37.6553 12.0043 38.0869 11.4429 39.0047C10.7047 40.2073 10.6264 40.3477 10.6264 40.488C10.6196 40.7691 10.8441 40.9677 11.1639 40.9677C11.2932 40.9677 11.3409 40.9473 11.4395 40.8546C11.5688 40.7346 13.0419 38.3542 13.1099 38.1553C13.2494 37.7546 12.7221 37.3746 12.358 37.6109Z" fill="#BABABA"/>
</g>
<path d="M200.48 21.0323C200.871 21.0323 201.188 21.3505 201.188 21.743C201.188 22.1355 200.871 22.4537 200.48 22.4537H189.589V31.519H202.466C202.865 31.519 203.19 31.8443 203.19 32.2456C203.19 32.6468 202.865 32.9721 202.466 32.9721H188.301C188.126 32.9721 187.984 32.8296 187.984 32.6539V11.1795C187.984 11.0038 188.126 10.8613 188.301 10.8613H201.993C202.393 10.8613 202.718 11.1866 202.718 11.5878C202.718 11.989 202.393 12.3143 201.993 12.3143H189.589V21.0323H200.48Z" fill="#80BA53"/>
<path fill-rule="evenodd" clip-rule="evenodd" d="M52.8753 10.8613C52.4175 10.8613 52.1102 11.332 52.2934 11.7524L61.3726 32.5905C61.4739 32.8223 61.702 32.9721 61.9545 32.9721H65.1528C65.4056 32.9721 65.6342 32.8219 65.735 32.5897L74.7845 11.7517C74.9669 11.3314 74.6597 10.8613 74.2022 10.8613H71.4941C71.2416 10.8613 71.013 11.0114 70.9122 11.2436L63.6712 27.9058L56.5096 11.2459C56.4095 11.0125 56.1802 10.8613 55.9266 10.8613H52.8753ZM81.5894 23.4329V29.5291H93.3902C93.741 29.5291 94.025 29.8141 94.025 30.1655V32.3357C94.025 32.6872 93.741 32.9721 93.3902 32.9721H77.814C77.6388 32.9721 77.4966 32.8297 77.4966 32.6539V11.1795C77.4966 11.0038 77.6388 10.8613 77.814 10.8613H92.9494C93.3002 10.8613 93.5843 11.1462 93.5843 11.4977V13.6679C93.5843 14.0194 93.3002 14.3043 92.9494 14.3043H81.5894V20.0531H90.8504C91.2008 20.0531 91.4852 20.338 91.4852 20.6894V22.7965C91.4852 23.1479 91.2008 23.4329 90.8504 23.4329H81.5894ZM99.2225 10.8613C98.8721 10.8613 98.5877 11.1462 98.5877 11.4977V32.3357C98.5877 32.6872 98.8721 32.9721 99.2225 32.9721H102.014C102.365 32.9721 102.649 32.6872 102.649 32.3357V18.0023L114.611 32.7374C114.732 32.8858 114.912 32.9721 115.103 32.9721H117.535C117.886 32.9721 118.17 32.6872 118.17 32.3357V11.4977C118.17 11.1462 117.886 10.8613 117.535 10.8613H114.744C114.393 10.8613 114.109 11.1462 114.109 11.4977V25.8312L102.147 11.0961C102.026 10.9475 101.845 10.8613 101.655 10.8613H99.2225ZM129.585 32.4667C131.033 33.0142 132.597 33.2878 134.275 33.2878C136.102 33.2878 137.759 32.9721 139.25 32.3403C140.55 31.7894 141.673 31.0222 142.622 30.0389C142.857 29.7954 142.836 29.4091 142.592 29.1754L140.855 27.5162C140.597 27.2692 140.187 27.2864 139.93 27.5346C139.252 28.1882 138.511 28.6951 137.708 29.0553C136.721 29.4765 135.651 29.687 134.496 29.687C133.342 29.687 132.282 29.4975 131.317 29.1185C130.372 28.7394 129.543 28.2025 128.829 27.5075C128.136 26.8126 127.591 25.9914 127.193 25.0438C126.815 24.0962 126.626 23.0538 126.626 21.9167C126.626 20.7796 126.815 19.7373 127.193 18.7896C127.591 17.842 128.136 17.0208 128.829 16.3258C129.543 15.6309 130.372 15.094 131.317 14.7149C132.282 14.3359 133.342 14.1463 134.496 14.1463C135.651 14.1463 136.721 14.3675 137.708 14.8097C138.512 15.1532 139.253 15.6437 139.933 16.2813C140.19 16.523 140.593 16.539 140.85 16.2967L142.59 14.6543C142.836 14.4226 142.859 14.0371 142.626 13.7923C141.677 12.7929 140.552 12.0265 139.25 11.4931C137.759 10.8613 136.112 10.5455 134.307 10.5455C132.607 10.5455 131.043 10.8298 129.616 11.3983C128.189 11.9458 126.94 12.7355 125.87 13.7673C124.8 14.7781 123.97 15.9784 123.383 17.3682C122.795 18.7581 122.501 20.2742 122.501 21.9167C122.501 23.5593 122.795 25.0754 123.383 26.4652C123.97 27.855 124.789 29.0659 125.838 30.0977C126.908 31.1085 128.158 31.8982 129.585 32.4667ZM147.585 10.8613C147.234 10.8613 146.95 11.1462 146.95 11.4977V32.3357C146.95 32.6872 147.234 32.9721 147.585 32.9721H150.407C150.758 32.9721 151.042 32.6872 151.042 32.3357V11.4977C151.042 11.1462 150.758 10.8613 150.407 10.8613H147.585Z" fill="#BABABA"/>
<path d="M158.519 32.9721C158.169 32.9721 157.884 32.6871 157.884 32.3357V11.1795C157.884 11.0038 158.027 10.8613 158.202 10.8613H159.055C159.169 10.8613 159.274 10.9218 159.33 11.0201L169.108 27.9535L178.855 11.0205C178.912 10.922 179.017 10.8613 179.13 10.8613H179.952C180.127 10.8613 180.269 11.0035 180.27 11.179L180.3 32.3348C180.3 32.6866 180.016 32.9721 179.665 32.9721H179.36C179.01 32.9721 178.726 32.6878 178.725 32.3367L178.696 14.0548L169.654 29.7169C169.54 29.9134 169.331 30.0345 169.104 30.0345H169.049C168.823 30.0345 168.614 29.9138 168.5 29.7176L159.459 14.1088V32.3357C159.459 32.6871 159.175 32.9721 158.824 32.9721H158.519Z" fill="#80BA53"/>
<path fill-rule="evenodd" clip-rule="evenodd" d="M209.362 32.9721C209.186 32.9721 209.045 32.8296 209.045 32.6539V11.1795C209.045 11.0038 209.186 10.8613 209.362 10.8613H217.765C220.095 10.8613 222.141 11.3351 223.904 12.2827C225.667 13.2303 227.031 14.5359 227.997 16.1995C228.984 17.863 229.477 19.7688 229.477 21.9167C229.477 24.0646 228.984 25.9703 227.997 27.6339C227.031 29.2974 225.667 30.603 223.904 31.5507C222.141 32.4983 220.095 32.9721 217.765 32.9721H209.362ZM217.639 31.519H210.65V12.3143H217.639C219.717 12.3143 221.522 12.7249 223.054 13.5462C224.587 14.3674 225.772 15.5046 226.612 16.9576C227.451 18.3895 227.871 20.0425 227.871 21.9167C227.871 23.7909 227.451 25.4544 226.612 26.9074C225.772 28.3393 224.587 29.4659 223.054 30.2871C221.522 31.1085 219.717 31.519 217.639 31.519Z" fill="#80BA53"/>
</g>
<defs>
<clipPath id="clip0_308_2868">
<rect width="230" height="44" fill="white"/>
</clipPath>
</defs>
</svg>
